<?xml version="1.0" encoding="UTF-8" standalone="no"?>
<!-- Created with Inkscape (http://www.inkscape.org/) -->

<svg
   xmlns:dc="http://purl.org/dc/elements/1.1/"
   xmlns:cc="http://creativecommons.org/ns#"
   xmlns:rdf="http://www.w3.org/1999/02/22-rdf-syntax-ns#"
   xmlns:svg="http://www.w3.org/2000/svg"
   xmlns="http://www.w3.org/2000/svg"
   xmlns:xlink="http://www.w3.org/1999/xlink"
   xmlns:sodipodi="http://sodipodi.sourceforge.net/DTD/sodipodi-0.dtd"
   xmlns:inkscape="http://www.inkscape.org/namespaces/inkscape"
   width="256"
   height="256"
   viewBox="0 0 67.733332 67.733332"
   version="1.1"
   id="svg8"
   inkscape:version="0.92.4 (f8dce91, 2019-08-02)"
   sodipodi:docname="bush.svg">
  <defs
     id="defs2" />
  <sodipodi:namedview
     id="base"
     pagecolor="#284b36"
     bordercolor="#666666"
     borderopacity="1.0"
     inkscape:pageopacity="0"
     inkscape:pageshadow="2"
     inkscape:zoom="2.8"
     inkscape:cx="220.38054"
     inkscape:cy="126.20291"
     inkscape:document-units="mm"
     inkscape:current-layer="layer1"
     showgrid="false"
     units="px"
     inkscape:window-width="1850"
     inkscape:window-height="1016"
     inkscape:window-x="70"
     inkscape:window-y="27"
     inkscape:window-maximized="1" />
  <metadata
     id="metadata5">
    <rdf:RDF>
      <cc:Work
         rdf:about="">
        <dc:format>image/svg+xml</dc:format>
        <dc:type
           rdf:resource="http://purl.org/dc/dcmitype/StillImage" />
        <dc:title></dc:title>
      </cc:Work>
    </rdf:RDF>
  </metadata>
  <g
     inkscape:label="Layer 1"
     inkscape:groupmode="layer"
     id="layer1"
     transform="translate(0,-229.26666)">
    <path
       sodipodi:type="inkscape:offset"
       inkscape:radius="0"
       inkscape:original="M 33.853516 243.47852 C 31.810152 245.52187 29.380859 253.57227 29.380859 253.57227 C 29.380859 253.57227 25.86555 250.0729 19.642578 249.51562 C 18.992417 255.2742 22.400391 259.99023 22.400391 259.99023 C 22.400391 259.99023 19.086531 262.33212 16.021484 266.51172 C 19.179411 268.9266 24.09375 269.48438 24.09375 269.48438 C 24.09375 269.48438 20.944032 275.33688 22.058594 279.60938 C 26.702605 278.4948 30.132812 274.33008 30.132812 274.33008 C 30.132812 274.33008 31.623982 280.72228 35.060547 282.76562 C 37.382553 280.53652 39.328125 274.14258 39.328125 274.14258 C 39.328125 274.14258 45.557148 275.98675 49.365234 275.61523 C 49.272354 273.01458 44.724609 267.17773 44.724609 267.17773 C 44.724609 267.17773 49.644134 266.23454 51.6875 262.70508 C 49.644134 259.64004 44.066406 258.875 44.066406 258.875 C 44.066406 258.875 48.890076 254.14005 48.691406 250.04688 C 44.497272 249.6673 39.353516 252.71094 39.353516 252.71094 C 39.353516 252.71094 36.36128 246.07917 33.853516 243.47852 z "
       xlink:href="#path827"
       style="opacity:0.30400002;fill:#005828;fill-opacity:1;stroke:#000000;stroke-width:2.1;stroke-linecap:butt;stroke-linejoin:miter;stroke-miterlimit:4;stroke-dasharray:none;stroke-opacity:1"
       id="path848"
       inkscape:href="#path827"
       d="m 33.853516,243.47852 c -2.043364,2.04335 -4.472657,10.09375 -4.472657,10.09375 0,0 -3.515309,-3.49937 -9.738281,-4.05665 -0.650161,5.75858 2.757813,10.47461 2.757813,10.47461 0,0 -3.31386,2.34189 -6.378907,6.52149 3.157927,2.41488 8.072266,2.97266 8.072266,2.97266 0,0 -3.149718,5.8525 -2.035156,10.125 4.644011,-1.11458 8.074218,-5.2793 8.074218,-5.2793 0,0 1.49117,6.3922 4.927735,8.43554 2.322006,-2.2291 4.267578,-8.62304 4.267578,-8.62304 0,0 6.229023,1.84417 10.037109,1.47265 -0.09288,-2.60065 -4.640625,-8.4375 -4.640625,-8.4375 0,0 4.919525,-0.94319 6.962891,-4.47265 -2.043366,-3.06504 -7.621094,-3.83008 -7.621094,-3.83008 0,0 4.82367,-4.73495 4.625,-8.82812 -4.194134,-0.37958 -9.33789,2.66406 -9.33789,2.66406 0,0 -2.992236,-6.63177 -5.5,-9.23242 z" />
    <path
       sodipodi:nodetypes="ccccccccccccccccc"
       inkscape:connector-curvature="0"
       id="path827"
       d="m 29.380859,253.57227 c 0,0 2.429495,-8.0508 4.472859,-10.09415 2.507764,2.60065 5.499798,9.23282 5.499798,9.23282 0,0 5.143756,-3.04364 9.33789,-2.66406 0.19867,4.09318 -4.625,8.82812 -4.625,8.82812 0,0 5.576943,0.76426 7.620309,3.8293 -2.043366,3.52946 -6.962106,4.47343 -6.962106,4.47343 0,0 4.54722,5.83628 4.6401,8.43693 -3.808086,0.37152 -10.036584,-1.47208 -10.036584,-1.47208 0,0 -1.94496,6.39473 -4.266966,8.62384 -3.436565,-2.04335 -4.928347,-8.43634 -4.928347,-8.43634 0,0 -3.430867,4.16386 -8.074878,5.27843 -1.114562,-4.27249 2.035816,-10.12413 2.035816,-10.12413 0,0 -4.915101,-0.5571 -8.073028,-2.97198 3.065047,-4.1796 6.379669,-6.52217 6.379669,-6.52217 0,0 -3.407502,-4.71633 -2.757341,-10.47491 6.222972,0.55728 9.737809,4.05695 9.737809,4.05695 z"
       style="fill:#005828;fill-opacity:1;stroke:#000000;stroke-width:0.7;stroke-linecap:butt;stroke-linejoin:miter;stroke-miterlimit:4;stroke-dasharray:none;stroke-opacity:1" />
  </g>
</svg>
