<?xml version="1.0" encoding="UTF-8" standalone="no"?>
<!-- Created with Inkscape (http://www.inkscape.org/) -->

<svg
   xmlns:dc="http://purl.org/dc/elements/1.1/"
   xmlns:cc="http://creativecommons.org/ns#"
   xmlns:rdf="http://www.w3.org/1999/02/22-rdf-syntax-ns#"
   xmlns:svg="http://www.w3.org/2000/svg"
   xmlns="http://www.w3.org/2000/svg"
   xmlns:xlink="http://www.w3.org/1999/xlink"
   xmlns:sodipodi="http://sodipodi.sourceforge.net/DTD/sodipodi-0.dtd"
   xmlns:inkscape="http://www.inkscape.org/namespaces/inkscape"
   width="128"
   height="128"
   viewBox="0 0 33.866666 33.866667"
   version="1.1"
   id="svg846"
   inkscape:version="0.92.4 (f8dce91, 2019-08-02)"
   sodipodi:docname="character-body-girl.svg">
  <defs
     id="defs840" />
  <sodipodi:namedview
     id="base"
     pagecolor="#ffffff"
     bordercolor="#666666"
     borderopacity="1.0"
     inkscape:pageopacity="0.0"
     inkscape:pageshadow="2"
     inkscape:zoom="7.919596"
     inkscape:cx="39.112052"
     inkscape:cy="28.752277"
     inkscape:document-units="mm"
     inkscape:current-layer="layer1"
     showgrid="false"
     units="px"
     inkscape:window-width="1850"
     inkscape:window-height="1016"
     inkscape:window-x="70"
     inkscape:window-y="27"
     inkscape:window-maximized="1" />
  <metadata
     id="metadata843">
    <rdf:RDF>
      <cc:Work
         rdf:about="">
        <dc:format>image/svg+xml</dc:format>
        <dc:type
           rdf:resource="http://purl.org/dc/dcmitype/StillImage" />
        <dc:title />
      </cc:Work>
    </rdf:RDF>
  </metadata>
  <g
     inkscape:label="Layer 1"
     inkscape:groupmode="layer"
     id="layer1"
     transform="translate(0,-263.13332)">
    <path
       sodipodi:type="inkscape:offset"
       inkscape:radius="0"
       inkscape:original="M 16.933594 269.18945 A 10.87756 10.87756 0 0 0 6.0546875 280.06641 A 10.87756 10.87756 0 0 0 16.933594 290.94531 A 10.87756 10.87756 0 0 0 27.810547 280.06641 A 10.87756 10.87756 0 0 0 16.933594 269.18945 z "
       xlink:href="#path1391"
       style="opacity:0.31000001;vector-effect:none;fill:#f0d1c4;fill-opacity:1;stroke:#000000;stroke-width:2.0999999;stroke-linecap:butt;stroke-linejoin:miter;stroke-miterlimit:4;stroke-dasharray:none;stroke-dashoffset:0;stroke-opacity:1"
       id="path1408"
       inkscape:href="#path1391"
       d="M 16.933594,269.18945 A 10.87756,10.87756 0 0 0 6.0546875,280.06641 10.87756,10.87756 0 0 0 16.933594,290.94531 10.87756,10.87756 0 0 0 27.810547,280.06641 10.87756,10.87756 0 0 0 16.933594,269.18945 Z" />
    <circle
       style="opacity:1;vector-effect:none;fill:#ecc078;fill-opacity:1;stroke:#000000;stroke-width:0.69999999;stroke-linecap:butt;stroke-linejoin:miter;stroke-miterlimit:4;stroke-dasharray:none;stroke-dashoffset:0;stroke-opacity:1;font-variant-east_asian:normal"
       id="path1391"
       cx="16.932785"
       cy="280.06693"
       r="10.87756" />
    <path
       style="opacity:1;vector-effect:none;fill:#775307;fill-opacity:1;stroke:#000000;stroke-width:0.5;stroke-linecap:butt;stroke-linejoin:miter;stroke-miterlimit:4;stroke-dasharray:none;stroke-dashoffset:0;stroke-opacity:1"
       d="m 27.810345,280.06693 c -2e-6,1.85751 -0.465595,3.60627 -1.286443,5.13595 -1.833921,3.41758 -4.565418,-2.74421 -9.591117,-2.74421 -5.025699,0 -7.5490253,6.29369 -9.4283263,3.03666 -0.921811,-1.5976 -1.4492315,-3.4514 -1.4492333,-5.4284 -5.5e-6,-6.00751 4.8700496,-10.87756 10.8775596,-10.87756 6.007511,0 10.877566,4.87005 10.87756,10.87756 z"
       id="circle838"
       inkscape:connector-curvature="0"
       sodipodi:nodetypes="sszssss" />
    <path
       style="fill:#775307;fill-opacity:1;stroke:#000000;stroke-width:0.69999999;stroke-linecap:butt;stroke-linejoin:round;stroke-miterlimit:4;stroke-dasharray:none;stroke-opacity:1"
       d="m 3.0672922,282.51842 c -0.023899,-1.17574 0.3062258,-1.80663 1.7069085,-2.97167 -1.886667,0.48849 -2.565867,0.4592 -3.5528404,0.001 0,0 4.7183221,-6.03821 7.0754463,-2.20436 2.3571314,3.83384 -5.2295142,5.17465 -5.2295144,5.17465 z"
       id="path2122"
       inkscape:connector-curvature="0"
       sodipodi:nodetypes="ccczc" />
    <path
       style="fill:#775307;fill-opacity:1;stroke:#000000;stroke-width:0.69999999;stroke-linecap:butt;stroke-linejoin:round;stroke-miterlimit:4;stroke-dasharray:none;stroke-opacity:1"
       d="m 30.575587,282.50943 c 0.0239,-1.17574 -0.306225,-1.80663 -1.706908,-2.97167 1.886667,0.48849 2.565867,0.4592 3.55284,0.001 0,0 -4.718322,-6.03821 -7.075446,-2.20436 -2.357131,3.83383 5.229514,5.17464 5.229514,5.17464 z"
       id="path2122-6"
       inkscape:connector-curvature="0"
       sodipodi:nodetypes="ccczc" />
  </g>
</svg>
