<?xml version="1.0" encoding="UTF-8" standalone="no"?>
<!-- Created with Inkscape (http://www.inkscape.org/) -->

<svg
   xmlns:dc="http://purl.org/dc/elements/1.1/"
   xmlns:cc="http://creativecommons.org/ns#"
   xmlns:rdf="http://www.w3.org/1999/02/22-rdf-syntax-ns#"
   xmlns:svg="http://www.w3.org/2000/svg"
   xmlns="http://www.w3.org/2000/svg"
   xmlns:xlink="http://www.w3.org/1999/xlink"
   xmlns:sodipodi="http://sodipodi.sourceforge.net/DTD/sodipodi-0.dtd"
   xmlns:inkscape="http://www.inkscape.org/namespaces/inkscape"
   width="256"
   height="256"
   viewBox="0 0 67.733332 67.733332"
   version="1.1"
   id="svg8"
   inkscape:version="0.92.4 (f8dce91, 2019-08-02)"
   sodipodi:docname="rock.svg">
  <defs
     id="defs2" />
  <sodipodi:namedview
     id="base"
     pagecolor="#284b36"
     bordercolor="#666666"
     borderopacity="1.0"
     inkscape:pageopacity="0"
     inkscape:pageshadow="2"
     inkscape:zoom="5.6"
     inkscape:cx="111.65626"
     inkscape:cy="97.149516"
     inkscape:document-units="mm"
     inkscape:current-layer="layer1"
     showgrid="false"
     units="px"
     inkscape:window-width="1850"
     inkscape:window-height="1016"
     inkscape:window-x="70"
     inkscape:window-y="27"
     inkscape:window-maximized="1" />
  <metadata
     id="metadata5">
    <rdf:RDF>
      <cc:Work
         rdf:about="">
        <dc:format>image/svg+xml</dc:format>
        <dc:type
           rdf:resource="http://purl.org/dc/dcmitype/StillImage" />
        <dc:title></dc:title>
      </cc:Work>
    </rdf:RDF>
  </metadata>
  <g
     inkscape:label="Layer 1"
     inkscape:groupmode="layer"
     id="layer1"
     transform="translate(0,-229.26666)">
    <path
       sodipodi:type="inkscape:offset"
       inkscape:radius="0"
       inkscape:original="M -27.082031 243.93359 C -28.149914 243.89536 -29.214355 244.05695 -30.283203 244.37109 C -30.414096 244.40957 -30.27124 245.28227 -30.400391 245.32617 C -30.554356 245.37854 -30.979665 244.60406 -31.130859 244.66406 C -33.150641 245.46606 -34.909397 246.94754 -36.03125 248.98438 C -36.087494 249.08649 -35.038797 249.74664 -35.091797 249.85156 C -35.16239 249.9913 -36.333264 249.57341 -36.396484 249.71484 C -37.444809 252.06009 -37.48279 254.6224 -36.679688 256.89062 C -36.621675 257.05447 -35.728849 256.94492 -35.662109 257.10547 C -35.603783 257.24583 -36.373474 257.6573 -36.308594 257.79492 C -35.472992 259.56646 -34.095397 261.09832 -32.267578 262.11523 C -32.153539 262.17869 -31.480809 261.13591 -31.363281 261.19531 C -31.264423 261.24525 -31.722707 262.39696 -31.623047 262.44336 C -29.868335 263.25713 -27.98661 263.50069 -26.193359 263.24414 C -25.999973 263.21647 -26.079715 262.3518 -25.888672 262.3125 C -25.745578 262.28314 -25.330964 263.08258 -25.189453 263.04688 C -22.659229 262.40786 -20.399013 260.75389 -19.060547 258.30078 C -19.010886 258.20976 -19.513887 257.83929 -19.466797 257.74609 C -19.387032 257.58822 -18.759823 257.70688 -18.689453 257.54688 C -17.711012 255.32123 -17.638426 252.90569 -18.328125 250.73242 C -18.379343 250.57099 -19.264659 250.68389 -19.324219 250.52539 C -19.398137 250.32868 -18.647795 249.86161 -18.734375 249.66992 C -19.566858 247.82678 -20.739731 246.35311 -22.632812 245.30859 C -22.736932 245.25115 -24.127368 247.14004 -24.234375 247.08594 C -24.375472 247.01466 -23.714847 244.75941 -23.857422 244.69531 C -24.943339 244.21052 -26.014149 243.97183 -27.082031 243.93359 z "
       xlink:href="#path1544"
       style="opacity:0.29899998;vector-effect:none;fill:#4c483f;fill-opacity:0.98206278;stroke:#000000;stroke-width:2.0999999;stroke-linecap:round;stroke-linejoin:round;stroke-miterlimit:4;stroke-dasharray:none;stroke-dashoffset:0;stroke-opacity:1"
       id="path5276"
       inkscape:href="#path1544"
       d="m -27.082031,243.93359 c -1.067883,-0.0382 -2.132324,0.12336 -3.201172,0.4375 -0.130893,0.0385 0.01196,0.91118 -0.117188,0.95508 -0.153965,0.0524 -0.579274,-0.72211 -0.730468,-0.66211 -2.019782,0.802 -3.778538,2.28348 -4.900391,4.32032 -0.05624,0.10211 0.992453,0.76226 0.939453,0.86718 -0.07059,0.13974 -1.241467,-0.27815 -1.304687,-0.13672 -1.048325,2.34525 -1.086306,4.90756 -0.283204,7.17578 0.05801,0.16385 0.950839,0.0543 1.017579,0.21485 0.05833,0.14036 -0.711365,0.55183 -0.646485,0.68945 0.835602,1.77154 2.213197,3.3034 4.041016,4.32031 0.114039,0.0635 0.786769,-0.97932 0.904297,-0.91992 0.09886,0.0499 -0.359426,1.20165 -0.259766,1.24805 1.754712,0.81377 3.636437,1.05733 5.429688,0.80078 0.193386,-0.0277 0.113644,-0.89234 0.304687,-0.93164 0.143094,-0.0294 0.557708,0.77008 0.699219,0.73438 2.530224,-0.63902 4.79044,-2.29299 6.128906,-4.7461 0.04966,-0.091 -0.45334,-0.46149 -0.40625,-0.55469 0.07976,-0.15787 0.706974,-0.0392 0.777344,-0.19921 0.978441,-2.22565 1.051027,-4.64119 0.361328,-6.81446 -0.05122,-0.16143 -0.936534,-0.0485 -0.996094,-0.20703 -0.07392,-0.19671 0.676424,-0.66378 0.589844,-0.85547 -0.832483,-1.84314 -2.005356,-3.31681 -3.898437,-4.36133 -0.10412,-0.0574 -1.494556,1.83145 -1.601563,1.77735 -0.141097,-0.0713 0.519528,-2.32653 0.376953,-2.39063 -1.085917,-0.48479 -2.156727,-0.72348 -3.224609,-0.76172 z"
       transform="translate(0.85044648,25.135417)" />
    <path
       id="path1544"
       style="opacity:1;vector-effect:none;fill:#4c483f;fill-opacity:0.98206278;stroke:#000000;stroke-width:0.69999999;stroke-linecap:round;stroke-linejoin:round;stroke-miterlimit:4;stroke-dasharray:none;stroke-dashoffset:0;stroke-opacity:1"
       d="m -19.466928,257.74568 c -0.04709,0.0932 0.456343,0.46412 0.406682,0.55514 -1.338466,2.45311 -3.598389,4.10617 -6.128613,4.74519 -0.141511,0.0357 -0.556921,-0.76232 -0.700015,-0.73296 -0.191043,0.0393 -0.110346,0.90331 -0.303732,0.93098 -1.793251,0.25655 -3.675328,0.0135 -5.43004,-0.80027 -0.09966,-0.0464 0.358563,-1.19801 0.259705,-1.24795 -0.117528,-0.0594 -0.79092,0.98285 -0.904959,0.91939 -1.827819,-1.01691 -3.204606,-2.54848 -4.040208,-4.32002 -0.06488,-0.13762 0.704095,-0.54965 0.645769,-0.69001 -0.06674,-0.16055 -0.959749,-0.0498 -1.017762,-0.21364 -0.803102,-2.26822 -0.76448,-4.83046 0.283845,-7.17571 0.06322,-0.14143 1.233767,0.27555 1.30436,0.13581 0.053,-0.10492 -0.996022,-0.766 -0.939778,-0.86811 1.121853,-2.03683 2.880747,-3.51805 4.900529,-4.32005 0.151194,-0.06 0.576894,0.71436 0.730859,0.66199 0.129151,-0.0439 -0.01382,-0.91578 0.117073,-0.95426 2.137696,-0.62828 4.25446,-0.64599 6.426295,0.3236 0.142575,0.0641 -0.518634,2.32003 -0.377537,2.39131 0.107007,0.0541 1.497771,-1.83556 1.601891,-1.77812 1.893082,1.04452 3.064768,2.51785 3.897251,4.36099 0.08658,0.19169 -0.663743,0.65909 -0.589825,0.8558 0.05956,0.1585 0.945618,0.0455 0.996836,0.20693 0.689699,2.17327 0.616799,4.59016 -0.361642,6.8158 -0.07037,0.16001 -0.697223,0.0403 -0.776988,0.19817 z"
       inkscape:connector-curvature="0"
       sodipodi:nodetypes="scccccscccccssccccscccccs" />
    <path
       d="m -21.947971,256.49538 c -0.03266,0.0645 0.287549,0.55346 0.253095,0.61661 -0.928548,1.7018 -2.29172,2.58277 -4.047043,3.02609 -0.09821,0.0249 -0.56195,-0.49448 -0.661214,-0.47413 -0.132573,0.0273 -0.301243,0.65382 -0.435395,0.673 -1.244056,0.17799 -2.115096,0.12345 -3.332418,-0.44108 -0.06945,-0.0315 0.0388,-0.97233 -0.02976,-1.00698 -0.08152,-0.0411 -0.793876,0.57554 -0.872986,0.53151 -1.268033,-0.70546 -1.922692,-1.45793 -2.502385,-2.68692 -0.04502,-0.0954 0.433168,-0.58508 0.392707,-0.68244 -0.04628,-0.11143 -0.784215,-0.25263 -0.824463,-0.36627 -0.557142,-1.57356 -0.574121,-2.95123 0.153142,-4.57824 0.04389,-0.0981 1.018088,0.01 1.067054,-0.0875 0.03678,-0.0728 -0.556679,-0.76245 -0.517661,-0.83328 0.778271,-1.41303 1.660298,-2.1192 3.061504,-2.6756 0.104866,-0.0417 0.604133,0.40517 0.710866,0.36899 0.08961,-0.0304 0.208172,-0.68353 0.298976,-0.71022 1.483005,-0.43588 2.439677,-0.49579 3.946364,0.17687 0.0989,0.0446 -0.207164,1.60767 0.04269,1.73392 0.249862,0.12622 1.273199,-1.09377 1.345428,-1.05392 1.313309,0.72464 1.762934,1.40501 2.340466,2.68366 0.06004,0.13301 -0.341927,0.6402 -0.290655,0.77668 0.04138,0.10987 0.704251,0.2493 0.739766,0.3613 0.478474,1.50767 0.506611,2.81977 -0.172171,4.36381 -0.04887,0.11094 -0.610622,0.17476 -0.665964,0.28432 z"
       style="opacity:1;vector-effect:none;fill:#514c43;fill-opacity:1;stroke:none;stroke-width:0.32421729;stroke-linecap:round;stroke-linejoin:round;stroke-miterlimit:4;stroke-dasharray:none;stroke-dashoffset:0;stroke-opacity:1"
       id="path5274"
       inkscape:connector-curvature="0"
       sodipodi:nodetypes="csccccscccccsccccczcccccsc" />
    <path
       sodipodi:nodetypes="ccccccc"
       inkscape:connector-curvature="0"
       id="path2281"
       d="m 102.15443,285.86826 c -5.669019,1.81815 -13.831824,2.31451 -19.731989,2.47522 -3.471984,-3.54902 -6.533465,-7.79786 -9.294004,-12.47121 0.395806,-5.95634 1.416122,-9.9396 3.186286,-15.34534 4.768004,-3.21551 12.225087,-6.71734 18.107841,-8.0112 4.544913,3.96449 8.287306,9.03948 11.144386,13.25509 -0.39551,6.37762 -1.37452,14.82308 -3.41252,20.09744 z"
       style="opacity:1;vector-effect:none;fill:#515252;fill-opacity:0.99095022;stroke:none;stroke-width:0.435729;stroke-linecap:round;stroke-linejoin:round;stroke-miterlimit:4;stroke-dasharray:none;stroke-dashoffset:0;stroke-opacity:1" />
    <path
       style="opacity:0.30100002;vector-effect:none;fill:#717171;fill-opacity:1;stroke:#000000;stroke-width:2.0999999;stroke-linecap:round;stroke-linejoin:round;stroke-miterlimit:4;stroke-dasharray:none;stroke-dashoffset:0;stroke-opacity:1"
       d="m 35.16214,251.69776 c -1.451823,-0.14619 -3.027057,0.0451 -4.706485,0.63663 -5.638182,1.98614 -8.777656,7.60289 -7.129426,13.73143 1.602952,5.95924 7.246659,9.83333 12.995647,8.16127 6.467895,-1.88115 9.860767,-8.32359 8.013239,-13.87946 -1.577575,-4.74407 -4.817507,-8.21132 -9.172975,-8.64987 z"
       id="path2972"
       inkscape:connector-curvature="0" />
    <path
       style="opacity:1;vector-effect:none;fill:#717171;fill-opacity:1;stroke:#000000;stroke-width:0.69999999;stroke-linecap:round;stroke-linejoin:round;stroke-miterlimit:4;stroke-dasharray:none;stroke-dashoffset:0;stroke-opacity:1"
       d="m 23.326456,266.0665 c -1.64823,-6.12855 1.49056,-11.74648 7.128741,-13.73262 6.717711,-2.36642 11.776681,1.68827 13.880113,8.01368 1.847528,5.55588 -1.545791,11.99897 -8.013687,13.88012 -5.748986,1.67205 -11.392214,-2.20193 -12.995167,-8.16118 z"
       id="path2338"
       inkscape:connector-curvature="0"
       sodipodi:nodetypes="sssss" />
    <path
       style="opacity:1;vector-effect:none;fill:#a3a3a3;fill-opacity:0.99095022;stroke:none;stroke-width:0.93816346;stroke-linecap:round;stroke-linejoin:round;stroke-miterlimit:4;stroke-dasharray:none;stroke-dashoffset:0;stroke-opacity:1"
       d="m 38.011046,269.98388 c -1.584865,1.0901 -5.702351,1.56414 -5.702351,0.22332 0,-1.34082 2.024584,-0.94304 3.926823,-2.0413 1.902239,-1.09826 3.683568,-3.94904 4.742303,-3.17736 1.058736,0.77168 -1.38191,3.90524 -2.966775,4.99534 z"
       id="path2341"
       inkscape:connector-curvature="0"
       sodipodi:nodetypes="zzzzz" />
  </g>
</svg>
