<?xml version="1.0" encoding="UTF-8" standalone="no"?>
<svg
   xmlns:dc="http://purl.org/dc/elements/1.1/"
   xmlns:cc="http://creativecommons.org/ns#"
   xmlns:rdf="http://www.w3.org/1999/02/22-rdf-syntax-ns#"
   xmlns:svg="http://www.w3.org/2000/svg"
   xmlns="http://www.w3.org/2000/svg"
   xmlns:xlink="http://www.w3.org/1999/xlink"
   id="svg8"
   version="1.1"
   viewBox="0 0 21.166666 21.166666"
   height="80"
   width="80">
  <defs
     id="defs2" />
  <metadata
     id="metadata5">
    <rdf:RDF>
      <cc:Work
         rdf:about="">
        <dc:format>image/svg+xml</dc:format>
        <dc:type
           rdf:resource="http://purl.org/dc/dcmitype/StillImage" />
        <dc:title></dc:title>
      </cc:Work>
    </rdf:RDF>
  </metadata>
  <g
     transform="translate(0,-275.83333)"
     id="layer1">
    <g
       style="opacity:0.2;stroke-width:1.79999995;stroke-miterlimit:4;stroke-dasharray:none"
       id="g7676">
      <g
         style="display:none"
         id="g7680">
        <path
           transform="translate(49.688815,8.0439865)"
           d="m -8.6367188,276.93359 c -7.5515962,0 -7.9463602,11.94102 -0.3964843,10.8125 8.34928595,1.71262 7.9481264,-10.8125 0.3964843,-10.8125 z"
           id="path7672"
           style="opacity:1;vector-effect:none;fill:#bd1935;fill-opacity:1;stroke:#000000;stroke-width:1.79999995;stroke-linecap:butt;stroke-linejoin:miter;stroke-miterlimit:4;stroke-dasharray:none;stroke-dashoffset:0;stroke-opacity:1"
           xlink:href="#path3285-0" />
        <path
           transform="translate(49.688815,8.0439865)"
           d="m -8.2324219,273.55664 -1.6113281,0.0215 c 0.3922723,0.76961 0.6139045,2.2697 0.6171875,3.04297 -4.3544835,0.0518 -3.9990255,2.93453 -6.2636715,3.69141 3.092266,0.52172 3.391904,-2.40792 6.0019528,-2.04102 -1.1619608,2.63057 0.8550593,3.85151 1.0839843,5.01172 0.343332,-1.16655 -1.1527254,-2.89329 0.8222657,-4.99804 2.836828,-0.11399 3.5576539,3.11034 5.75,2.35546 -2.02187,-0.99155 -1.6973463,-4.08621 -5.8945313,-4.13281 -0.0046,-0.71412 -0.1402374,-2.21509 -0.5058594,-2.95117 z"
           id="path7670"
           style="fill:#007f3a;fill-opacity:1;stroke:#000000;stroke-width:1.79999995;stroke-linecap:round;stroke-linejoin:round;stroke-miterlimit:4;stroke-dasharray:none;stroke-opacity:1"
           xlink:href="#path7649" />
      </g>
    </g>
    <path
       id="path3285-0"
       d="m -39.50233,284.67172 c -7.549876,1.12852 -7.154792,-10.81163 0.396804,-10.81163 7.551642,0 7.952482,12.52425 -0.396804,10.81163 z"
       style="opacity:1;vector-effect:none;fill:#bd1935;fill-opacity:1;stroke:#000000;stroke-width:0.69999999;stroke-linecap:butt;stroke-linejoin:miter;stroke-miterlimit:4;stroke-dasharray:none;stroke-dashoffset:0;stroke-opacity:1" />
    <path
       id="path3287-2"
       d="m -35.372211,281.59347 c 0.555789,0.50959 -0.967782,1.58914 -2.354048,2.00171 -1.386267,0.41256 -3.339495,-0.31395 -3.24819,-0.61973 0.0913,-0.30579 1.725643,0.25234 3.010868,-0.13603 1.28523,-0.38837 2.035579,-1.75556 2.59137,-1.24595 z"
       style="opacity:0.80699978;fill:#fffdfd;fill-opacity:1;stroke:none;stroke-width:0.38922897;stroke-linecap:butt;stroke-linejoin:miter;stroke-miterlimit:4;stroke-dasharray:none;stroke-opacity:1" />
    <path
       id="path7649"
       d="m -39.956804,275.19769 c -1.161961,2.63057 0.85547,3.85202 1.084395,5.01223 0.343332,-1.16655 -1.153752,-2.89402 0.821239,-4.99877 2.836828,-0.11399 3.558681,3.11107 5.751027,2.35619 -2.02187,-0.99156 -1.698897,-4.08606 -5.896082,-4.13266 -0.0046,-0.71412 -0.138687,-2.21525 -0.504309,-2.95133 l -1.611585,0.021 c 0.392272,0.7696 0.613259,2.26941 0.616542,3.04268 -4.354483,0.0518 -3.998123,2.9353 -6.262769,3.69218 3.092266,0.52172 3.391493,-2.40842 6.001542,-2.04152 z"
       style="fill:#007f3a;fill-opacity:1;stroke:#000000;stroke-width:0.69999999;stroke-linecap:round;stroke-linejoin:round;stroke-miterlimit:4;stroke-dasharray:none;stroke-opacity:1" />
    <path
       id="path1589"
       d="m 69.888728,293.76059 -4.734449,1.96107 -4.734449,-1.96107 -1.961073,-4.73445 1.961073,-4.73444 4.734449,-1.96108 4.734449,1.96108 1.961073,4.73444 z"
       style="opacity:1;vector-effect:none;fill:#cf1d3b;fill-opacity:1;stroke:none;stroke-width:0.61312133;stroke-linecap:butt;stroke-linejoin:round;stroke-miterlimit:4;stroke-dasharray:none;stroke-dashoffset:0;stroke-opacity:1" />
    <path
       id="path1591"
       d="m 67.554022,291.42589 -2.399743,0.994 -2.399743,-0.994 -0.994006,-2.39975 0.994006,-2.39974 2.399743,-0.99401 2.399743,0.99401 0.994006,2.39974 z"
       style="opacity:1;vector-effect:none;fill:#d81d3d;fill-opacity:1;stroke:none;stroke-width:0.31077188;stroke-linecap:butt;stroke-linejoin:round;stroke-miterlimit:4;stroke-dasharray:none;stroke-dashoffset:0;stroke-opacity:1" />
    <path
       id="path1595"
       d="m 65.15428,282.33062 v 3.30177 l -2.399743,0.99401 -2.334707,-2.3347 z"
       style="fill:#a2152d;fill-opacity:1;stroke:none;stroke-width:0.23174526px;stroke-linecap:butt;stroke-linejoin:miter;stroke-opacity:1" />
    <path
       id="path1599"
       d="m 65.15428,292.41989 2.39974,-0.994 2.334709,2.3347 -4.734449,1.96107 z"
       style="fill:#e43855;fill-opacity:1;stroke:none;stroke-width:0.23174526px;stroke-linecap:butt;stroke-linejoin:miter;stroke-opacity:1" />
    <path
       id="path1601"
       d="m 60.41983,293.76059 2.334707,-2.3347 2.399743,0.994 v 3.30177 z"
       style="fill:#df1d3d;fill-opacity:1;stroke:none;stroke-width:0.23174526px;stroke-linecap:butt;stroke-linejoin:miter;stroke-opacity:1" />
    <path
       id="path1605"
       d="m 69.888729,293.76059 -2.334709,-2.3347 0.994007,-2.39975 h 3.301774 z"
       style="fill:#df1d3d;fill-opacity:1;stroke:none;stroke-width:0.23174526px;stroke-linecap:butt;stroke-linejoin:miter;stroke-opacity:1" />
    <path
       id="path1607"
       d="m 58.458757,289.02614 h 3.301773 l 0.994007,-2.39974 -2.334707,-2.3347 z"
       style="fill:#b01731;fill-opacity:1;stroke:none;stroke-width:0.23174526px;stroke-linecap:butt;stroke-linejoin:miter;stroke-opacity:1" />
    <path
       id="path1609"
       d="m 65.15428,282.33062 4.734449,1.96108 -2.334709,2.3347 -2.39974,-0.99401 z"
       style="fill:#b01731;fill-opacity:1;stroke:none;stroke-width:0.23174526px;stroke-linecap:butt;stroke-linejoin:miter;stroke-opacity:1" />
    <path
       style="opacity:1;vector-effect:none;fill:none;fill-opacity:1;stroke:#000000;stroke-width:0.69999999;stroke-linecap:butt;stroke-linejoin:round;stroke-miterlimit:4;stroke-dasharray:none;stroke-dashoffset:0;stroke-opacity:1"
       d="m 69.888728,293.76059 -4.734449,1.96107 -4.734449,-1.96107 -1.961073,-4.73445 1.961073,-4.73444 4.734449,-1.96108 4.734449,1.96108 1.961073,4.73444 z"
       id="path1597" />
    <path
       id="path952"
       d="m 7.433625,281.79948 c 0,-0.91376 -0.7356319,-1.64939 -1.6493992,-1.64939 -1.1735117,0 -1.4838836,1.01978 -1.4838836,1.81788 0,0.7981 0.5446564,1.31538 1.2245193,1.31538 H 7.512272 Z"
       style="opacity:1;vector-effect:none;fill:#b79e6c;fill-opacity:1;stroke:#000000;stroke-width:0.69999999;stroke-linecap:round;stroke-linejoin:bevel;stroke-miterlimit:4;stroke-dasharray:none;stroke-dashoffset:0;stroke-opacity:1" />
    <path
       style="opacity:1;vector-effect:none;fill:none;fill-opacity:1;stroke:#000000;stroke-width:0.7;stroke-linecap:round;stroke-linejoin:bevel;stroke-miterlimit:4;stroke-dasharray:none;stroke-dashoffset:0;stroke-opacity:1"
       d="m 7.433625,281.79948 c 0,-0.91376 -0.7356319,-1.64939 -1.6493992,-1.64939 -1.1735117,0 -1.4838836,1.01978 -1.4838836,1.81788 0,0.7981 0.5446564,1.31538 1.2245193,1.31538 0.6798639,0 1.0012143,-0.59118 1.0012143,-1.13803 0,-0.54684 -0.1085002,-0.90625 -0.5787382,-0.90625 -0.4702391,0 -0.6227744,0.47516 -0.6227744,0.85942"
       id="path950" />
    <path
       style="opacity:1;vector-effect:none;fill:#ffffff;fill-opacity:1;stroke:#000000;stroke-width:0.69999999;stroke-linecap:butt;stroke-linejoin:bevel;stroke-miterlimit:4;stroke-dasharray:none;stroke-dashoffset:0;stroke-opacity:1"
       d="m 5.2001761,291.03382 c 0,0.91376 0.7356404,1.64939 1.6493992,1.64939 1.1735181,0 1.4838851,-1.01978 1.4838851,-1.81788 0,-0.7981 -0.5446536,-1.31539 -1.2245155,-1.31539"
       id="path958" />
    <path
       id="rect906"
       d="m 14.304916,280.15011 c 0.913767,0 1.649399,0.73563 1.649399,1.64939 0,3.53579 -2.228895,5.32578 -2.228895,9.23434 0,0.91376 0.735632,1.64939 1.649398,1.64939 H 6.8617498 c -0.9137668,0 -1.6493986,-0.73563 -1.6493986,-1.64939 0,-3.46881 2.2288942,-5.76198 2.2288942,-9.23434 0,-0.91376 -0.7356317,-1.64939 -1.6493985,-1.64939 z"
       style="opacity:1;vector-effect:none;fill:#b79e6c;fill-opacity:1;stroke:#000000;stroke-width:0.7;stroke-linecap:butt;stroke-linejoin:bevel;stroke-miterlimit:4;stroke-dasharray:none;stroke-dashoffset:0;stroke-opacity:1" />
    <path
       id="path960"
       d="m 6.7709315,292.68321 c 1.1735079,0 1.4838849,-1.01978 1.4838849,-1.81788 0,-0.7981 -0.5446535,-1.31539 -1.2245153,-1.31539 -0.6798725,0 -1.0012229,0.59119 -1.0012229,1.13804 0,0.54684 0.1085034,0.90625 0.5787403,0.90625 0.470237,0 0.6227777,-0.47516 0.6227777,-0.85943"
       style="opacity:1;vector-effect:none;fill:none;fill-opacity:1;stroke:#000000;stroke-width:0.69999999;stroke-linecap:round;stroke-linejoin:bevel;stroke-miterlimit:4;stroke-dasharray:none;stroke-dashoffset:0;stroke-opacity:1" />
    <path
       style="opacity:1;vector-effect:none;fill:#b79e6c;fill-opacity:1;stroke:#000000;stroke-width:0.7;stroke-linecap:round;stroke-linejoin:bevel;stroke-miterlimit:4;stroke-dasharray:none;stroke-dashoffset:0;stroke-opacity:1"
       d="m 6.7709315,292.68321 c 1.1735079,0 1.4838849,-1.01978 1.4838849,-1.81788 0,-0.7981 -0.5446535,-1.31539 -1.2245153,-1.31539 h 8.6115069 c 0.679862,0 1.224516,0.51729 1.224516,1.31539 0,0.7981 -0.310378,1.81788 -1.483885,1.81788 z"
       id="path985" />
  </g>
</svg>
