<?xml version="1.0" encoding="UTF-8" standalone="no"?>
<!-- Created with Inkscape (http://www.inkscape.org/) -->

<svg
   xmlns:dc="http://purl.org/dc/elements/1.1/"
   xmlns:cc="http://creativecommons.org/ns#"
   xmlns:rdf="http://www.w3.org/1999/02/22-rdf-syntax-ns#"
   xmlns:svg="http://www.w3.org/2000/svg"
   xmlns="http://www.w3.org/2000/svg"
   xmlns:xlink="http://www.w3.org/1999/xlink"
   xmlns:sodipodi="http://sodipodi.sourceforge.net/DTD/sodipodi-0.dtd"
   xmlns:inkscape="http://www.inkscape.org/namespaces/inkscape"
   width="256"
   height="256"
   viewBox="0 0 67.733332 67.733332"
   version="1.1"
   id="svg8"
   inkscape:version="0.92.4 (f8dce91, 2019-08-02)"
   sodipodi:docname="scythe-tool.svg">
  <defs
     id="defs2">
    <linearGradient
       inkscape:collect="always"
       id="linearGradient1594">
      <stop
         style="stop-color:#6b6357;stop-opacity:1"
         offset="0"
         id="stop1590" />
      <stop
         style="stop-color:#514c43;stop-opacity:0.98591548"
         offset="1"
         id="stop1592" />
    </linearGradient>
    <linearGradient
       inkscape:collect="always"
       xlink:href="#linearGradient1594"
       id="linearGradient12673"
       x1="12.902529"
       y1="291.93005"
       x2="12.902529"
       y2="291.06143"
       gradientUnits="userSpaceOnUse"
       gradientTransform="matrix(1.2131886,0,0,1.2131886,-37.201736,-65.670852)" />
  </defs>
  <sodipodi:namedview
     id="base"
     pagecolor="#284b36"
     bordercolor="#666666"
     borderopacity="1.0"
     inkscape:pageopacity="0"
     inkscape:pageshadow="2"
     inkscape:zoom="1.979899"
     inkscape:cx="16.408905"
     inkscape:cy="170.68038"
     inkscape:document-units="mm"
     inkscape:current-layer="layer1"
     showgrid="false"
     units="px"
     inkscape:window-width="1850"
     inkscape:window-height="1016"
     inkscape:window-x="70"
     inkscape:window-y="27"
     inkscape:window-maximized="1"
     showguides="false" />
  <metadata
     id="metadata5">
    <rdf:RDF>
      <cc:Work
         rdf:about="">
        <dc:format>image/svg+xml</dc:format>
        <dc:type
           rdf:resource="http://purl.org/dc/dcmitype/StillImage" />
        <dc:title />
      </cc:Work>
    </rdf:RDF>
  </metadata>
  <g
     inkscape:label="Layer 1"
     inkscape:groupmode="layer"
     id="layer1"
     transform="translate(0,-229.26666)">
    <path
       style="opacity:0.30199998;fill:#717171;fill-opacity:1;stroke:#000000;stroke-width:7.9370079;stroke-linecap:butt;stroke-linejoin:bevel;stroke-miterlimit:4;stroke-dasharray:none;stroke-opacity:1"
       d="m 128,25.345703 c -1.98327,0 -3.75769,1.07023 -5,2.771485 -7.65647,-1.319568 -31.415976,-4.65601 -52.503906,0.666015 -24.628396,6.215433 -38.957031,28.828125 -38.957032,28.828125 0,0 17.032693,-12.944548 40.222657,-17.232422 25.027098,-4.627578 41.845701,-1.136718 41.845701,-1.136718 0,0 0.87266,-6.181824 7.58399,-5.228516 V 222.03711 c 0,4.03789 1.88455,8.61719 5.71289,8.61719 h 21.21875 c 3.16564,0 5.71484,-2.5492 5.71484,-5.71485 0,-3.16564 -2.5492,-5.71484 -5.71484,-5.71484 h -13.31446 v -56.0293 h 18.38086 c 3.87339,0 6.99219,-3.11685 6.99219,-6.99023 0,-3.87339 -3.1188,-6.99219 -6.99219,-6.99219 H 134.80859 V 33.962891 c 0,-4.773897 -3.03617,-8.617188 -6.80859,-8.617188 z"
       transform="matrix(0.26458333,0,0,0.26458333,0,229.26666)"
       id="path1615"
       inkscape:connector-curvature="0"
       sodipodi:nodetypes="scccsccsssssccssscss" />
    <path
       style="opacity:0.3;vector-effect:none;fill:#514c43;fill-opacity:1;stroke:#000000;stroke-width:2.0999999;stroke-linecap:butt;stroke-linejoin:round;stroke-miterlimit:4;stroke-dasharray:none;stroke-dashoffset:0;stroke-opacity:1"
       d="m -51.241415,235.89897 c -2.847492,-0.0503 -6.163256,0.95996 -10.021094,3.69641 -0.316203,1.19635 -0.186837,2.1889 0.359151,2.99103 2.701917,-1.30527 5.177847,-2.06456 7.452775,-2.41535 v 23.51329 c 0,1.02162 0.822714,1.84382 1.844332,1.84382 h 0.270784 c 1.021618,0 1.844332,-0.8222 1.844332,-1.84382 v -23.7262 c 4.263566,0.22248 7.694641,1.90759 10.48825,3.86643 -2.540305,-3.27382 -6.407953,-7.82261 -12.23853,-7.92561 z"
       id="rect1728"
       inkscape:connector-curvature="0" />
    <g
       id="g7676"
       style="opacity:0.2;stroke-width:1.79999995;stroke-miterlimit:4;stroke-dasharray:none">
      <g
         id="g7680"
         style="display:none">
        <path
           sodipodi:type="inkscape:offset"
           inkscape:radius="0"
           inkscape:original="M 11.113281 281.375 C 3.5616847 281.375 3.1649673 293.31602 10.714844 292.1875 C 19.06413 293.90012 18.664923 281.375 11.113281 281.375 z "
           xlink:href="#path3285-0"
           style="opacity:1;vector-effect:none;fill:#bd1935;fill-opacity:1;stroke:#000000;stroke-width:1.79999995;stroke-linecap:butt;stroke-linejoin:miter;stroke-miterlimit:4;stroke-dasharray:none;stroke-dashoffset:0;stroke-opacity:1"
           id="path7672"
           d="m 11.113281,281.375 c -7.5515963,0 -7.9483137,11.94102 -0.398437,10.8125 8.349286,1.71262 7.950079,-10.8125 0.398437,-10.8125 z"
           transform="translate(-0.52916667,0.52916667)"
           inkscape:href="#path3285-0" />
        <path
           sodipodi:type="inkscape:offset"
           inkscape:radius="0"
           inkscape:original="M 11.517578 277.99805 L 9.90625 278.01953 C 10.298522 278.78913 10.518201 280.28923 10.521484 281.0625 C 6.1670013 281.1143 6.5244116 283.99703 4.2597656 284.75391 C 7.3520321 285.27563 7.6516697 282.34599 10.261719 282.71289 C 9.0997573 285.34346 11.116778 286.5644 11.345703 287.72461 C 11.689035 286.55806 10.191025 284.83131 12.166016 282.72656 C 15.002844 282.61257 15.725623 285.83691 17.917969 285.08203 C 15.896099 284.09047 16.218669 280.99582 12.021484 280.94922 C 12.016884 280.2351 11.8832 278.73413 11.517578 277.99805 z "
           xlink:href="#path7649"
           style="fill:#007f3a;fill-opacity:1;stroke:#000000;stroke-width:1.79999995;stroke-linecap:round;stroke-linejoin:round;stroke-miterlimit:4;stroke-dasharray:none;stroke-opacity:1"
           id="path7670"
           d="m 11.517578,277.99805 -1.611328,0.0215 c 0.392272,0.7696 0.611951,2.2697 0.615234,3.04297 -4.3544827,0.0518 -3.9970724,2.93453 -6.2617184,3.69141 3.0922665,0.52172 3.3919041,-2.40792 6.0019534,-2.04102 -1.1619617,2.63057 0.855059,3.85151 1.083984,5.01172 0.343332,-1.16655 -1.154678,-2.8933 0.820313,-4.99805 2.836828,-0.11399 3.559607,3.11035 5.751953,2.35547 -2.02187,-0.99156 -1.6993,-4.08621 -5.896485,-4.13281 -0.0046,-0.71412 -0.138284,-2.21509 -0.503906,-2.95117 z"
           transform="translate(-0.52916667,0.52916667)"
           inkscape:href="#path7649" />
      </g>
    </g>
    <path
       style="opacity:1;vector-effect:none;fill:url(#linearGradient12673);fill-opacity:1;stroke:#000000;stroke-width:0.69999999;stroke-linecap:butt;stroke-linejoin:round;stroke-miterlimit:4;stroke-dasharray:none;stroke-dashoffset:0;stroke-opacity:1"
       d="m -29.112586,275.94069 h 9.500857 c 0.871118,0 1.572415,0.7013 1.572415,1.57242 v 6.90151 l -2.092163,0.60186 2.092163,0.57319 v 1.64758 c 0,0.87112 -0.701297,1.57242 -1.572415,1.57242 h -9.500857 c -0.871117,0 -1.572414,-0.7013 -1.572414,-1.57242 v -7.1216 l 3.496493,-0.74516 -3.496493,-0.65918 v -1.1982 c 0,-0.87112 0.701297,-1.57242 1.572414,-1.57242 z"
       id="rect12609"
       inkscape:connector-curvature="0"
       sodipodi:nodetypes="ssscccsssscccss" />
    <rect
       style="opacity:1;vector-effect:none;fill:#514c43;fill-opacity:1;stroke:#000000;stroke-width:0.69999999;stroke-linecap:butt;stroke-linejoin:round;stroke-miterlimit:4;stroke-dasharray:none;stroke-dashoffset:0;stroke-opacity:1"
       id="rect12665"
       width="1.3942521"
       height="7.5595236"
       x="-23.164677"
       y="278.59543"
       ry="0.77957588" />
    <rect
       style="opacity:1;vector-effect:none;fill:#717171;fill-opacity:1;stroke:#000000;stroke-width:0.70700002;stroke-linecap:butt;stroke-linejoin:round;stroke-miterlimit:4;stroke-dasharray:none;stroke-dashoffset:0;stroke-opacity:1"
       id="rect12675"
       width="4.1092691"
       height="2.706104"
       x="-24.522186"
       y="278.75888"
       ry="0.77957624" />
    <path
       style="opacity:1;vector-effect:none;fill:#717171;fill-opacity:1;stroke:#000000;stroke-width:0.69999999;stroke-linecap:butt;stroke-linejoin:round;stroke-miterlimit:4;stroke-dasharray:none;stroke-dashoffset:0;stroke-opacity:1"
       d="m -27.267849,278.64645 h 0.377976 c 0.431885,0 0.71091,0.35318 0.779576,0.77957 l 0.789025,5.15938 h -2.726153 v -5.15938 c 0,-0.43188 0.347691,-0.77957 0.779576,-0.77957 z"
       id="rect13276"
       inkscape:connector-curvature="0"
       sodipodi:nodetypes="sssccss" />
    <path
       style="opacity:1;vector-effect:none;fill:#514c43;fill-opacity:0.98431373;stroke:#000000;stroke-width:0.64200002;stroke-linecap:butt;stroke-linejoin:bevel;stroke-miterlimit:4;stroke-dasharray:none;stroke-dashoffset:0;stroke-opacity:1"
       d="m -25.29189,284.55615 v 1.17456 c 0,0.255 -0.205293,0.46029 -0.460298,0.46029 h -1.864475 c -0.255005,0 -0.460298,-0.20529 -0.460298,-0.46029 v -1.17456 z"
       id="rect13282"
       inkscape:connector-curvature="0"
       sodipodi:nodetypes="csssscc" />
    <rect
       style="opacity:1;vector-effect:none;fill:#514c43;fill-opacity:1;stroke:#000000;stroke-width:0.69999999;stroke-linecap:butt;stroke-linejoin:bevel;stroke-miterlimit:4;stroke-dasharray:none;stroke-dashoffset:0;stroke-opacity:1"
       id="rect2276"
       width="3.9593387"
       height="29.288258"
       x="-53.450531"
       y="236.24001"
       ry="1.8440757" />
    <rect
       style="opacity:1;vector-effect:none;fill:#514c43;fill-opacity:1;stroke:#000000;stroke-width:0.69999999;stroke-linecap:butt;stroke-linejoin:bevel;stroke-miterlimit:4;stroke-dasharray:none;stroke-dashoffset:0;stroke-opacity:1"
       id="rect2276-3"
       width="2.1698325"
       height="16.050816"
       x="49.245007"
       y="287.05093"
       ry="1.0106069"
       transform="scale(-1,1)" />
    <path
       style="fill:#717171;fill-opacity:1;stroke:#000000;stroke-width:0.69999999;stroke-linecap:butt;stroke-linejoin:miter;stroke-miterlimit:4;stroke-dasharray:none;stroke-opacity:1"
       d="m -44.803937,289.09648 c 0.173255,0.65551 0.102191,1.19931 -0.19697,1.63882 -5.490119,-2.65224 -9.291024,-1.22082 -11.999611,0.67841 2.071662,-2.66986 5.754498,-6.88675 12.196581,-2.31723 z"
       id="path910"
       inkscape:connector-curvature="0"
       sodipodi:nodetypes="cccc" />
    <path
       style="fill:#8d8d8d;fill-opacity:1;stroke:none;stroke-width:0.26499999;stroke-linecap:butt;stroke-linejoin:miter;stroke-miterlimit:4;stroke-dasharray:none;stroke-opacity:1"
       d="m -48.881112,287.29961 -1.533365,2.12101 -1.253512,0.004 1.728905,-2.34841 z"
       id="path931"
       inkscape:connector-curvature="0"
       sodipodi:nodetypes="ccccc" />
    <path
       style="fill:none;fill-opacity:1;stroke:#000000;stroke-width:0.69999999;stroke-linecap:butt;stroke-linejoin:miter;stroke-miterlimit:4;stroke-dasharray:none;stroke-opacity:1"
       d="m -57.000371,291.41338 c 2.708587,-1.89924 6.50903,-3.33079 11.999149,-0.67855 0.299117,-0.43954 0.371878,-0.98295 0.198623,-1.63847 -6.442083,-4.56953 -10.126102,-0.35284 -12.197772,2.31702 z"
       id="path935"
       inkscape:connector-curvature="0" />
    <path
       style="fill:#717171;fill-opacity:1;stroke:#000000;stroke-width:0.69999999;stroke-linecap:butt;stroke-linejoin:round;stroke-miterlimit:4;stroke-dasharray:none;stroke-opacity:1"
       d="m -61.262645,239.59528 c -0.316202,1.19635 -0.186505,2.18882 0.359483,2.99095 10.019827,-4.8405 16.956727,-2.22807 21.900075,1.23815 -3.780918,-4.87266 -10.502335,-12.56877 -22.259558,-4.2291 z"
       id="path1714"
       inkscape:connector-curvature="0"
       sodipodi:nodetypes="cccc" />
    <path
       style="fill:#8d8d8d;fill-opacity:1;stroke:none;stroke-width:0.67652202;stroke-linecap:butt;stroke-linejoin:miter;stroke-miterlimit:4;stroke-dasharray:none;stroke-opacity:1"
       d="m -53.821534,236.31587 2.798492,3.87099 2.28774,0.008 -3.155363,-4.28599 z"
       id="path1716"
       inkscape:connector-curvature="0"
       sodipodi:nodetypes="ccccc" />
    <path
       style="fill:none;fill-opacity:1;stroke:#000000;stroke-width:0.69999999;stroke-linecap:butt;stroke-linejoin:miter;stroke-miterlimit:4;stroke-dasharray:none;stroke-opacity:1"
       d="m -39.003355,243.82379 c -4.943349,-3.46625 -11.879406,-6.07892 -21.899232,-1.23842 -0.545908,-0.80219 -0.678702,-1.79394 -0.3625,-2.99031 11.757223,-8.33969 18.480799,-0.64395 22.261732,4.22873 z"
       id="path1718"
       inkscape:connector-curvature="0" />
    <path
       style="fill:#717171;fill-opacity:1;stroke:#000000;stroke-width:0.69999999;stroke-linecap:butt;stroke-linejoin:bevel;stroke-miterlimit:4;stroke-dasharray:none;stroke-opacity:1"
       d="m 33.268676,236.83633 c 0,0 -7.874191,-1.65544 -14.616353,0.0461 -6.516263,1.6445 -10.3074188,7.62709 -10.3074188,7.62709 0,0 4.5065648,-3.4249 10.6422428,-4.5594 6.621753,-1.22438 11.071329,-0.30048 11.071329,-0.30048 0,0 0.235038,-1.69667 2.095442,-1.37319 z"
       id="path1590"
       inkscape:connector-curvature="0"
       sodipodi:nodetypes="cscsccc" />
    <rect
       transform="rotate(-90)"
       style="opacity:1;vector-effect:none;fill:#514c43;fill-opacity:1;stroke:#000000;stroke-width:0.69999999;stroke-linecap:butt;stroke-linejoin:bevel;stroke-miterlimit:4;stroke-dasharray:none;stroke-dashoffset:0;stroke-opacity:1"
       id="rect1607"
       width="3.6997581"
       height="10.316214"
       x="-272.44556"
       y="32.06501"
       ry="1.849879" />
    <path
       style="opacity:1;vector-effect:none;fill:#514c43;fill-opacity:1;stroke:#000000;stroke-width:2.64566922;stroke-linecap:butt;stroke-linejoin:bevel;stroke-miterlimit:4;stroke-dasharray:none;stroke-dashoffset:0;stroke-opacity:1"
       d="m 128,25.345703 c -3.77242,0 -6.80859,3.843291 -6.80859,8.617188 V 222.03711 c -0.11749,4.87286 1.83332,8.61719 6.80859,8.61719 h 20.12305 c 3.16564,0 5.71484,-2.5492 5.71484,-5.71485 0,-3.16564 -2.5492,-5.71484 -5.71484,-5.71484 H 134.80859 V 33.962891 c 0,-4.773897 -3.03617,-8.617188 -6.80859,-8.617188 z"
       transform="matrix(0.26458333,0,0,0.26458333,0,229.26666)"
       id="rect1588-3"
       inkscape:connector-curvature="0"
       sodipodi:nodetypes="ssccssscss" />
  </g>
</svg>
