<?xml version="1.0" encoding="UTF-8" standalone="no"?>
<!-- Created with Inkscape (http://www.inkscape.org/) -->

<svg
   xmlns:dc="http://purl.org/dc/elements/1.1/"
   xmlns:cc="http://creativecommons.org/ns#"
   xmlns:rdf="http://www.w3.org/1999/02/22-rdf-syntax-ns#"
   xmlns:svg="http://www.w3.org/2000/svg"
   xmlns="http://www.w3.org/2000/svg"
   xmlns:sodipodi="http://sodipodi.sourceforge.net/DTD/sodipodi-0.dtd"
   xmlns:inkscape="http://www.inkscape.org/namespaces/inkscape"
   width="128"
   height="128"
   viewBox="0 0 33.866666 33.866666"
   version="1.1"
   id="svg8"
   inkscape:version="0.92.4 (f8dce91, 2019-08-02)"
   sodipodi:docname="scythe-item.svg"
   inkscape:export-filename="/home/quan/Documents/human-game/iron-ore.png"
   inkscape:export-xdpi="96"
   inkscape:export-ydpi="96"
   style="enable-background:new">
  <defs
     id="defs2" />
  <sodipodi:namedview
     id="base"
     pagecolor="#284b36"
     bordercolor="#666666"
     borderopacity="1.0"
     inkscape:pageopacity="0"
     inkscape:pageshadow="2"
     inkscape:zoom="3.959798"
     inkscape:cx="43.441241"
     inkscape:cy="61.835533"
     inkscape:document-units="mm"
     inkscape:current-layer="layer1"
     showgrid="false"
     units="px"
     inkscape:window-width="1850"
     inkscape:window-height="1016"
     inkscape:window-x="70"
     inkscape:window-y="27"
     inkscape:window-maximized="1" />
  <metadata
     id="metadata5">
    <rdf:RDF>
      <cc:Work
         rdf:about="">
        <dc:format>image/svg+xml</dc:format>
        <dc:type
           rdf:resource="http://purl.org/dc/dcmitype/StillImage" />
        <dc:title></dc:title>
      </cc:Work>
    </rdf:RDF>
  </metadata>
  <g
     inkscape:label="Layer 1"
     inkscape:groupmode="layer"
     id="layer1"
     transform="translate(0,-263.13333)">
    <path
       style="fill:#717171;fill-opacity:1;stroke:#000000;stroke-width:0.69999999;stroke-linecap:butt;stroke-linejoin:bevel;stroke-miterlimit:4;stroke-dasharray:none;stroke-opacity:1"
       d="m 25.734465,272.8275 c 0,0 -2.131161,-3.2658 -5.024811,-4.99321 -2.796686,-1.66955 -6.146141,-0.91855 -6.146141,-0.91855 0,0 2.718107,0.37069 5.209591,2.08459 2.688863,1.84967 3.897109,3.69116 3.897109,3.69116 0,0 0.661995,-0.5009 1.188697,0.24751 z"
       id="path1590"
       inkscape:connector-curvature="0"
       sodipodi:nodetypes="cscsccc" />
    <rect
       transform="rotate(-45)"
       style="opacity:1;vector-effect:none;fill:#514c43;fill-opacity:1;stroke:#000000;stroke-width:0.69999999;stroke-linecap:butt;stroke-linejoin:bevel;stroke-miterlimit:4;stroke-dasharray:none;stroke-dashoffset:0;stroke-opacity:1"
       id="rect1607"
       width="1.793087"
       height="4.9997511"
       x="-191.97916"
       y="210.53183"
       ry="0.8965435" />
    <rect
       style="opacity:1;vector-effect:none;fill:#514c43;fill-opacity:1;stroke:#000000;stroke-width:0.69999999;stroke-linecap:butt;stroke-linejoin:bevel;stroke-miterlimit:4;stroke-dasharray:none;stroke-dashoffset:0;stroke-opacity:1"
       id="rect2276"
       width="2.1698325"
       height="16.050816"
       x="217.68202"
       y="145.1656"
       ry="1.0106069"
       transform="rotate(45)" />
    <path
       style="fill:#717171;fill-opacity:1;stroke:#000000;stroke-width:0.69999999;stroke-linecap:butt;stroke-linejoin:miter;stroke-miterlimit:4;stroke-dasharray:none;stroke-opacity:1"
       d="m 48.048578,257.78262 c 1.190952,-1.19095 6.643254,2.46707 6.76215,3.71547 0.118894,1.2484 -2.229281,4.20591 -3.65602,3.96812 -1.426739,-0.23779 -4.297083,-6.49263 -3.10613,-7.68359 z"
       id="path2278"
       inkscape:connector-curvature="0"
       sodipodi:nodetypes="zssz" />
    <path
       style="opacity:1;vector-effect:none;fill:#8d8d8d;fill-opacity:1;stroke:none;stroke-width:0.6227904;stroke-linecap:butt;stroke-linejoin:bevel;stroke-miterlimit:4;stroke-dasharray:none;stroke-dashoffset:0;stroke-opacity:1"
       d="m 52.394311,259.39055 -4.121613,1.13591 -0.222409,-0.8147 3.566374,-0.98289 z"
       id="rect2961"
       inkscape:connector-curvature="0"
       sodipodi:nodetypes="ccccc" />
    <path
       style="opacity:1;vector-effect:none;fill:#8d8d8d;fill-opacity:1;stroke:none;stroke-width:0.6227904;stroke-linecap:butt;stroke-linejoin:bevel;stroke-miterlimit:4;stroke-dasharray:none;stroke-dashoffset:0;stroke-opacity:1"
       d="m 50.412685,258.08099 -1.086385,4.74489 -0.639977,-1.25718 0.833969,-3.64244 z"
       id="rect2961-5"
       inkscape:connector-curvature="0"
       sodipodi:nodetypes="ccccc" />
    <path
       sodipodi:nodetypes="zssz"
       inkscape:connector-curvature="0"
       id="path2980"
       d="m 48.048578,257.78262 c 1.190952,-1.19095 6.643254,2.46707 6.76215,3.71547 0.118894,1.2484 -2.229281,4.20591 -3.65602,3.96812 -1.426739,-0.23779 -4.297083,-6.49263 -3.10613,-7.68359 z"
       style="fill:none;fill-opacity:1;stroke:#000000;stroke-width:0.6227904;stroke-linecap:butt;stroke-linejoin:miter;stroke-miterlimit:4;stroke-dasharray:none;stroke-opacity:1" />
    <path
       style="opacity:1;vector-effect:none;fill:#514c43;fill-opacity:1;stroke:#000000;stroke-width:0.69999999;stroke-linecap:butt;stroke-linejoin:round;stroke-miterlimit:4;stroke-dasharray:none;stroke-dashoffset:0;stroke-opacity:1"
       d="m 25.756564,272.52404 c -0.304321,-0.024 -0.649302,0.10566 -0.91984,0.3762 L 7.7835017,289.95346 c -0.398279,0.41114 -0.4948323,1.03618 -0.1638143,1.39889 l 1.8246949,1.82469 c 0.2870366,0.28704 0.7490757,0.28704 1.0361127,0 0.287036,-0.28704 0.287036,-0.74908 0,-1.03611 L 9.2733331,290.93377 26.071274,274.13531 c 0.432861,-0.43286 0.505869,-1.05683 0.163814,-1.39888 -0.12827,-0.12827 -0.29593,-0.19796 -0.478524,-0.21239 z"
       id="rect1588-3"
       inkscape:connector-curvature="0"
       sodipodi:nodetypes="csccsssccsc" />
  </g>
</svg>
