<?xml version="1.0" encoding="UTF-8" standalone="no"?>
<!-- Created with Inkscape (http://www.inkscape.org/) -->

<svg
   xmlns:dc="http://purl.org/dc/elements/1.1/"
   xmlns:cc="http://creativecommons.org/ns#"
   xmlns:rdf="http://www.w3.org/1999/02/22-rdf-syntax-ns#"
   xmlns:svg="http://www.w3.org/2000/svg"
   xmlns="http://www.w3.org/2000/svg"
   xmlns:xlink="http://www.w3.org/1999/xlink"
   xmlns:sodipodi="http://sodipodi.sourceforge.net/DTD/sodipodi-0.dtd"
   xmlns:inkscape="http://www.inkscape.org/namespaces/inkscape"
   width="48"
   height="48"
   viewBox="0 0 12.7 12.7"
   version="1.1"
   id="svg8"
   inkscape:version="0.92.4 (f8dce91, 2019-08-02)"
   sodipodi:docname="tomato-dropped.svg">
  <defs
     id="defs2" />
  <sodipodi:namedview
     id="base"
     pagecolor="#284b36"
     bordercolor="#666666"
     borderopacity="1.0"
     inkscape:pageopacity="0"
     inkscape:pageshadow="2"
     inkscape:zoom="22.4"
     inkscape:cx="29.965385"
     inkscape:cy="31.222427"
     inkscape:document-units="mm"
     inkscape:current-layer="layer1"
     showgrid="false"
     units="px"
     inkscape:window-width="1850"
     inkscape:window-height="1016"
     inkscape:window-x="70"
     inkscape:window-y="27"
     inkscape:window-maximized="1" />
  <metadata
     id="metadata5">
    <rdf:RDF>
      <cc:Work
         rdf:about="">
        <dc:format>image/svg+xml</dc:format>
        <dc:type
           rdf:resource="http://purl.org/dc/dcmitype/StillImage" />
        <dc:title></dc:title>
      </cc:Work>
    </rdf:RDF>
  </metadata>
  <g
     inkscape:label="Layer 1"
     inkscape:groupmode="layer"
     id="layer1"
     transform="translate(0,-284.3)">
    <g
       id="g7676"
       style="opacity:0.2;stroke-width:1.79999995;stroke-miterlimit:4;stroke-dasharray:none"
       transform="translate(-6.3261783,7.0885233)">
      <g
         id="g7680"
         style="display:inline">
        <path
           sodipodi:type="inkscape:offset"
           inkscape:radius="0"
           inkscape:original="M 6.3613281 288.19141 C 2.521144 288.19141 2.3208469 294.26333 6.1601562 293.68945 C 10.405986 294.56036 10.201535 288.19141 6.3613281 288.19141 z "
           xlink:href="#path3285-0"
           style="opacity:1;vector-effect:none;fill:#bd1935;fill-opacity:1;stroke:#000000;stroke-width:1;stroke-linecap:butt;stroke-linejoin:miter;stroke-miterlimit:4;stroke-dasharray:none;stroke-dashoffset:0;stroke-opacity:1"
           id="path7672"
           inkscape:href="#path3285-0"
           d="m 6.3613281,288.19141 c -3.8401841,0 -4.0404812,6.07192 -0.2011719,5.49804 4.2458298,0.87091 4.0413788,-5.49804 0.2011719,-5.49804 z"
           transform="translate(6.3261783,-7.0885233)" />
        <path
           sodipodi:type="inkscape:offset"
           inkscape:radius="0"
           inkscape:original="M 6.5683594 286.47461 L 5.7480469 286.48438 C 5.9475274 286.87574 6.0608304 287.63801 6.0625 288.03125 C 4.3166454 287.94955 4.4250195 289.21293 2.8769531 289.91016 C 4.8939389 290.09138 4.6356127 288.88959 5.9628906 289.07617 C 5.3720032 290.41388 6.3640545 290.82992 6.4804688 291.41992 C 6.655062 290.8267 5.9780877 290.16993 6.9824219 289.09961 C 8.0165755 289.09061 8.2148604 290.29187 9.8222656 290.07617 C 8.3856443 289.51187 8.5141095 288.01032 6.8242188 287.97461 C 6.8218787 287.61146 6.7542877 286.84891 6.5683594 286.47461 z "
           xlink:href="#path7649"
           style="fill:#007f3a;fill-opacity:1;stroke:#000000;stroke-width:1;stroke-linecap:round;stroke-linejoin:round;stroke-miterlimit:4;stroke-dasharray:none;stroke-opacity:1"
           id="path7670"
           inkscape:href="#path7649"
           d="m 6.5683594,286.47461 -0.8203125,0.01 c 0.1994805,0.39136 0.3127835,1.15363 0.3144531,1.54687 -1.7458546,-0.0817 -1.6374805,1.18168 -3.1855469,1.87891 2.0169858,0.18122 1.7586596,-1.02057 3.0859375,-0.83399 -0.5908874,1.33771 0.4011639,1.75375 0.5175782,2.34375 0.1745932,-0.59322 -0.5023811,-1.24999 0.5019531,-2.32031 1.0341536,-0.009 1.2324385,1.19226 2.8398437,0.97656 -1.4366213,-0.5643 -1.3081561,-2.06585 -2.9980468,-2.10156 -0.00234,-0.36315 -0.069931,-1.1257 -0.2558594,-1.5 z"
           transform="translate(6.3261783,-7.0885233)" />
      </g>
    </g>
    <path
       style="opacity:1;vector-effect:none;fill:#bd1935;fill-opacity:1;stroke:#000000;stroke-width:0.271;stroke-linecap:butt;stroke-linejoin:miter;stroke-miterlimit:4;stroke-dasharray:none;stroke-dashoffset:0;stroke-opacity:1"
       d="m 6.160271,293.6892 c -3.8393094,0.57388 -3.6383989,-5.498 0.2017852,-5.498 3.8402068,0 4.0440448,6.36891 -0.2017852,5.498 z"
       id="path3285-0"
       inkscape:connector-curvature="0"
       sodipodi:nodetypes="czc" />
    <path
       style="opacity:0.80699978;fill:#fffdfd;fill-opacity:1;stroke:none;stroke-width:0.19793311;stroke-linecap:butt;stroke-linejoin:miter;stroke-miterlimit:4;stroke-dasharray:none;stroke-opacity:1"
       d="m 8.2605444,292.12383 c 0.2826332,0.25914 -0.4921424,0.80811 -1.1970949,1.01792 -0.7049529,0.2098 -1.6982203,-0.15965 -1.6517894,-0.31515 0.046429,-0.1555 0.8775345,0.12832 1.531105,-0.0692 0.653573,-0.1975 1.0351451,-0.89276 1.3177793,-0.6336 z"
       id="path3287-2"
       inkscape:connector-curvature="0"
       sodipodi:nodetypes="zzzzz" />
    <path
       style="fill:#007f3a;fill-opacity:1;stroke:#000000;stroke-width:0.27;stroke-linecap:round;stroke-linejoin:round;stroke-miterlimit:4;stroke-dasharray:none;stroke-opacity:1"
       d="m 5.9631373,289.07527 c -0.5908874,1.33771 0.4010507,1.75499 0.517465,2.34499 0.1745933,-0.59322 -0.501767,-1.25083 0.5025672,-2.32115 1.0341536,-0.009 1.2321965,1.19302 2.8396017,0.97732 -1.4366213,-0.5643 -1.3084209,-2.06585 -2.9983117,-2.10156 -0.00234,-0.36315 -0.070526,-1.12652 -0.2564543,-1.50082 l -0.8195331,0.0106 c 0.1994805,0.39136 0.3118582,1.15405 0.3135278,1.54729 -1.7458546,-0.0817 -1.6367155,1.18033 -3.1847819,1.87756 2.0169858,0.18122 1.7586414,-1.02088 3.0859193,-0.8343 z"
       id="path7649"
       inkscape:connector-curvature="0"
       sodipodi:nodetypes="cccccccccc" />
  </g>
</svg>
