<?xml version="1.0" encoding="UTF-8" standalone="no"?>
<!-- Created with Inkscape (http://www.inkscape.org/) -->

<svg
   xmlns:dc="http://purl.org/dc/elements/1.1/"
   xmlns:cc="http://creativecommons.org/ns#"
   xmlns:rdf="http://www.w3.org/1999/02/22-rdf-syntax-ns#"
   xmlns:svg="http://www.w3.org/2000/svg"
   xmlns="http://www.w3.org/2000/svg"
   xmlns:xlink="http://www.w3.org/1999/xlink"
   xmlns:sodipodi="http://sodipodi.sourceforge.net/DTD/sodipodi-0.dtd"
   xmlns:inkscape="http://www.inkscape.org/namespaces/inkscape"
   width="512"
   height="512"
   viewBox="0 0 135.46666 135.46666"
   version="1.1"
   id="svg8"
   inkscape:version="0.92.4 (f8dce91, 2019-08-02)"
   sodipodi:docname="tree.svg">
  <defs
     id="defs2" />
  <sodipodi:namedview
     id="base"
     pagecolor="#284b36"
     bordercolor="#666666"
     borderopacity="1.0"
     inkscape:pageopacity="0"
     inkscape:pageshadow="2"
     inkscape:zoom="3.959798"
     inkscape:cx="65.238833"
     inkscape:cy="213.58023"
     inkscape:document-units="mm"
     inkscape:current-layer="layer1"
     showgrid="false"
     units="px"
     inkscape:window-width="1850"
     inkscape:window-height="1016"
     inkscape:window-x="70"
     inkscape:window-y="27"
     inkscape:window-maximized="1" />
  <metadata
     id="metadata5">
    <rdf:RDF>
      <cc:Work
         rdf:about="">
        <dc:format>image/svg+xml</dc:format>
        <dc:type
           rdf:resource="http://purl.org/dc/dcmitype/StillImage" />
        <dc:title />
      </cc:Work>
    </rdf:RDF>
  </metadata>
  <g
     inkscape:label="Layer 1"
     inkscape:groupmode="layer"
     id="layer1"
     transform="translate(0,-161.53333)">
    <path
       style="color:#000000;font-style:normal;font-variant:normal;font-weight:normal;font-stretch:normal;font-size:medium;line-height:normal;font-family:sans-serif;font-variant-ligatures:normal;font-variant-position:normal;font-variant-caps:normal;font-variant-numeric:normal;font-variant-alternates:normal;font-feature-settings:normal;text-indent:0;text-align:start;text-decoration:none;text-decoration-line:none;text-decoration-style:solid;text-decoration-color:#000000;letter-spacing:normal;word-spacing:normal;text-transform:none;writing-mode:lr-tb;direction:ltr;text-orientation:mixed;dominant-baseline:auto;baseline-shift:baseline;text-anchor:start;white-space:normal;shape-padding:0;clip-rule:nonzero;display:inline;overflow:visible;visibility:visible;opacity:0.30100002;isolation:auto;mix-blend-mode:normal;color-interpolation:sRGB;color-interpolation-filters:linearRGB;solid-color:#000000;solid-opacity:1;vector-effect:none;fill:#000000;fill-opacity:1;fill-rule:nonzero;stroke:none;stroke-width:3;stroke-linecap:round;stroke-linejoin:round;stroke-miterlimit:4;stroke-dasharray:none;stroke-dashoffset:0;stroke-opacity:1;color-rendering:auto;image-rendering:auto;shape-rendering:auto;text-rendering:auto;enable-background:accumulate"
       d="m 67.732422,183.00391 c -3.748713,0 -6.561712,2.15967 -8.970703,4.35156 -2.408991,2.19189 -4.5701,4.46996 -6.892578,5.48047 -2.04263,0.88873 -4.874738,0.776 -7.830079,0.78515 -2.95534,0.009 -6.2029,0.1842 -8.601562,2.52344 -2.54655,2.48347 -2.960398,5.8769 -3.134766,9.03711 -0.174367,3.16021 -0.163011,6.24325 -1.158203,8.58594 -0.960626,2.26132 -3.189363,4.36558 -5.353515,6.71289 -2.164153,2.34731 -4.31836,5.09685 -4.31836,8.78515 0,3.62116 2.147184,6.29882 4.28125,8.57618 2.134067,2.27735 4.311168,4.31672 5.216797,6.50781 0.927844,2.24483 0.847256,5.25785 0.927735,8.36133 0.08048,3.10347 0.368354,6.45894 2.804687,8.94336 2.471112,2.51988 5.843658,2.90456 8.976563,3.05859 3.132904,0.15403 6.183256,0.12843 8.486328,1.11133 2.273116,0.97011 4.387321,3.20948 6.746093,5.3789 2.358773,2.16943 5.120444,4.32422 8.820313,4.32422 3.799448,0 6.665489,-2.16602 9.126953,-4.38086 2.461464,-2.21483 4.673728,-4.53085 7.046875,-5.58398 2.21013,-0.98078 5.169057,-0.95599 8.228516,-1.09375 3.059459,-0.13776 6.378496,-0.49274 8.796874,-2.98437 2.48909,-2.56448 2.83195,-6.00973 2.94336,-9.23047 0.11141,-3.22075 0.0349,-6.37192 0.96875,-8.76758 0.7955,-2.04084 2.86371,-3.94483 4.9375,-6.07617 2.07379,-2.13134 4.21289,-4.66038 4.21289,-8.14454 0,-3.71188 -2.15695,-6.48588 -4.33203,-8.85742 -2.17508,-2.37153 -4.42238,-4.49986 -5.40234,-6.78515 -0.87301,-2.03587 -0.74513,-4.86737 -0.73438,-7.82227 0.0108,-2.9549 -0.13882,-6.20261 -2.45703,-8.61133 -2.440861,-2.53616 -5.794371,-2.94079 -8.902344,-3.11328 -3.107974,-0.17249 -6.127013,-0.16787 -8.40625,-1.16992 -2.349148,-1.03278 -4.537762,-3.33104 -6.97461,-5.53516 -2.436848,-2.20412 -5.277347,-4.36718 -9.052734,-4.36718 z"
       id="path8185"
       inkscape:connector-curvature="0"
       sodipodi:nodetypes="sscccssssccscsccsccssscsscccsscss" />
    <path
       style="opacity:0.6;vector-effect:none;fill:#007f3a;fill-opacity:1;stroke:#000000;stroke-width:1;stroke-linecap:round;stroke-linejoin:round;stroke-miterlimit:4;stroke-dasharray:none;stroke-dashoffset:0;stroke-opacity:1"
       d="m 112.49468,229.26606 c 0,5.73228 -7.08659,8.63758 -9.05014,13.67502 -2.18767,5.61243 0.53389,13.25004 -3.588609,17.49741 -3.966963,4.08712 -11.282412,1.41056 -16.559743,3.75245 -5.544352,2.46041 -9.106322,9.8365 -15.562889,9.8365 -6.231176,0 -9.589655,-7.28232 -14.980089,-9.58283 -5.439264,-2.32136 -12.900594,0.3204 -16.980642,-3.84017 -3.991555,-4.07033 -1.202661,-11.47517 -3.414814,-16.82727 -2.1761,-5.26489 -9.385835,-8.46012 -9.385835,-14.51111 0,-6.20487 7.271582,-9.53956 9.553745,-14.9118 2.338788,-5.50553 -0.260615,-13.02161 3.958511,-17.13622 3.858628,-3.76304 10.969615,-0.82598 15.982377,-3.007 5.466439,-2.37843 8.924919,-9.70636 15.266747,-9.70636 6.40207,0 9.91491,7.35311 15.42237,9.77442 5.392648,2.37083 12.80387,-0.23457 16.832623,3.95149 3.722448,3.86778 0.746738,10.97882 2.893438,15.98496 2.31952,5.40915 9.61295,8.79219 9.61295,15.05051 z"
       id="path5278"
       inkscape:connector-curvature="0"
       sodipodi:nodetypes="sssssssssssssssss" />
    <path
       sodipodi:type="inkscape:offset"
       inkscape:radius="0"
       inkscape:original="M -27.082031 243.93359 C -28.149914 243.89536 -29.214355 244.05695 -30.283203 244.37109 C -30.414096 244.40957 -30.27124 245.28227 -30.400391 245.32617 C -30.554356 245.37854 -30.979665 244.60406 -31.130859 244.66406 C -33.150641 245.46606 -34.909397 246.94754 -36.03125 248.98438 C -36.087494 249.08649 -35.038797 249.74664 -35.091797 249.85156 C -35.16239 249.9913 -36.333264 249.57341 -36.396484 249.71484 C -37.444809 252.06009 -37.48279 254.6224 -36.679688 256.89062 C -36.621675 257.05447 -35.728849 256.94492 -35.662109 257.10547 C -35.603783 257.24583 -36.373474 257.6573 -36.308594 257.79492 C -35.472992 259.56646 -34.095397 261.09832 -32.267578 262.11523 C -32.153539 262.17869 -31.480809 261.13591 -31.363281 261.19531 C -31.264423 261.24525 -31.722707 262.39696 -31.623047 262.44336 C -29.868335 263.25713 -27.98661 263.50069 -26.193359 263.24414 C -25.999973 263.21647 -26.079715 262.3518 -25.888672 262.3125 C -25.745578 262.28314 -25.330964 263.08258 -25.189453 263.04688 C -22.659229 262.40786 -20.399013 260.75389 -19.060547 258.30078 C -19.010886 258.20976 -19.513887 257.83929 -19.466797 257.74609 C -19.387032 257.58822 -18.759823 257.70688 -18.689453 257.54688 C -17.711012 255.32123 -17.638426 252.90569 -18.328125 250.73242 C -18.379343 250.57099 -19.264659 250.68389 -19.324219 250.52539 C -19.398137 250.32868 -18.647795 249.86161 -18.734375 249.66992 C -19.566858 247.82678 -20.739731 246.35311 -22.632812 245.30859 C -22.736932 245.25115 -24.127368 247.14004 -24.234375 247.08594 C -24.375472 247.01466 -23.714847 244.75941 -23.857422 244.69531 C -24.943339 244.21052 -26.014149 243.97183 -27.082031 243.93359 z "
       xlink:href="#path1544"
       style="opacity:0.29899998;vector-effect:none;fill:#4c483f;fill-opacity:0.98206278;stroke:#000000;stroke-width:2.0999999;stroke-linecap:round;stroke-linejoin:round;stroke-miterlimit:4;stroke-dasharray:none;stroke-dashoffset:0;stroke-opacity:1"
       id="path5276"
       inkscape:href="#path1544"
       d="m -27.082031,243.93359 c -1.067883,-0.0382 -2.132324,0.12336 -3.201172,0.4375 -0.130893,0.0385 0.01196,0.91118 -0.117188,0.95508 -0.153965,0.0524 -0.579274,-0.72211 -0.730468,-0.66211 -2.019782,0.802 -3.778538,2.28348 -4.900391,4.32032 -0.05624,0.10211 0.992453,0.76226 0.939453,0.86718 -0.07059,0.13974 -1.241467,-0.27815 -1.304687,-0.13672 -1.048325,2.34525 -1.086306,4.90756 -0.283204,7.17578 0.05801,0.16385 0.950839,0.0543 1.017579,0.21485 0.05833,0.14036 -0.711365,0.55183 -0.646485,0.68945 0.835602,1.77154 2.213197,3.3034 4.041016,4.32031 0.114039,0.0635 0.786769,-0.97932 0.904297,-0.91992 0.09886,0.0499 -0.359426,1.20165 -0.259766,1.24805 1.754712,0.81377 3.636437,1.05733 5.429688,0.80078 0.193386,-0.0277 0.113644,-0.89234 0.304687,-0.93164 0.143094,-0.0294 0.557708,0.77008 0.699219,0.73438 2.530224,-0.63902 4.79044,-2.29299 6.128906,-4.7461 0.04966,-0.091 -0.45334,-0.46149 -0.40625,-0.55469 0.07976,-0.15787 0.706974,-0.0392 0.777344,-0.19921 0.978441,-2.22565 1.051027,-4.64119 0.361328,-6.81446 -0.05122,-0.16143 -0.936534,-0.0485 -0.996094,-0.20703 -0.07392,-0.19671 0.676424,-0.66378 0.589844,-0.85547 -0.832483,-1.84314 -2.005356,-3.31681 -3.898437,-4.36133 -0.10412,-0.0574 -1.494556,1.83145 -1.601563,1.77735 -0.141097,-0.0713 0.519528,-2.32653 0.376953,-2.39063 -1.085917,-0.48479 -2.156727,-0.72348 -3.224609,-0.76172 z"
       transform="translate(0.85044648,25.135417)" />
    <path
       id="path1544"
       style="opacity:1;vector-effect:none;fill:#4c483f;fill-opacity:0.98206278;stroke:#000000;stroke-width:0.69999999;stroke-linecap:round;stroke-linejoin:round;stroke-miterlimit:4;stroke-dasharray:none;stroke-dashoffset:0;stroke-opacity:1"
       d="m -19.466928,257.74568 c -0.04709,0.0932 0.456343,0.46412 0.406682,0.55514 -1.338466,2.45311 -3.598389,4.10617 -6.128613,4.74519 -0.141511,0.0357 -0.556921,-0.76232 -0.700015,-0.73296 -0.191043,0.0393 -0.110346,0.90331 -0.303732,0.93098 -1.793251,0.25655 -3.675328,0.0135 -5.43004,-0.80027 -0.09966,-0.0464 0.358563,-1.19801 0.259705,-1.24795 -0.117528,-0.0594 -0.79092,0.98285 -0.904959,0.91939 -1.827819,-1.01691 -3.204606,-2.54848 -4.040208,-4.32002 -0.06488,-0.13762 0.704095,-0.54965 0.645769,-0.69001 -0.06674,-0.16055 -0.959749,-0.0498 -1.017762,-0.21364 -0.803102,-2.26822 -0.76448,-4.83046 0.283845,-7.17571 0.06322,-0.14143 1.233767,0.27555 1.30436,0.13581 0.053,-0.10492 -0.996022,-0.766 -0.939778,-0.86811 1.121853,-2.03683 2.880747,-3.51805 4.900529,-4.32005 0.151194,-0.06 0.576894,0.71436 0.730859,0.66199 0.129151,-0.0439 -0.01382,-0.91578 0.117073,-0.95426 2.137696,-0.62828 4.25446,-0.64599 6.426295,0.3236 0.142575,0.0641 -0.518634,2.32003 -0.377537,2.39131 0.107007,0.0541 1.497771,-1.83556 1.601891,-1.77812 1.893082,1.04452 3.064768,2.51785 3.897251,4.36099 0.08658,0.19169 -0.663743,0.65909 -0.589825,0.8558 0.05956,0.1585 0.945618,0.0455 0.996836,0.20693 0.689699,2.17327 0.616799,4.59016 -0.361642,6.8158 -0.07037,0.16001 -0.697223,0.0403 -0.776988,0.19817 z"
       inkscape:connector-curvature="0"
       sodipodi:nodetypes="scccccscccccssccccscccccs" />
    <path
       d="m -21.947971,256.49538 c -0.03266,0.0645 0.287549,0.55346 0.253095,0.61661 -0.928548,1.7018 -2.29172,2.58277 -4.047043,3.02609 -0.09821,0.0249 -0.56195,-0.49448 -0.661214,-0.47413 -0.132573,0.0273 -0.301243,0.65382 -0.435395,0.673 -1.244056,0.17799 -2.115096,0.12345 -3.332418,-0.44108 -0.06945,-0.0315 0.0388,-0.97233 -0.02976,-1.00698 -0.08152,-0.0411 -0.793876,0.57554 -0.872986,0.53151 -1.268033,-0.70546 -1.922692,-1.45793 -2.502385,-2.68692 -0.04502,-0.0954 0.433168,-0.58508 0.392707,-0.68244 -0.04628,-0.11143 -0.784215,-0.25263 -0.824463,-0.36627 -0.557142,-1.57356 -0.574121,-2.95123 0.153142,-4.57824 0.04389,-0.0981 1.018088,0.01 1.067054,-0.0875 0.03678,-0.0728 -0.556679,-0.76245 -0.517661,-0.83328 0.778271,-1.41303 1.660298,-2.1192 3.061504,-2.6756 0.104866,-0.0417 0.604133,0.40517 0.710866,0.36899 0.08961,-0.0304 0.208172,-0.68353 0.298976,-0.71022 1.483005,-0.43588 2.439677,-0.49579 3.946364,0.17687 0.0989,0.0446 -0.207164,1.60767 0.04269,1.73392 0.249862,0.12622 1.273199,-1.09377 1.345428,-1.05392 1.313309,0.72464 1.762934,1.40501 2.340466,2.68366 0.06004,0.13301 -0.341927,0.6402 -0.290655,0.77668 0.04138,0.10987 0.704251,0.2493 0.739766,0.3613 0.478474,1.50767 0.506611,2.81977 -0.172171,4.36381 -0.04887,0.11094 -0.610622,0.17476 -0.665964,0.28432 z"
       style="opacity:1;vector-effect:none;fill:#514c43;fill-opacity:1;stroke:none;stroke-width:0.32421729;stroke-linecap:round;stroke-linejoin:round;stroke-miterlimit:4;stroke-dasharray:none;stroke-dashoffset:0;stroke-opacity:1"
       id="path5274"
       inkscape:connector-curvature="0"
       sodipodi:nodetypes="csccccscccccsccccczcccccsc" />
    <path
       sodipodi:nodetypes="sssssssssssssssss"
       inkscape:connector-curvature="0"
       id="path5287"
       d="m 95.502609,221.8253 c 0.952888,3.55622 -2.960576,6.53663 -3.34135,9.9882 -0.424233,3.84553 2.533793,8.13138 0.682306,11.45169 -1.781637,3.19503 -6.764966,2.75058 -9.649651,5.08071 -3.030634,2.44805 -4.014293,7.61619 -8.019852,8.68947 -3.86573,1.03582 -7.159832,-2.92373 -10.886398,-3.45487 -3.760326,-0.53597 -7.950082,2.34325 -11.172904,0.44033 -3.152923,-1.86166 -2.653653,-6.91911 -4.915729,-9.87175 -2.225213,-2.90453 -7.229176,-3.68831 -8.235043,-7.44226 -1.031449,-3.84942 2.925406,-7.12697 3.44819,-10.83919 0.535755,-3.80433 -2.326289,-8.03511 -0.392783,-11.2891 1.768298,-2.97596 6.668087,-2.33592 9.415375,-4.52228 2.995931,-2.38423 3.923387,-7.50528 7.857766,-8.5595 3.971752,-1.06422 7.373385,2.91359 11.192634,3.50023 3.739627,0.57438 7.904342,-2.27394 11.099578,-0.34668 2.952302,1.78072 2.288294,6.68697 4.452255,9.43586 2.33817,2.97017 7.425274,3.85656 8.465606,7.73914 z"
       style="opacity:0.6;vector-effect:none;fill:#007f3a;fill-opacity:1;stroke:none;stroke-width:1.41212356;stroke-linecap:round;stroke-linejoin:round;stroke-miterlimit:4;stroke-dasharray:none;stroke-dashoffset:0;stroke-opacity:0.1254902" />
  </g>
</svg>
