<?xml version="1.0" encoding="UTF-8" standalone="no"?>
<!-- Created with Inkscape (http://www.inkscape.org/) -->

<svg
   xmlns:dc="http://purl.org/dc/elements/1.1/"
   xmlns:cc="http://creativecommons.org/ns#"
   xmlns:rdf="http://www.w3.org/1999/02/22-rdf-syntax-ns#"
   xmlns:svg="http://www.w3.org/2000/svg"
   xmlns="http://www.w3.org/2000/svg"
   xmlns:xlink="http://www.w3.org/1999/xlink"
   xmlns:sodipodi="http://sodipodi.sourceforge.net/DTD/sodipodi-0.dtd"
   xmlns:inkscape="http://www.inkscape.org/namespaces/inkscape"
   width="80"
   height="80"
   viewBox="0 0 21.166666 21.166666"
   version="1.1"
   id="svg8"
   inkscape:version="0.92.4 (f8dce91, 2019-08-02)"
   sodipodi:docname="wood.svg">
  <defs
     id="defs2" />
  <sodipodi:namedview
     id="base"
     pagecolor="#284b36"
     bordercolor="#666666"
     borderopacity="1.0"
     inkscape:pageopacity="0"
     inkscape:pageshadow="2"
     inkscape:zoom="7.919596"
     inkscape:cx="9.2523878"
     inkscape:cy="45.821691"
     inkscape:document-units="mm"
     inkscape:current-layer="layer1"
     showgrid="false"
     units="px"
     inkscape:window-width="1850"
     inkscape:window-height="1016"
     inkscape:window-x="70"
     inkscape:window-y="27"
     inkscape:window-maximized="1" />
  <metadata
     id="metadata5">
    <rdf:RDF>
      <cc:Work
         rdf:about="">
        <dc:format>image/svg+xml</dc:format>
        <dc:type
           rdf:resource="http://purl.org/dc/dcmitype/StillImage" />
        <dc:title></dc:title>
      </cc:Work>
    </rdf:RDF>
  </metadata>
  <g
     inkscape:label="Layer 1"
     inkscape:groupmode="layer"
     id="layer1"
     transform="translate(0,-275.83333)">
    <g
       id="g7676"
       style="opacity:0.2;stroke-width:1.79999995;stroke-miterlimit:4;stroke-dasharray:none">
      <g
         id="g7680"
         style="display:none">
        <path
           sodipodi:type="inkscape:offset"
           inkscape:radius="0"
           inkscape:original="M 29.621094 280.40625 C 22.069497 280.40625 21.674732 292.34532 29.224609 291.2168 C 37.573895 292.92942 37.172736 280.40625 29.621094 280.40625 z "
           xlink:href="#path3285-0"
           style="opacity:1;vector-effect:none;fill:#bd1935;fill-opacity:1;stroke:#000000;stroke-width:1.79999995;stroke-linecap:butt;stroke-linejoin:miter;stroke-miterlimit:4;stroke-dasharray:none;stroke-dashoffset:0;stroke-opacity:1"
           id="path7672"
           inkscape:href="#path3285-0"
           d="m 29.621094,280.40625 c -7.551597,0 -7.946362,11.93907 -0.396485,10.81055 8.349286,1.71262 7.948127,-10.81055 0.396485,-10.81055 z"
           transform="translate(-19.037581,1.4980187)" />
        <path
           sodipodi:type="inkscape:offset"
           inkscape:radius="0"
           inkscape:original="M 30.025391 277.0293 L 28.414062 277.05078 C 28.806335 277.82038 29.027967 279.32048 29.03125 280.09375 C 25.598084 279.93297 25.8118 282.41407 22.767578 283.78516 C 26.733915 284.14152 26.225888 281.77763 28.835938 282.14453 C 27.673976 284.7751 29.624591 285.59565 29.853516 286.75586 C 30.196848 285.58931 28.866806 284.29616 30.841797 282.19141 C 32.875426 282.17191 33.264871 284.53743 36.425781 284.11328 C 33.600712 283.0036 33.852412 280.05069 30.529297 279.98047 C 30.524697 279.26635 30.391013 277.76538 30.025391 277.0293 z "
           xlink:href="#path7649"
           style="fill:#007f3a;fill-opacity:1;stroke:#000000;stroke-width:1.79999995;stroke-linecap:round;stroke-linejoin:round;stroke-miterlimit:4;stroke-dasharray:none;stroke-opacity:1"
           id="path7670"
           inkscape:href="#path7649"
           d="m 30.025391,277.0293 -1.611329,0.0215 c 0.392273,0.7696 0.613905,2.2697 0.617188,3.04297 -3.433166,-0.16078 -3.21945,2.32032 -6.263672,3.69141 3.966337,0.35636 3.45831,-2.00753 6.06836,-1.64063 -1.161962,2.63057 0.788653,3.45112 1.017578,4.61133 0.343332,-1.16655 -0.98671,-2.4597 0.988281,-4.56445 2.033629,-0.0195 2.423074,2.34602 5.583984,1.92187 -2.825069,-1.10968 -2.573369,-4.06259 -5.896484,-4.13281 -0.0046,-0.71412 -0.138284,-2.21509 -0.503906,-2.95117 z"
           transform="translate(-19.037581,1.4980187)" />
      </g>
    </g>
    <path
       style="opacity:1;vector-effect:none;fill:#bd1935;fill-opacity:1;stroke:#000000;stroke-width:0.69999999;stroke-linecap:butt;stroke-linejoin:miter;stroke-miterlimit:4;stroke-dasharray:none;stroke-dashoffset:0;stroke-opacity:1"
       d="m 29.224067,291.21769 c -7.549877,1.12852 -7.154793,-10.81163 0.396804,-10.81163 7.551642,0 7.952482,12.52425 -0.396804,10.81163 z"
       id="path3285-0"
       inkscape:connector-curvature="0"
       sodipodi:nodetypes="czc" />
    <path
       style="opacity:0.80699978;fill:#fffdfd;fill-opacity:1;stroke:none;stroke-width:0.38922897;stroke-linecap:butt;stroke-linejoin:miter;stroke-miterlimit:4;stroke-dasharray:none;stroke-opacity:1"
       d="m 33.354186,288.13944 c 0.555789,0.50959 -0.967782,1.58914 -2.354048,2.00171 -1.386267,0.41256 -3.339495,-0.31395 -3.248191,-0.61973 0.0913,-0.30579 1.725644,0.25234 3.010869,-0.13603 1.28523,-0.38837 2.035579,-1.75556 2.59137,-1.24595 z"
       id="path3287-2"
       inkscape:connector-curvature="0"
       sodipodi:nodetypes="zzzzz" />
    <path
       style="fill:#007f3a;fill-opacity:1;stroke:#000000;stroke-width:0.69999999;stroke-linecap:round;stroke-linejoin:round;stroke-miterlimit:4;stroke-dasharray:none;stroke-opacity:1"
       d="m 28.83641,282.14456 c -1.161961,2.63057 0.788653,3.45112 1.017578,4.61133 0.343332,-1.16655 -0.986709,-2.45971 0.988282,-4.56446 2.033629,-0.0195 2.423074,2.34603 5.583984,1.92188 -2.825069,-1.10968 -2.572967,-4.06244 -5.896082,-4.13266 -0.0046,-0.71412 -0.138687,-2.21525 -0.504309,-2.95133 l -1.611586,0.021 c 0.392273,0.7696 0.61326,2.26941 0.616543,3.04268 -3.433166,-0.16078 -3.218548,2.32109 -6.26277,3.69218 3.966337,0.35636 3.458311,-2.00752 6.06836,-1.64062 z"
       id="path7649"
       inkscape:connector-curvature="0"
       sodipodi:nodetypes="cccccccccc" />
    <ellipse
       style="opacity:1;vector-effect:none;fill:#4c483f;fill-opacity:0.98039216;stroke:none;stroke-width:4.83511114;stroke-linecap:round;stroke-linejoin:round;stroke-miterlimit:4;stroke-dasharray:none;stroke-dashoffset:0;stroke-opacity:0.1254902"
       id="path5932"
       ry="3.3575733"
       rx="2.3720171"
       cy="285.0564"
       cx="18.207737" />
    <path
       style="opacity:1;vector-effect:none;fill:#514c43;fill-opacity:1;stroke:none;stroke-width:4.10003901;stroke-linecap:round;stroke-linejoin:round;stroke-miterlimit:4;stroke-dasharray:none;stroke-dashoffset:0;stroke-opacity:0.1254902"
       d="m 15.152344,22.167969 v 0.01172 A 8.9651039,12.690041 0 0 0 6.3945312,34.859375 8.9651039,12.690041 0 0 0 15.152344,47.535156 v 0.01367 h 0.207031 27.0625 l -0.07813,0.101563 15.910156,12.359375 a 1.6820893,2.6409377 33.647365 0 1 0.369141,-2.861328 1.6820893,2.6409377 33.647365 0 1 2.658203,-1.341797 L 50.652344,47.548828 H 68.816406 A 8.965104,12.690041 0 0 1 59.851562,34.859375 8.965104,12.690041 0 0 1 68.816406,22.167969 H 15.359375 Z m 53.664062,0 a 8.965104,12.690041 0 0 1 0.126953,0.0098 v -0.0098 z m 0,25.380859 h 0.126953 v -0.0059 a 8.965104,12.690041 0 0 1 -0.126953,0.0059 z"
       id="rect5934"
       inkscape:connector-curvature="0"
       transform="matrix(0.26458333,0,0,0.26458333,0,275.83333)" />
    <ellipse
       style="opacity:1;vector-effect:none;fill:#4c483f;fill-opacity:0.98039216;stroke:none;stroke-width:0.2527976;stroke-linecap:round;stroke-linejoin:round;stroke-miterlimit:4;stroke-dasharray:none;stroke-dashoffset:0;stroke-opacity:0.1254902"
       id="path5932-6"
       ry="0.69872713"
       rx="0.44508573"
       cy="230.84779"
       cx="176.06882"
       transform="matrix(0.82361694,0.56714649,-0.55939793,0.82889925,0,0)" />
    <ellipse
       style="opacity:1;vector-effect:none;fill:#4c483f;fill-opacity:0.98039216;stroke:none;stroke-width:1.27928984;stroke-linecap:round;stroke-linejoin:round;stroke-miterlimit:4;stroke-dasharray:none;stroke-dashoffset:0;stroke-opacity:0.1254902"
       id="path5932-5"
       ry="3.3575733"
       rx="2.3720171"
       cy="278.47916"
       cx="22.605339" />
    <ellipse
       cx="17.67857"
       cy="285.0564"
       rx="2.3720171"
       ry="3.3575733"
       id="ellipse6627"
       style="opacity:1;vector-effect:none;fill:#4c483f;fill-opacity:0.98039216;stroke:none;stroke-width:1.27928984;stroke-linecap:round;stroke-linejoin:round;stroke-miterlimit:4;stroke-dasharray:none;stroke-dashoffset:0;stroke-opacity:0.1254902" />
    <path
       transform="matrix(0.26458333,0,0,0.26458333,0,275.83333)"
       inkscape:connector-curvature="0"
       id="path6629"
       d="m 15.152344,22.167969 v 0.01172 A 8.9651039,12.690041 0 0 0 6.3945312,34.859375 8.9651039,12.690041 0 0 0 15.152344,47.535156 v 0.01367 h 0.207031 27.0625 l -0.07813,0.101563 15.910156,12.359375 a 1.6820893,2.6409377 33.647365 0 1 0.369141,-2.861328 1.6820893,2.6409377 33.647365 0 1 2.658203,-1.341797 L 50.652344,47.548828 H 68.816406 A 8.965104,12.690041 0 0 1 59.851562,34.859375 8.965104,12.690041 0 0 1 68.816406,22.167969 H 15.359375 Z m 53.664062,0 a 8.965104,12.690041 0 0 1 0.126953,0.0098 v -0.0098 z m 0,25.380859 h 0.126953 v -0.0059 a 8.965104,12.690041 0 0 1 -0.126953,0.0059 z"
       style="opacity:1;vector-effect:none;fill:#514c43;fill-opacity:1;stroke:none;stroke-width:4.10003901;stroke-linecap:round;stroke-linejoin:round;stroke-miterlimit:4;stroke-dasharray:none;stroke-dashoffset:0;stroke-opacity:0.1254902" />
  </g>
</svg>
