<?xml version="1.0" encoding="UTF-8" standalone="no"?>
<!-- Created with Inkscape (http://www.inkscape.org/) -->

<svg
   xmlns:dc="http://purl.org/dc/elements/1.1/"
   xmlns:cc="http://creativecommons.org/ns#"
   xmlns:rdf="http://www.w3.org/1999/02/22-rdf-syntax-ns#"
   xmlns:svg="http://www.w3.org/2000/svg"
   xmlns="http://www.w3.org/2000/svg"
   xmlns:xlink="http://www.w3.org/1999/xlink"
   xmlns:sodipodi="http://sodipodi.sourceforge.net/DTD/sodipodi-0.dtd"
   xmlns:inkscape="http://www.inkscape.org/namespaces/inkscape"
   width="128"
   height="128"
   viewBox="0 0 33.866666 33.866666"
   version="1.1"
   id="svg8"
   inkscape:version="0.92.4 (f8dce91, 2019-08-02)"
   sodipodi:docname="craft-table.svg">
  <defs
     id="defs2" />
  <sodipodi:namedview
     id="base"
     pagecolor="#284b36"
     bordercolor="#666666"
     borderopacity="1.0"
     inkscape:pageopacity="0"
     inkscape:pageshadow="2"
     inkscape:zoom="2.8284271"
     inkscape:cx="72.182609"
     inkscape:cy="-0.45749981"
     inkscape:document-units="mm"
     inkscape:current-layer="layer1"
     showgrid="false"
     units="px"
     inkscape:window-width="1850"
     inkscape:window-height="1016"
     inkscape:window-x="70"
     inkscape:window-y="27"
     inkscape:window-maximized="1" />
  <metadata
     id="metadata5">
    <rdf:RDF>
      <cc:Work
         rdf:about="">
        <dc:format>image/svg+xml</dc:format>
        <dc:type
           rdf:resource="http://purl.org/dc/dcmitype/StillImage" />
        <dc:title />
      </cc:Work>
    </rdf:RDF>
  </metadata>
  <g
     inkscape:label="Layer 1"
     inkscape:groupmode="layer"
     id="layer1"
     transform="translate(0,-263.13333)">
    <path
       style="opacity:0.302;vector-effect:none;fill:#717171;fill-opacity:1;stroke:#000000;stroke-width:7.93700797;stroke-linecap:butt;stroke-linejoin:round;stroke-miterlimit:4;stroke-dasharray:none;stroke-dashoffset:0;stroke-opacity:1"
       d="M 37.603516 28.246094 C 32.763139 28.246094 28.867188 32.143972 28.867188 36.984375 L 28.867188 43.642578 L 48.294922 47.304688 L 28.867188 51.445312 L 28.867188 91.015625 C 28.867187 95.856028 32.763139 99.753906 37.603516 99.753906 L 53.541016 99.753906 L 53.541016 105.53906 C 53.541016 110.84473 58.166856 115.14648 63.873047 115.14648 C 69.579215 115.14648 74.205078 110.84473 74.205078 105.53906 L 74.138672 99.753906 L 90.396484 99.753906 C 95.236865 99.753906 99.132812 95.856028 99.132812 91.015625 L 99.132812 81.861328 L 87.507812 78.675781 L 99.132812 75.332031 L 99.132812 36.984375 C 99.132812 32.143972 95.236865 28.246094 90.396484 28.246094 L 37.603516 28.246094 z "
       transform="matrix(0.26458333,0,0,0.26458333,0,263.13333)"
       id="path1893" />
    <path
       sodipodi:nodetypes="cscccc"
       inkscape:connector-curvature="0"
       id="path13652"
       d="m 19.633586,291.05724 c 0,1.40379 -1.223902,2.54181 -2.733659,2.54181 -1.509763,0 -2.733664,-1.13802 -2.733664,-2.54181 v -2.29026 h 5.440701 z"
       inkscape:transform-center-y="5.3968794"
       inkscape:transform-center-x="-4.5253325"
       style="opacity:1;vector-effect:none;fill:#717171;fill-opacity:1;stroke:#000000;stroke-width:0.69999999;stroke-linecap:butt;stroke-linejoin:round;stroke-miterlimit:4;stroke-dasharray:none;stroke-dashoffset:0;stroke-opacity:1" />
    <path
       style="opacity:0.30100002;vector-effect:none;fill:#717171;fill-opacity:1;stroke:#000000;stroke-width:2.0999999;stroke-linecap:round;stroke-linejoin:round;stroke-miterlimit:4;stroke-dasharray:none;stroke-dashoffset:0;stroke-opacity:1"
       d="m -17.852364,267.29468 c -1.451823,-0.14619 -3.027057,0.0451 -4.706485,0.63663 -5.638182,1.98614 -8.777656,7.60289 -7.129426,13.73143 1.602952,5.95924 7.246659,9.83333 12.995647,8.16127 6.467895,-1.88115 9.8607672,-8.32359 8.0132392,-13.87946 -1.5775752,-4.74407 -4.8175072,-8.21132 -9.1729752,-8.64987 z"
       id="path2972"
       inkscape:connector-curvature="0" />
    <path
       style="opacity:1;vector-effect:none;fill:#717171;fill-opacity:1;stroke:#000000;stroke-width:0.69999999;stroke-linecap:round;stroke-linejoin:round;stroke-miterlimit:4;stroke-dasharray:none;stroke-dashoffset:0;stroke-opacity:1"
       d="m -29.688048,281.66342 c -1.64823,-6.12855 1.49056,-11.74648 7.128741,-13.73262 6.717711,-2.36642 11.776681,1.68827 13.8801132,8.01368 1.847528,5.55588 -1.5457912,11.99897 -8.0136872,13.88012 -5.748986,1.67205 -11.392214,-2.20193 -12.995167,-8.16118 z"
       id="path2338"
       inkscape:connector-curvature="0"
       sodipodi:nodetypes="sssss" />
    <path
       style="opacity:1;vector-effect:none;fill:#a3a3a3;fill-opacity:0.99095022;stroke:none;stroke-width:0.93816346;stroke-linecap:round;stroke-linejoin:round;stroke-miterlimit:4;stroke-dasharray:none;stroke-dashoffset:0;stroke-opacity:1"
       d="m -15.003458,285.5808 c -1.584865,1.0901 -5.702351,1.56414 -5.702351,0.22332 0,-1.34082 2.024584,-0.94304 3.926823,-2.0413 1.902239,-1.09826 3.683568,-3.94904 4.742303,-3.17736 1.058736,0.77168 -1.38191,3.90524 -2.966775,4.99534 z"
       id="path2341"
       inkscape:connector-curvature="0"
       sodipodi:nodetypes="zzzzz" />
    <g
       transform="translate(-33.568513,-11.935084)"
       id="g7676"
       style="opacity:0.2;stroke-width:1.79999995;stroke-miterlimit:4;stroke-dasharray:none">
      <g
         id="g7680"
         style="display:none">
        <path
           inkscape:href="#path3285-0"
           sodipodi:type="inkscape:offset"
           inkscape:radius="0"
           inkscape:original="M 11.113281 281.375 C 3.5616847 281.375 3.1649673 293.31602 10.714844 292.1875 C 19.06413 293.90012 18.664923 281.375 11.113281 281.375 z "
           xlink:href="#path3285-0"
           style="opacity:1;vector-effect:none;fill:#bd1935;fill-opacity:1;stroke:#000000;stroke-width:1.79999995;stroke-linecap:butt;stroke-linejoin:miter;stroke-miterlimit:4;stroke-dasharray:none;stroke-dashoffset:0;stroke-opacity:1"
           id="path7672"
           d="m 11.113281,281.375 c -7.5515963,0 -7.9483137,11.94102 -0.398437,10.8125 8.349286,1.71262 7.950079,-10.8125 0.398437,-10.8125 z"
           transform="translate(-0.52916667,0.52916667)" />
        <path
           inkscape:href="#path7649"
           sodipodi:type="inkscape:offset"
           inkscape:radius="0"
           inkscape:original="M 11.517578 277.99805 L 9.90625 278.01953 C 10.298522 278.78913 10.518201 280.28923 10.521484 281.0625 C 6.1670013 281.1143 6.5244116 283.99703 4.2597656 284.75391 C 7.3520321 285.27563 7.6516697 282.34599 10.261719 282.71289 C 9.0997573 285.34346 11.116778 286.5644 11.345703 287.72461 C 11.689035 286.55806 10.191025 284.83131 12.166016 282.72656 C 15.002844 282.61257 15.725623 285.83691 17.917969 285.08203 C 15.896099 284.09047 16.218669 280.99582 12.021484 280.94922 C 12.016884 280.2351 11.8832 278.73413 11.517578 277.99805 z "
           xlink:href="#path7649"
           style="fill:#007f3a;fill-opacity:1;stroke:#000000;stroke-width:1.79999995;stroke-linecap:round;stroke-linejoin:round;stroke-miterlimit:4;stroke-dasharray:none;stroke-opacity:1"
           id="path7670"
           d="m 11.517578,277.99805 -1.611328,0.0215 c 0.392272,0.7696 0.611951,2.2697 0.615234,3.04297 -4.3544827,0.0518 -3.9970724,2.93453 -6.2617184,3.69141 3.0922665,0.52172 3.3919041,-2.40792 6.0019534,-2.04102 -1.1619617,2.63057 0.855059,3.85151 1.083984,5.01172 0.343332,-1.16655 -1.154678,-2.8933 0.820313,-4.99805 2.836828,-0.11399 3.559607,3.11035 5.751953,2.35547 -2.02187,-0.99156 -1.6993,-4.08621 -5.896485,-4.13281 -0.0046,-0.71412 -0.138284,-2.21509 -0.503906,-2.95117 z"
           transform="translate(-0.52916667,0.52916667)" />
      </g>
    </g>
    <path
       style="opacity:1;vector-effect:none;fill:#514c43;fill-opacity:1;stroke:#000000;stroke-width:0.65497899;stroke-linecap:butt;stroke-linejoin:round;stroke-miterlimit:4;stroke-dasharray:none;stroke-dashoffset:0;stroke-opacity:1"
       d="M 9.9494327,270.60692 H 23.917233 c 1.280684,0 2.311704,1.03102 2.311704,2.31171 v 10.14634 l -3.075818,0.88483 3.075818,0.84268 v 2.42221 c 0,1.28069 -1.03102,2.31171 -2.311704,2.31171 H 9.9494327 c -1.280683,0 -2.3117032,-1.03102 -2.3117032,-2.31171 v -10.46991 l 5.1404115,-1.0955 -5.1404115,-0.9691 v -1.76155 c 0,-1.28069 1.0310202,-2.31171 2.3117032,-2.31171 z"
       id="rect12609"
       inkscape:connector-curvature="0"
       sodipodi:nodetypes="ssscccsssscccss" />
    <path
       style="color:#000000;font-style:normal;font-variant:normal;font-weight:normal;font-stretch:normal;font-size:medium;line-height:normal;font-family:sans-serif;font-variant-ligatures:normal;font-variant-position:normal;font-variant-caps:normal;font-variant-numeric:normal;font-variant-alternates:normal;font-feature-settings:normal;text-indent:0;text-align:start;text-decoration:none;text-decoration-line:none;text-decoration-style:solid;text-decoration-color:#000000;letter-spacing:normal;word-spacing:normal;text-transform:none;writing-mode:lr-tb;direction:ltr;text-orientation:mixed;dominant-baseline:auto;baseline-shift:baseline;text-anchor:start;white-space:normal;shape-padding:0;clip-rule:nonzero;display:inline;overflow:visible;visibility:visible;opacity:1;isolation:auto;mix-blend-mode:normal;color-interpolation:sRGB;color-interpolation-filters:linearRGB;solid-color:#000000;solid-opacity:1;vector-effect:none;fill:#60594f;fill-opacity:0.98823529;fill-rule:nonzero;stroke:none;stroke-width:2.80705285;stroke-linecap:butt;stroke-linejoin:round;stroke-miterlimit:4;stroke-dasharray:none;stroke-dashoffset:0;stroke-opacity:1;color-rendering:auto;image-rendering:auto;shape-rendering:auto;text-rendering:auto;enable-background:accumulate"
       d="m 9.9487675,272.0106 -0.9080659,0.90855 6.0629604,2.55545 -5.6210156,3.51138 -0.4419448,8.22771 0.9080659,0.90855 0.8693835,0.029 c 0.08288,-1.39009 -0.288666,-2.68065 -0.288666,-3.80634 0,-3.34481 3.868436,-6.30534 4.34837,-5.87874 0.479933,0.42661 -3.202408,3.19575 -3.202408,6.07167 0,1.19403 0.629528,2.49417 0.692412,3.6105 l 1.937982,-0.004 c 0.242539,-0.77289 -0.196036,-3.26185 -0.888242,-4.64332 -0.322545,-0.64372 0.275063,-0.83835 0.644543,-0.38005 1.229394,1.52493 1.820557,3.95412 1.541488,5.21098 l 1.448168,0.0556 c 0.466103,-2.16443 -0.990566,-4.20499 -0.973343,-6.26991 0.02708,-3.2461 2.390564,-5.37535 2.390564,-9.75373 z m 13.3535995,0 c 0.217282,5.18732 -2.465113,9.75435 -3.121658,9.62366 -0.663799,-0.13213 2.649003,-4.3354 2.148799,-9.56129 l -2.262912,0.18761 c 0,3.85336 -3.245548,6.33826 -3.239155,9.90169 0.0037,2.0795 2.516535,4.07763 2.000839,5.95997 l 2.502812,-0.0663 c -0.137089,-0.89634 -1.223656,-1.84511 -0.923125,-2.02543 0.304862,-0.18292 1.802296,1.03516 1.938949,2.09174 h 1.569532 c 0.527407,0 0.90855,-0.38113 0.90855,-0.90855 v -0.85536 l -4.651542,-2.42489 4.342084,-2.64055 0.309458,-8.37374 -0.90855,-0.90855 z"
       id="path13466"
       inkscape:connector-curvature="0"
       sodipodi:nodetypes="cccccccsssccssccscccsccsccccsscccccc" />
    <g
       id="g13491"
       style="display:inline">
      <path
         inkscape:connector-curvature="0"
         id="rect13457"
         transform="matrix(0.26458333,0,0,0.26458333,0,263.13333)"
         d="m 74.458984,41.533203 c -0.952445,0 -1.817611,0.370595 -2.515625,0.970703 h -5.05664 c -2.564731,0 -4.628907,2.064176 -4.628907,4.628906 v 6.810547 c 10e-7,2.564731 2.064176,4.63086 4.628907,4.63086 h 3.43164 v 23.220703 c 0,2.564729 1.847148,4.630859 4.140625,4.630859 2.293478,0 4.138672,-2.06613 4.138672,-4.630859 V 58.574219 h 3.433594 c 2.56473,0 4.628906,-2.066129 4.628906,-4.63086 v -6.810547 c 0,-2.56473 -2.064176,-4.628906 -4.628906,-4.628906 H 76.972656 C 76.2747,41.90398 75.411271,41.533203 74.458984,41.533203 Z m -28.507812,0.302735 c -2.564731,0 -4.628906,2.064194 -4.628906,4.628906 v 30.464844 h -0.175782 v 6.976562 c 0,1.514306 1.22004,2.732422 2.734375,2.732422 h 11.072266 c 1.514332,0 2.732422,-1.218116 2.732422,-2.732422 V 76.929688 H 57.484375 L 52.826172,46.464844 C 52.418402,43.932749 50.762,41.835938 48.197266,41.835938 Z"
         style="opacity:0.30700001;vector-effect:none;fill:#514c43;fill-opacity:1;stroke:#000000;stroke-width:5.29133844;stroke-linecap:butt;stroke-linejoin:round;stroke-miterlimit:4;stroke-dasharray:none;stroke-dashoffset:0;stroke-opacity:1" />
      <rect
         ry="1.224882"
         y="274.12228"
         x="18.605125"
         height="11.877644"
         width="2.190671"
         id="rect12665"
         style="opacity:1;vector-effect:none;fill:#514c43;fill-opacity:1;stroke:#000000;stroke-width:0.69999999;stroke-linecap:butt;stroke-linejoin:round;stroke-miterlimit:4;stroke-dasharray:none;stroke-dashoffset:0;stroke-opacity:1" />
      <rect
         ry="1.2248825"
         y="274.37909"
         x="16.472187"
         height="4.2518735"
         width="6.4565487"
         id="rect12675"
         style="opacity:1;vector-effect:none;fill:#717171;fill-opacity:1;stroke:#000000;stroke-width:0.69999999;stroke-linecap:butt;stroke-linejoin:round;stroke-miterlimit:4;stroke-dasharray:none;stroke-dashoffset:0;stroke-opacity:1" />
      <path
         sodipodi:nodetypes="sssccss"
         inkscape:connector-curvature="0"
         id="rect13276"
         d="m 12.158158,274.20247 h 0.59388 c 0.678586,0 1.116995,0.55493 1.224884,1.22488 l 1.239729,8.1065 h -4.283375 v -8.1065 c 0,-0.67858 0.546297,-1.22488 1.224882,-1.22488 z"
         style="opacity:1;vector-effect:none;fill:#717171;fill-opacity:1;stroke:#000000;stroke-width:0.69999999;stroke-linecap:butt;stroke-linejoin:round;stroke-miterlimit:4;stroke-dasharray:none;stroke-dashoffset:0;stroke-opacity:1" />
      <path
         sodipodi:nodetypes="csssscc"
         inkscape:connector-curvature="0"
         id="rect13282"
         d="m 15.262816,283.48789 v 1.84549 c 0,0.40066 -0.32256,0.72321 -0.723227,0.72321 h -2.929495 c -0.400668,0 -0.723227,-0.32255 -0.723227,-0.72321 v -1.84549 z"
         style="opacity:1;vector-effect:none;fill:#514c43;fill-opacity:0.98431373;stroke:#000000;stroke-width:0.69999999;stroke-linecap:butt;stroke-linejoin:bevel;stroke-miterlimit:4;stroke-dasharray:none;stroke-dashoffset:0;stroke-opacity:1" />
    </g>
    <path
       style="opacity:1;vector-effect:none;fill:#514c43;fill-opacity:1;stroke:#000000;stroke-width:0.69999999;stroke-linecap:butt;stroke-linejoin:round;stroke-miterlimit:4;stroke-dasharray:none;stroke-dashoffset:0;stroke-opacity:1"
       inkscape:transform-center-x="-2.2905426"
       inkscape:transform-center-y="2.9378714"
       d="m 18.317003,290.79346 c 0,0.76417 -0.61949,1.38367 -1.383669,1.38367 -0.764181,0 -1.383671,-0.6195 -1.383671,-1.38367 v -1.24674 h 2.753865 z"
       id="path13498-2-9"
       inkscape:connector-curvature="0"
       sodipodi:nodetypes="cscccc" />
  </g>
</svg>
