<?xml version="1.0" encoding="UTF-8" standalone="no"?>
<!-- Created with Inkscape (http://www.inkscape.org/) -->

<svg
   xmlns:dc="http://purl.org/dc/elements/1.1/"
   xmlns:cc="http://creativecommons.org/ns#"
   xmlns:rdf="http://www.w3.org/1999/02/22-rdf-syntax-ns#"
   xmlns:svg="http://www.w3.org/2000/svg"
   xmlns="http://www.w3.org/2000/svg"
   xmlns:sodipodi="http://sodipodi.sourceforge.net/DTD/sodipodi-0.dtd"
   xmlns:inkscape="http://www.inkscape.org/namespaces/inkscape"
   width="128"
   height="128"
   viewBox="0 0 33.866665 33.866665"
   version="1.1"
   id="svg8"
   inkscape:version="0.92.4 (f8dce91, 2019-08-02)"
   sodipodi:docname="trunk.svg">
  <defs
     id="defs2" />
  <sodipodi:namedview
     id="base"
     pagecolor="#284b36"
     bordercolor="#666666"
     borderopacity="1.0"
     inkscape:pageopacity="0"
     inkscape:pageshadow="2"
     inkscape:zoom="1.4"
     inkscape:cx="326.01798"
     inkscape:cy="179.23134"
     inkscape:document-units="mm"
     inkscape:current-layer="layer1"
     showgrid="false"
     units="px"
     inkscape:window-width="1850"
     inkscape:window-height="1016"
     inkscape:window-x="70"
     inkscape:window-y="27"
     inkscape:window-maximized="1" />
  <metadata
     id="metadata5">
    <rdf:RDF>
      <cc:Work
         rdf:about="">
        <dc:format>image/svg+xml</dc:format>
        <dc:type
           rdf:resource="http://purl.org/dc/dcmitype/StillImage" />
        <dc:title></dc:title>
      </cc:Work>
    </rdf:RDF>
  </metadata>
  <g
     inkscape:label="Layer 1"
     inkscape:groupmode="layer"
     id="layer1"
     transform="translate(0,-263.13333)">
    <path
       d="m 23.503925,283.308 c -0.0383,0.0758 0.37115,0.37747 0.33076,0.4515 -1.08858,1.9951 -2.92657,3.33954 -4.98441,3.85927 -0.1151,0.0291 -0.45294,-0.62 -0.56932,-0.59612 -0.1554,0.0319 -0.0898,0.73466 -0.24702,0.75716 -1.45846,0.20866 -2.98915,0.0105 -4.41626,-0.65086 -0.0813,-0.0371 0.29162,-0.97434 0.21122,-1.01496 -0.0956,-0.0483 -0.64326,0.79936 -0.73601,0.74776 -1.48655,-0.82709 -2.60631,-2.07269 -3.2858998,-3.5135 -0.0528,-0.112 0.5726398,-0.44702 0.5251998,-0.56117 -0.0543,-0.13062 -0.7805598,-0.0405 -0.8277398,-0.17377 -0.65316,-1.84474 -0.62175,-3.92861 0.23085,-5.836 0.0514,-0.11502 1.0034198,0.2241 1.0608298,0.1105 0.0431,-0.0853 -0.8100698,-0.62299 -0.76432,-0.70605 0.91241,-1.65656 2.34292,-2.86124 3.98561,-3.5135 0.12296,-0.0487 0.46919,0.58099 0.5944,0.53841 0.10502,-0.0356 -0.0113,-0.74481 0.0952,-0.77609 1.73859,-0.511 3.65605,-0.42645 5.42241,0.36212 0.11592,0.0522 -0.22184,1.00436 -0.10708,1.06235 0.087,0.044 0.62639,-0.80829 0.71107,-0.76155 1.53966,0.84946 2.68847,2.14673 3.36552,3.64575 0.0704,0.15592 -0.53982,0.53604 -0.4797,0.69603 0.0484,0.12894 0.76907,0.037 0.81073,0.16828 0.56093,1.76753 0.50164,3.73319 -0.29413,5.5433 -0.0572,0.13014 -0.56705,0.0327 -0.63192,0.16118 z"
       style="opacity:1;vector-effect:none;fill:#514c43;fill-opacity:0;stroke:none;stroke-width:0.38009319;stroke-linecap:round;stroke-linejoin:round;stroke-miterlimit:4;stroke-dasharray:none;stroke-dashoffset:0;stroke-opacity:1"
       id="path5272"
       inkscape:connector-curvature="0" />
    <path
       style="opacity:0.30100002;vector-effect:none;fill:#4b473f;fill-opacity:0.98431373;stroke:#000000;stroke-width:2.1;stroke-linecap:round;stroke-linejoin:round;stroke-miterlimit:4;stroke-dasharray:none;stroke-dashoffset:0;stroke-opacity:1"
       d="m 17.271735,267.53947 c -0.64549,0.12299 -1.13127,0.37421 -1.96322,0.49874 -1.52582,0.22841 -1.6647,-0.66554 -4.56573,0.9612 -2.9010298,1.62675 -2.2428998,2.40376 -3.2826098,3.73375 -1.01454,1.29779 -1.86163,0.73374 -2.7408,4.01486 -0.87918,3.28111 0.12007,3.23678 0.32871,4.83096 0.2121,1.62061 -0.68452,1.89209 0.87053,4.64734 1.55518,2.75474 2.10996,2.21395 3.42316,3.24407 1.3014298,1.02087 0.8197498,1.81477 4.3095598,2.74986 3.48981,0.9351 3.35973,0.12974 5.05087,-0.13601 1.60969,-0.25293 2.00808,0.33196 4.69948,-1.22191 2.69141,-1.55389 2.14706,-2.20258 3.15339,-3.57278 0.90323,-1.22979 1.72913,-0.87093 2.56851,-4.00352 0.83938,-3.1326 0.0445,-3.18019 -0.19269,-4.82417 -0.21953,-1.52152 0.74354,-1.48253 -0.94987,-4.54986 -1.69342,-3.06733 -2.20335,-2.15402 -3.50025,-3.1942 -1.32449,-1.06236 -1.3558,-2.11516 -4.29142,-2.90176 -1.46781,-0.39329 -2.27214,-0.39956 -2.91762,-0.27657 z"
       id="path2255"
       inkscape:connector-curvature="0" />
    <path
       style="opacity:1;vector-effect:none;fill:#4b473f;fill-opacity:0.98431373;stroke:#000000;stroke-width:0.7;stroke-linecap:round;stroke-linejoin:round;stroke-miterlimit:4;stroke-dasharray:none;stroke-dashoffset:0;stroke-opacity:1"
       d="m 29.122995,283.28693 c -0.83938,3.1326 -1.66503,2.77263 -2.56826,4.00242 -1.00633,1.37021 -0.46269,2.01827 -3.15409,3.57216 -2.69141,1.55388 -3.08836,0.96986 -4.69804,1.22279 -1.69114,0.26574 -1.56152,1.07033 -5.05133,0.13523 -3.48981,-0.93509 -3.00745,-1.72835 -4.3088698,-2.74922 -1.31321,-1.03013 -1.86811,-0.48975 -3.42329,-3.24449 -1.55505,-2.75525 -0.65861,-3.02597 -0.87071,-4.64658 -0.20864,-1.59419 -1.20889,-1.5503 -0.32972,-4.83142 0.87917,-3.28112 1.72765,-2.71687 2.74219,-4.01466 1.03972,-1.32999 0.3812,-2.10802 3.2822298,-3.73477 2.90103,-1.62675 3.03977,-0.73157 4.56559,-0.95997 1.6639,-0.24907 1.94608,-1.00979 4.8817,-0.22319 2.93562,0.7866 2.96613,1.83918 4.29062,2.90153 1.2969,1.04019 1.80623,0.12892 3.49964,3.19625 1.69342,3.06733 0.73056,3.02758 0.95008,4.5491 0.23721,1.64398 1.03163,1.69223 0.19226,4.82482 z"
       id="path2249"
       inkscape:connector-curvature="0"
       sodipodi:nodetypes="zszszszszszszszsz" />
    <path
       sodipodi:nodetypes="sssssssssssssssss"
       inkscape:connector-curvature="0"
       id="path2251"
       d="m 24.589645,282.07122 c -0.26301,0.98161 -1.60983,1.15394 -2.17721,1.92646 -0.63214,0.86072 -0.51654,2.29345 -1.41736,2.83161 -0.86684,0.51787 -1.99673,-0.27613 -3.00788,-0.11725 -1.06231,0.16694 -2.01071,1.26658 -3.11633,0.97033 -1.06704,-0.2859 -1.308,-1.68703 -2.12551,-2.32832 -0.82491,-0.64708 -2.22381,-0.53704 -2.73157,-1.43673 -0.4967498,-0.88016 0.32058,-2.02019 0.18734,-3.03819 -0.13106,-1.00141 -1.2190498,-1.87938 -0.9414098,-2.91556 0.2847,-1.06252 1.6828998,-1.2999 2.3201998,-2.11513 0.65311,-0.83547 0.55286,-2.24179 1.46413,-2.75278 0.83342,-0.46734 1.91634,0.36187 2.87481,0.2184 1.04521,-0.15647 1.97367,-1.25261 3.05965,-0.96162 1.09629,0.29375 1.36045,1.71409 2.19245,2.38142 0.81466,0.65341 2.20331,0.54727 2.70112,1.449 0.45997,0.8331 -0.37588,1.91426 -0.23798,2.87003 0.14901,1.03269 1.24271,1.94666 0.95555,3.01833 z"
       style="opacity:1;vector-effect:none;fill:#565147;fill-opacity:1;stroke:none;stroke-width:0.57470572;stroke-linecap:round;stroke-linejoin:round;stroke-miterlimit:4;stroke-dasharray:none;stroke-dashoffset:0;stroke-opacity:1" />
  </g>
</svg>
