<?xml version="1.0" encoding="UTF-8" standalone="no"?>
<!-- Created with Inkscape (http://www.inkscape.org/) -->

<svg
   xmlns:dc="http://purl.org/dc/elements/1.1/"
   xmlns:cc="http://creativecommons.org/ns#"
   xmlns:rdf="http://www.w3.org/1999/02/22-rdf-syntax-ns#"
   xmlns:svg="http://www.w3.org/2000/svg"
   xmlns="http://www.w3.org/2000/svg"
   xmlns:xlink="http://www.w3.org/1999/xlink"
   xmlns:sodipodi="http://sodipodi.sourceforge.net/DTD/sodipodi-0.dtd"
   xmlns:inkscape="http://www.inkscape.org/namespaces/inkscape"
   width="80"
   height="80"
   viewBox="0 0 21.166666 21.166666"
   version="1.1"
   id="svg8"
   inkscape:version="0.92.4 (f8dce91, 2019-08-02)"
   sodipodi:docname="dried-tomato.svg">
  <defs
     id="defs2" />
  <sodipodi:namedview
     id="base"
     pagecolor="#284b36"
     bordercolor="#666666"
     borderopacity="1.0"
     inkscape:pageopacity="0"
     inkscape:pageshadow="2"
     inkscape:zoom="5.6"
     inkscape:cx="-11.5086"
     inkscape:cy="37.254006"
     inkscape:document-units="mm"
     inkscape:current-layer="layer1"
     showgrid="false"
     units="px"
     inkscape:window-width="1850"
     inkscape:window-height="1016"
     inkscape:window-x="70"
     inkscape:window-y="27"
     inkscape:window-maximized="1" />
  <metadata
     id="metadata5">
    <rdf:RDF>
      <cc:Work
         rdf:about="">
        <dc:format>image/svg+xml</dc:format>
        <dc:type
           rdf:resource="http://purl.org/dc/dcmitype/StillImage" />
        <dc:title />
      </cc:Work>
    </rdf:RDF>
  </metadata>
  <g
     inkscape:label="Layer 1"
     inkscape:groupmode="layer"
     id="layer1"
     transform="translate(0,-275.83333)">
    <g
       id="g7676"
       style="opacity:0.2;stroke-width:1.79999995;stroke-miterlimit:4;stroke-dasharray:none">
      <g
         id="g7680"
         style="display:none">
        <path
           sodipodi:type="inkscape:offset"
           inkscape:radius="0"
           inkscape:original="M -8.7324219 279.26953 C -16.284019 279.26953 -16.678783 291.21055 -9.1289062 290.08203 C -0.77962023 291.79465 -1.1807799 279.26953 -8.7324219 279.26953 z "
           xlink:href="#path3285-0"
           style="opacity:1;vector-effect:none;fill:#bd1935;fill-opacity:1;stroke:#000000;stroke-width:1.79999995;stroke-linecap:butt;stroke-linejoin:miter;stroke-miterlimit:4;stroke-dasharray:none;stroke-dashoffset:0;stroke-opacity:1"
           id="path7672"
           inkscape:href="#path3285-0"
           d="m 11.113281,281.375 c -7.5515963,0 -7.9483137,11.94102 -0.398437,10.8125 8.349286,1.71262 7.950079,-10.8125 0.398437,-10.8125 z"
           transform="translate(19.315596,2.6339142)" />
        <path
           sodipodi:type="inkscape:offset"
           inkscape:radius="0"
           inkscape:original="M 11.517578 277.99805 L 9.90625 278.01953 C 10.298522 278.78913 10.518201 280.28923 10.521484 281.0625 C 6.1670013 281.1143 6.5244116 283.99703 4.2597656 284.75391 C 7.3520321 285.27563 7.6516697 282.34599 10.261719 282.71289 C 9.0997573 285.34346 11.116778 286.5644 11.345703 287.72461 C 11.689035 286.55806 10.191025 284.83131 12.166016 282.72656 C 15.002844 282.61257 15.725623 285.83691 17.917969 285.08203 C 15.896099 284.09047 16.218669 280.99582 12.021484 280.94922 C 12.016884 280.2351 11.8832 278.73413 11.517578 277.99805 z "
           xlink:href="#path7649"
           style="fill:#007f3a;fill-opacity:1;stroke:#000000;stroke-width:1.79999995;stroke-linecap:round;stroke-linejoin:round;stroke-miterlimit:4;stroke-dasharray:none;stroke-opacity:1"
           id="path7670"
           inkscape:href="#path7649"
           d="m 11.517578,278.52734 -1.611328,0.0215 c 0.392272,0.7696 0.611951,2.2697 0.615234,3.04297 -3.4331657,-0.16078 -3.2174965,2.32031 -6.2617184,3.6914 3.9663364,0.35636 3.4583107,-2.00752 6.0683594,-1.64062 -1.161961,2.63057 0.788653,3.45112 1.017578,4.61133 0.343332,-1.16655 -0.98671,-2.45971 0.988281,-4.56446 2.033629,-0.0195 2.423075,2.34603 5.583985,1.92188 -2.825069,-1.10968 -2.57337,-4.06259 -5.896485,-4.13281 -0.0046,-0.71412 -0.138284,-2.2151 -0.503906,-2.95118 z"
           transform="translate(-0.52916667,0.52916667)" />
      </g>
    </g>
    <path
       style="opacity:1;vector-effect:none;fill:#bd1935;fill-opacity:1;stroke:#000000;stroke-width:0.69999999;stroke-linecap:butt;stroke-linejoin:miter;stroke-miterlimit:4;stroke-dasharray:none;stroke-dashoffset:0;stroke-opacity:1"
       d="m -9.1291103,290.08179 c -7.5498767,1.12852 -7.1547927,-10.81163 0.396804,-10.81163 7.551642,0 7.95248202,12.52425 -0.396804,10.81163 z"
       id="path3285-0"
       inkscape:connector-curvature="0"
       sodipodi:nodetypes="czc" />
    <path
       style="opacity:0.80699978;fill:#fffdfd;fill-opacity:1;stroke:none;stroke-width:0.38922897;stroke-linecap:butt;stroke-linejoin:miter;stroke-miterlimit:4;stroke-dasharray:none;stroke-opacity:1"
       d="m -4.9989913,287.00354 c 0.555789,0.50959 -0.967782,1.58914 -2.354048,2.00171 -1.386267,0.41256 -3.3394947,-0.31395 -3.2481897,-0.61973 0.0913,-0.30579 1.7256427,0.25234 3.0108677,-0.13603 1.28523,-0.38837 2.035579,-1.75556 2.59137,-1.24595 z"
       id="path3287-2"
       inkscape:connector-curvature="0"
       sodipodi:nodetypes="zzzzz" />
    <path
       style="fill:#007f3a;fill-opacity:1;stroke:#000000;stroke-width:0.69999999;stroke-linecap:round;stroke-linejoin:round;stroke-miterlimit:4;stroke-dasharray:none;stroke-opacity:1"
       d="m -9.5835843,280.60776 c -1.1619617,2.63057 0.85547,3.85202 1.084395,5.01223 0.343332,-1.16655 -1.153752,-2.89402 0.821239,-4.99877 2.836828,-0.11399 3.558681,3.11107 5.751027,2.35619 -2.02187,-0.99156 -1.698897,-4.08606 -5.896082,-4.13266 -0.0046,-0.71412 -0.138687,-2.21525 -0.504309,-2.95133 l -1.6115853,0.021 c 0.3922723,0.7696 0.6132593,2.26941 0.6165423,3.04268 -4.3544827,0.0518 -3.9981237,2.9353 -6.2627697,3.69218 3.092267,0.52172 3.391494,-2.40842 6.0015427,-2.04152 z"
       id="path7649"
       inkscape:connector-curvature="0"
       sodipodi:nodetypes="cccccccccc" />
    <path
       style="opacity:1;vector-effect:none;fill:#bd1935;fill-opacity:1;stroke:#000000;stroke-width:0.78095466;stroke-linecap:butt;stroke-linejoin:bevel;stroke-miterlimit:4;stroke-dasharray:none;stroke-dashoffset:0;stroke-opacity:1"
       d="m 15.058368,285.22344 c 3e-6,3.53339 -3.983618,6.39777 -5.9255666,6.39777 -1.9419488,0 -5.9255707,-2.86438 -5.9255677,-6.39777 2.1e-6,-3.53339 3.9836225,-6.39776 5.9255677,-6.39776 1.9419456,0 5.9255646,2.86437 5.9255666,6.39776 z"
       id="path7183"
       inkscape:connector-curvature="0"
       sodipodi:nodetypes="szszs" />
    <ellipse
       style="opacity:1;vector-effect:none;fill:#bd7e19;fill-opacity:1;stroke:none;stroke-width:0.88547498;stroke-linecap:butt;stroke-linejoin:bevel;stroke-miterlimit:4;stroke-dasharray:none;stroke-dashoffset:0;stroke-opacity:1"
       id="path7188"
       cx="9.0940151"
       cy="282.72614"
       rx="0.34305909"
       ry="2.5307081" />
    <path
       style="fill:#a1162d;fill-opacity:1;stroke:none;stroke-width:0.29518226px;stroke-linecap:butt;stroke-linejoin:miter;stroke-opacity:1"
       d="m 4.3923476,285.37377 c 0,-2.27179 2.7236818,-4.97789 3.3058428,-4.76074 0.582161,0.21716 0,3.34087 0,4.76074 0,1.41987 0.8108671,4.42665 0.1871232,4.67721 -0.6237438,0.25057 -3.492966,-1.98781 -3.492966,-4.67721 z"
       id="path7190"
       inkscape:connector-curvature="0"
       sodipodi:nodetypes="scscs" />
    <path
       sodipodi:nodetypes="scscs"
       inkscape:connector-curvature="0"
       id="path7207"
       d="m 13.972452,285.46826 c 0,-2.27179 -2.723681,-4.97789 -3.305842,-4.76074 -0.582161,0.21716 0,3.34087 0,4.76074 0,1.41987 -0.8108671,4.42665 -0.187123,4.67721 0.623744,0.25057 3.492965,-1.98781 3.492965,-4.67721 z"
       style="fill:#a1162d;fill-opacity:1;stroke:none;stroke-width:0.29518226px;stroke-linecap:butt;stroke-linejoin:miter;stroke-opacity:1" />
    <path
       style="opacity:0.59200003;fill:#bd7e19;fill-opacity:1;stroke:none;stroke-width:0.44458133px;stroke-linecap:butt;stroke-linejoin:miter;stroke-opacity:1"
       d="m 6.3191213,282.89414 c -0.2327221,0.54993 1.03338,0.45286 1.1273232,0.30191 0.093944,-0.15095 -0.8276181,-1.01012 -1.1273232,-0.30191 z"
       id="path7209"
       inkscape:connector-curvature="0"
       sodipodi:nodetypes="scs" />
    <path
       sodipodi:nodetypes="scs"
       inkscape:connector-curvature="0"
       id="path7213"
       d="m 6.5063532,288.57861 c 0.2386373,0.54829 1.1611667,-0.15513 1.1193369,-0.32052 -0.041829,-0.16539 -1.4266575,-0.38558 -1.1193369,0.32052 z"
       style="opacity:0.59200003;fill:#bd7e19;fill-opacity:1;stroke:none;stroke-width:0.44458133px;stroke-linecap:butt;stroke-linejoin:miter;stroke-opacity:1" />
    <path
       style="opacity:0.59200003;fill:#bd7e19;fill-opacity:1;stroke:none;stroke-width:0.44458133px;stroke-linecap:butt;stroke-linejoin:miter;stroke-opacity:1"
       d="m 5.9789591,284.69594 c -0.1107461,0.57399 1.1153374,0.30234 1.1753534,0.14058 0.060012,-0.16173 -1.0327184,-0.8798 -1.1753534,-0.14058 z"
       id="path7215"
       inkscape:connector-curvature="0"
       sodipodi:nodetypes="scs"
       inkscape:transform-center-x="-0.16633173"
       inkscape:transform-center-y="0.11693041" />
    <path
       sodipodi:nodetypes="scs"
       inkscape:connector-curvature="0"
       id="path7217"
       d="m 6.0947139,286.7384 c 0.1955625,0.5592 1.1709557,-0.0966 1.142055,-0.26376 -0.028889,-0.16716 -1.393904,-0.4564 -1.142055,0.26376 z"
       style="opacity:0.59200003;fill:#bd7e19;fill-opacity:1;stroke:none;stroke-width:0.44458133px;stroke-linecap:butt;stroke-linejoin:miter;stroke-opacity:1"
       inkscape:transform-center-x="-0.05606344"
       inkscape:transform-center-y="0.030299619" />
    <path
       sodipodi:nodetypes="scs"
       inkscape:connector-curvature="0"
       id="path7219"
       d="m 12.103456,282.96096 c 0.232722,0.54993 -1.033381,0.45286 -1.127324,0.30191 -0.09394,-0.15095 0.827619,-1.01012 1.127324,-0.30191 z"
       style="opacity:0.59200003;fill:#bd7e19;fill-opacity:1;stroke:none;stroke-width:0.44458133px;stroke-linecap:butt;stroke-linejoin:miter;stroke-opacity:1" />
    <path
       style="opacity:0.59200003;fill:#bd7e19;fill-opacity:1;stroke:none;stroke-width:0.44458133px;stroke-linecap:butt;stroke-linejoin:miter;stroke-opacity:1"
       d="m 11.916224,288.64543 c -0.238638,0.54829 -1.161167,-0.15513 -1.119337,-0.32052 0.04183,-0.16539 1.426658,-0.38558 1.119337,0.32052 z"
       id="path7221"
       inkscape:connector-curvature="0"
       sodipodi:nodetypes="scs" />
    <path
       inkscape:transform-center-y="0.11693041"
       inkscape:transform-center-x="0.1663318"
       sodipodi:nodetypes="scs"
       inkscape:connector-curvature="0"
       id="path7223"
       d="m 12.443618,284.76276 c 0.110751,0.57399 -1.115338,0.30234 -1.175354,0.14058 -0.06001,-0.16173 1.032719,-0.8798 1.175354,-0.14058 z"
       style="opacity:0.59200003;fill:#bd7e19;fill-opacity:1;stroke:none;stroke-width:0.44458133px;stroke-linecap:butt;stroke-linejoin:miter;stroke-opacity:1" />
    <path
       inkscape:transform-center-y="0.030299619"
       inkscape:transform-center-x="0.056063495"
       style="opacity:0.59200003;fill:#bd7e19;fill-opacity:1;stroke:none;stroke-width:0.44458133px;stroke-linecap:butt;stroke-linejoin:miter;stroke-opacity:1"
       d="m 12.327863,286.80522 c -0.195563,0.5592 -1.170956,-0.0966 -1.142055,-0.26376 0.02889,-0.16716 1.393904,-0.4564 1.142055,0.26376 z"
       id="path7225"
       inkscape:connector-curvature="0"
       sodipodi:nodetypes="scs" />
  </g>
</svg>
