<?xml version="1.0" encoding="UTF-8" standalone="no"?>
<!-- Created with Inkscape (http://www.inkscape.org/) -->

<svg
   xmlns:dc="http://purl.org/dc/elements/1.1/"
   xmlns:cc="http://creativecommons.org/ns#"
   xmlns:rdf="http://www.w3.org/1999/02/22-rdf-syntax-ns#"
   xmlns:svg="http://www.w3.org/2000/svg"
   xmlns="http://www.w3.org/2000/svg"
   xmlns:xlink="http://www.w3.org/1999/xlink"
   xmlns:sodipodi="http://sodipodi.sourceforge.net/DTD/sodipodi-0.dtd"
   xmlns:inkscape="http://www.inkscape.org/namespaces/inkscape"
   width="80"
   height="80"
   viewBox="0 0 21.166666 21.166666"
   version="1.1"
   id="svg8"
   inkscape:version="0.92.4 (f8dce91, 2019-08-02)"
   sodipodi:docname="dried-tomato.svg">
  <defs
     id="defs2" />
  <sodipodi:namedview
     id="base"
     pagecolor="#284b36"
     bordercolor="#666666"
     borderopacity="1.0"
     inkscape:pageopacity="0"
     inkscape:pageshadow="2"
     inkscape:zoom="7.9195959"
     inkscape:cx="26.314258"
     inkscape:cy="29.770135"
     inkscape:document-units="mm"
     inkscape:current-layer="layer1"
     showgrid="false"
     units="px"
     inkscape:window-width="1850"
     inkscape:window-height="1016"
     inkscape:window-x="70"
     inkscape:window-y="27"
     inkscape:window-maximized="1" />
  <metadata
     id="metadata5">
    <rdf:RDF>
      <cc:Work
         rdf:about="">
        <dc:format>image/svg+xml</dc:format>
        <dc:type
           rdf:resource="http://purl.org/dc/dcmitype/StillImage" />
        <dc:title />
      </cc:Work>
    </rdf:RDF>
  </metadata>
  <g
     inkscape:label="Layer 1"
     inkscape:groupmode="layer"
     id="layer1"
     transform="translate(0,-275.83333)">
    <g
       id="g7676"
       style="opacity:0.2;stroke-width:1.79999995;stroke-miterlimit:4;stroke-dasharray:none">
      <g
         id="g7680"
         style="display:none">
        <path
           sodipodi:type="inkscape:offset"
           inkscape:radius="0"
           inkscape:original="M -8.7324219 279.26953 C -16.284019 279.26953 -16.678783 291.21055 -9.1289062 290.08203 C -0.77962023 291.79465 -1.1807799 279.26953 -8.7324219 279.26953 z "
           xlink:href="#path3285-0"
           style="opacity:1;vector-effect:none;fill:#bd1935;fill-opacity:1;stroke:#000000;stroke-width:1.79999995;stroke-linecap:butt;stroke-linejoin:miter;stroke-miterlimit:4;stroke-dasharray:none;stroke-dashoffset:0;stroke-opacity:1"
           id="path7672"
           inkscape:href="#path3285-0"
           d="m 11.113281,281.375 c -7.5515963,0 -7.9483137,11.94102 -0.398437,10.8125 8.349286,1.71262 7.950079,-10.8125 0.398437,-10.8125 z"
           transform="translate(19.315596,2.6339142)" />
        <path
           sodipodi:type="inkscape:offset"
           inkscape:radius="0"
           inkscape:original="M -8.328125 275.89258 L -9.9394531 275.91406 C -9.5471808 276.68366 -9.3255486 278.18376 -9.3222656 278.95703 C -13.676748 279.00883 -13.321292 281.89156 -15.585938 282.64844 C -12.493671 283.17016 -12.194033 280.24052 -9.5839844 280.60742 C -10.745946 283.23799 -8.728925 284.45893 -8.5 285.61914 C -8.156668 284.45259 -9.6527254 282.72584 -7.6777344 280.62109 C -4.8409064 280.5071 -4.1200804 283.73144 -1.9277344 282.97656 C -3.9496044 281.985 -3.6250806 278.8923 -7.8222656 278.8457 C -7.8268656 278.13158 -7.962503 276.62866 -8.328125 275.89258 z "
           xlink:href="#path7649"
           style="fill:#007f3a;fill-opacity:1;stroke:#000000;stroke-width:1.79999995;stroke-linecap:round;stroke-linejoin:round;stroke-miterlimit:4;stroke-dasharray:none;stroke-opacity:1"
           id="path7670"
           inkscape:href="#path7649"
           d="m 11.517578,278.52734 -1.611328,0.0215 c 0.392272,0.7696 0.611951,2.2697 0.615234,3.04297 -3.4331657,-0.16078 -3.2174965,2.32031 -6.2617184,3.6914 3.9663364,0.35636 3.4583107,-2.00752 6.0683594,-1.64062 -1.161961,2.63057 0.788653,3.45112 1.017578,4.61133 0.343332,-1.16655 -0.98671,-2.45971 0.988281,-4.56446 2.033629,-0.0195 2.423075,2.34603 5.583985,1.92188 -2.825069,-1.10968 -2.57337,-4.06259 -5.896485,-4.13281 -0.0046,-0.71412 -0.138284,-2.2151 -0.503906,-2.95118 z"
           transform="translate(-0.52916667,0.52916667)" />
      </g>
    </g>
    <path
       style="opacity:1;vector-effect:none;fill:#bd1935;fill-opacity:1;stroke:#000000;stroke-width:0.69999999;stroke-linecap:butt;stroke-linejoin:miter;stroke-miterlimit:4;stroke-dasharray:none;stroke-dashoffset:0;stroke-opacity:1"
       d="m -9.1291103,290.08179 c -7.5498767,1.12852 -7.1547927,-10.81163 0.396804,-10.81163 7.551642,0 7.95248202,12.52425 -0.396804,10.81163 z"
       id="path3285-0"
       inkscape:connector-curvature="0"
       sodipodi:nodetypes="czc" />
    <path
       style="opacity:0.80699978;fill:#fffdfd;fill-opacity:1;stroke:none;stroke-width:0.38922897;stroke-linecap:butt;stroke-linejoin:miter;stroke-miterlimit:4;stroke-dasharray:none;stroke-opacity:1"
       d="m -4.9989913,287.00354 c 0.555789,0.50959 -0.967782,1.58914 -2.354048,2.00171 -1.386267,0.41256 -3.3394947,-0.31395 -3.2481897,-0.61973 0.0913,-0.30579 1.7256427,0.25234 3.0108677,-0.13603 1.28523,-0.38837 2.035579,-1.75556 2.59137,-1.24595 z"
       id="path3287-2"
       inkscape:connector-curvature="0"
       sodipodi:nodetypes="zzzzz" />
    <path
       style="fill:#007f3a;fill-opacity:1;stroke:#000000;stroke-width:0.69999999;stroke-linecap:round;stroke-linejoin:round;stroke-miterlimit:4;stroke-dasharray:none;stroke-opacity:1"
       d="m -9.5835843,280.60776 c -1.1619617,2.63057 0.85547,3.85202 1.084395,5.01223 0.343332,-1.16655 -1.153752,-2.89402 0.821239,-4.99877 2.836828,-0.11399 3.558681,3.11107 5.751027,2.35619 -2.02187,-0.99156 -1.698897,-4.08606 -5.896082,-4.13266 -0.0046,-0.71412 -0.138687,-2.21525 -0.504309,-2.95133 l -1.6115853,0.021 c 0.3922723,0.7696 0.6132593,2.26941 0.6165423,3.04268 -4.3544827,0.0518 -3.9981237,2.9353 -6.2627697,3.69218 3.092267,0.52172 3.391494,-2.40842 6.0015427,-2.04152 z"
       id="path7649"
       inkscape:connector-curvature="0"
       sodipodi:nodetypes="cccccccccc" />
    <path
       style="opacity:1;vector-effect:none;fill:#bd1935;fill-opacity:1;stroke:#000000;stroke-width:0.7;stroke-linecap:butt;stroke-linejoin:bevel;stroke-miterlimit:4;stroke-dasharray:none;stroke-dashoffset:0;stroke-opacity:1"
       d="m 11.698295,283.36021 c 2e-6,2.56354 -2.8901962,4.64171 -4.2991194,4.64171 -1.4089234,0 -4.2991221,-2.07817 -4.29912,-4.64171 1.5e-6,-2.56355 2.8901992,-4.64171 4.29912,-4.64171 1.4089211,0 4.2991174,2.07816 4.2991194,4.64171 z"
       id="path7183"
       inkscape:connector-curvature="0"
       sodipodi:nodetypes="szszs" />
    <path
       style="opacity:1;vector-effect:none;fill:#bd7e19;fill-opacity:1;stroke:none;stroke-width:1.05108583;stroke-linecap:butt;stroke-linejoin:bevel;stroke-miterlimit:4;stroke-dasharray:none;stroke-dashoffset:0;stroke-opacity:1"
       d="m 7.7553445,283.37343 c 0,1.94169 0.020746,3.51574 -0.3479514,3.51574 -0.3686973,0 -0.3479513,-1.57405 -0.3479513,-3.51574 0,-1.94168 -0.020747,-3.51574 0.3479513,-3.51574 0.3686974,0 0.3479514,1.57406 0.3479514,3.51574 z"
       id="path7188"
       inkscape:connector-curvature="0"
       sodipodi:nodetypes="zzzzz" />
    <path
       style="fill:#a1162d;fill-opacity:1;stroke:none;stroke-width:0.21416073px;stroke-linecap:butt;stroke-linejoin:miter;stroke-opacity:1"
       d="m 3.9598799,283.46927 c 0,-1.64822 1.9760865,-3.61156 2.3984562,-3.45401 0.4223696,0.15756 0,2.42387 0,3.45401 0,1.03015 0.5883006,3.21163 0.1357617,3.39341 -0.4525388,0.1818 -2.5342179,-1.44219 -2.5342179,-3.39341 z"
       id="path7190"
       inkscape:connector-curvature="0"
       sodipodi:nodetypes="scscs" />
    <path
       sodipodi:nodetypes="scscs"
       inkscape:connector-curvature="0"
       id="path7207"
       d="m 10.826919,283.48772 c 0,-1.64823 -1.9760861,-3.61156 -2.3984558,-3.45401 -0.4223696,0.15755 0,2.42386 0,3.45401 0,1.03014 -0.5883005,3.21163 -0.1357615,3.39341 0.452539,0.18179 2.5342173,-1.4422 2.5342173,-3.39341 z"
       style="fill:#a1162d;fill-opacity:1;stroke:none;stroke-width:0.21416073px;stroke-linecap:butt;stroke-linejoin:miter;stroke-opacity:1" />
    <path
       style="opacity:0.59200003;fill:#bd7e19;fill-opacity:1;stroke:none;stroke-width:0.3225528px;stroke-linecap:butt;stroke-linejoin:miter;stroke-opacity:1"
       d="m 5.3577934,281.67026 c -0.1688447,0.39898 0.7497382,0.32855 0.8178959,0.21904 0.068158,-0.10952 -0.6004538,-0.73287 -0.8178959,-0.21904 z"
       id="path7209"
       inkscape:connector-curvature="0"
       sodipodi:nodetypes="scs" />
    <path
       sodipodi:nodetypes="scs"
       inkscape:connector-curvature="0"
       id="path7213"
       d="m 5.493634,285.79445 c 0.1731362,0.3978 0.84245,-0.11255 0.8121017,-0.23254 -0.030348,-0.12 -1.0350691,-0.27975 -0.8121017,0.23254 z"
       style="opacity:0.59200003;fill:#bd7e19;fill-opacity:1;stroke:none;stroke-width:0.3225528px;stroke-linecap:butt;stroke-linejoin:miter;stroke-opacity:1" />
    <path
       style="opacity:0.59200003;fill:#bd7e19;fill-opacity:1;stroke:none;stroke-width:0.3225528px;stroke-linecap:butt;stroke-linejoin:miter;stroke-opacity:1"
       d="m 5.1109988,282.9775 c -0.080349,0.41643 0.8092,0.21935 0.8527429,0.10198 0.04354,-0.11733 -0.7492583,-0.6383 -0.8527429,-0.10198 z"
       id="path7215"
       inkscape:connector-curvature="0"
       sodipodi:nodetypes="scs"
       inkscape:transform-center-x="-0.12067707"
       inkscape:transform-center-y="0.084836219" />
    <path
       sodipodi:nodetypes="scs"
       inkscape:connector-curvature="0"
       id="path7217"
       d="m 5.1949813,284.45934 c 0.1418845,0.40571 0.8495522,-0.0701 0.8285842,-0.19136 -0.020959,-0.12128 -1.0113058,-0.33113 -0.8285842,0.19136 z"
       style="opacity:0.59200003;fill:#bd7e19;fill-opacity:1;stroke:none;stroke-width:0.3225528px;stroke-linecap:butt;stroke-linejoin:miter;stroke-opacity:1"
       inkscape:transform-center-x="-0.040675222"
       inkscape:transform-center-y="0.021981204" />
    <path
       sodipodi:nodetypes="scs"
       inkscape:connector-curvature="0"
       id="path7219"
       d="m 9.5544457,281.71873 c 0.1688453,0.39899 -0.7497387,0.32856 -0.8178962,0.21904 -0.068156,-0.10952 0.6004541,-0.73286 0.8178962,-0.21904 z"
       style="opacity:0.59200003;fill:#bd7e19;fill-opacity:1;stroke:none;stroke-width:0.3225528px;stroke-linecap:butt;stroke-linejoin:miter;stroke-opacity:1" />
    <path
       style="opacity:0.59200003;fill:#bd7e19;fill-opacity:1;stroke:none;stroke-width:0.3225528px;stroke-linecap:butt;stroke-linejoin:miter;stroke-opacity:1"
       d="m 9.4186049,285.84293 c -0.1731364,0.3978 -0.8424498,-0.11255 -0.8121013,-0.23255 0.030349,-0.11999 1.0350695,-0.27974 0.8121013,0.23255 z"
       id="path7221"
       inkscape:connector-curvature="0"
       sodipodi:nodetypes="scs" />
    <path
       inkscape:transform-center-y="0.084835236"
       inkscape:transform-center-x="0.12067738"
       sodipodi:nodetypes="scs"
       inkscape:connector-curvature="0"
       id="path7223"
       d="m 9.7498217,283.16309 c 0.080351,0.41644 -0.8092,0.21936 -0.8527429,0.10199 -0.043539,-0.11734 0.7492588,-0.63831 0.8527429,-0.10199 z"
       style="opacity:0.59200003;fill:#bd7e19;fill-opacity:1;stroke:none;stroke-width:0.3225528px;stroke-linecap:butt;stroke-linejoin:miter;stroke-opacity:1" />
    <path
       inkscape:transform-center-y="0.021981216"
       inkscape:transform-center-x="0.040675311"
       style="opacity:0.59200003;fill:#bd7e19;fill-opacity:1;stroke:none;stroke-width:0.3225528px;stroke-linecap:butt;stroke-linejoin:miter;stroke-opacity:1"
       d="m 9.7172577,284.50782 c -0.1418847,0.40571 -0.8495523,-0.0701 -0.8285841,-0.19137 0.02096,-0.12127 1.0113055,-0.33112 0.8285841,0.19137 z"
       id="path7225"
       inkscape:connector-curvature="0"
       sodipodi:nodetypes="scs" />
    <path
       sodipodi:nodetypes="szszs"
       inkscape:connector-curvature="0"
       id="path980"
       d="m 16.475099,290.99424 c -1.318548,2.19845 -4.866032,2.49408 -6.074299,1.76941 -1.2082666,-0.72468 -2.6179477,-3.99345 -1.2993958,-6.19189 1.3185568,-2.19845 4.8660338,-2.49408 6.0742988,-1.76941 1.208265,0.72468 2.61795,3.99344 1.299396,6.19189 z"
       style="opacity:1;vector-effect:none;fill:#bd1935;fill-opacity:1;stroke:#000000;stroke-width:0.69999999;stroke-linecap:butt;stroke-linejoin:bevel;stroke-miterlimit:4;stroke-dasharray:none;stroke-dashoffset:0;stroke-opacity:1" />
    <path
       sodipodi:nodetypes="zzzzz"
       inkscape:connector-curvature="0"
       id="path982"
       d="m 13.086896,288.97753 c -0.998703,1.66516 -1.790517,3.02571 -2.106708,2.83607 -0.316189,-0.18964 0.511211,-1.52885 1.509914,-3.194 0.998698,-1.66515 1.790517,-3.02571 2.106709,-2.83607 0.316188,0.18964 -0.511217,1.52885 -1.509915,3.194 z"
       style="opacity:1;vector-effect:none;fill:#bd7e19;fill-opacity:1;stroke:none;stroke-width:1.05108583;stroke-linecap:butt;stroke-linejoin:bevel;stroke-miterlimit:4;stroke-dasharray:none;stroke-dashoffset:0;stroke-opacity:1" />
    <path
       sodipodi:nodetypes="scscs"
       inkscape:connector-curvature="0"
       id="path984"
       d="m 9.7826791,287.10754 c 0.8477579,-1.41349 3.5522529,-2.08082 3.8334339,-1.72846 0.281176,0.35236 -1.246711,2.07867 -1.776561,2.9621 -0.529855,0.88343 -1.147378,3.05682 -1.628965,2.97995 -0.4815969,-0.0768 -1.4315126,-2.54026 -0.4279079,-4.21359 z"
       style="fill:#a1162d;fill-opacity:1;stroke:none;stroke-width:0.21416073px;stroke-linecap:butt;stroke-linejoin:miter;stroke-opacity:1" />
    <path
       style="fill:#a1162d;fill-opacity:1;stroke:none;stroke-width:0.21416073px;stroke-linecap:butt;stroke-linejoin:miter;stroke-opacity:1"
       d="m 15.662238,290.6554 c 0.847763,-1.41349 0.16294,-4.1136 -0.280311,-4.19573 -0.443252,-0.0821 -1.246706,2.07865 -1.776561,2.96209 -0.52985,0.88343 -2.15641,2.45165 -1.861819,2.8403 0.294586,0.38866 2.915092,0.0667 3.918691,-1.60666 z"
       id="path986"
       inkscape:connector-curvature="0"
       sodipodi:nodetypes="scscs" />
    <path
       sodipodi:nodetypes="scs"
       inkscape:connector-curvature="0"
       id="path988"
       d="m 11.906821,286.28375 c -0.350013,0.25531 0.473973,0.66738 0.58875,0.60853 0.114784,-0.0589 -0.137989,-0.93734 -0.58875,-0.60853 z"
       style="opacity:0.59200003;fill:#bd7e19;fill-opacity:1;stroke:none;stroke-width:0.3225528px;stroke-linecap:butt;stroke-linejoin:miter;stroke-opacity:1" />
    <path
       style="opacity:0.59200003;fill:#bd7e19;fill-opacity:1;stroke:none;stroke-width:0.3225528px;stroke-linecap:butt;stroke-linejoin:miter;stroke-opacity:1"
       d="m 9.9020491,289.89045 c -0.05613,0.4302 0.7803599,0.33679 0.8160499,0.21828 0.03569,-0.11852 -0.7437679,-0.77229 -0.8160499,-0.21828 z"
       id="path990"
       inkscape:connector-curvature="0"
       sodipodi:nodetypes="scs" />
    <path
       inkscape:transform-center-y="0.12502964"
       inkscape:transform-center-x="-0.017798532"
       sodipodi:nodetypes="scs"
       inkscape:connector-curvature="0"
       id="path992"
       d="m 11.022798,287.27788 c -0.283095,0.31579 0.581133,0.60432 0.678844,0.52606 0.09769,-0.0782 -0.314242,-0.93277 -0.678844,-0.52606 z"
       style="opacity:0.59200003;fill:#bd7e19;fill-opacity:1;stroke:none;stroke-width:0.3225528px;stroke-linecap:butt;stroke-linejoin:miter;stroke-opacity:1" />
    <path
       inkscape:transform-center-y="-0.024340594"
       inkscape:transform-center-x="-0.034701418"
       style="opacity:0.59200003;fill:#bd7e19;fill-opacity:1;stroke:none;stroke-width:0.3225528px;stroke-linecap:butt;stroke-linejoin:miter;stroke-opacity:1"
       d="m 10.33264,288.59187 c -0.087,0.42091 0.764616,0.37685 0.809004,0.26208 0.04441,-0.11479 -0.696961,-0.80414 -0.809004,-0.26208 z"
       id="path994"
       inkscape:connector-curvature="0"
       sodipodi:nodetypes="scs" />
    <path
       style="opacity:0.59200003;fill:#bd7e19;fill-opacity:1;stroke:none;stroke-width:0.3225528px;stroke-linecap:butt;stroke-linejoin:miter;stroke-opacity:1"
       d="m 15.480863,288.48385 c -0.06042,0.42902 -0.811956,-0.10385 -0.814075,-0.23283 -0.0021,-0.12898 0.891883,-0.31965 0.814075,0.23283 z"
       id="path996"
       inkscape:connector-curvature="0"
       sodipodi:nodetypes="scs" />
    <path
       sodipodi:nodetypes="scs"
       inkscape:connector-curvature="0"
       id="path998"
       d="m 13.243097,291.95082 c -0.353086,0.2521 -0.664579,-0.52983 -0.576832,-0.61713 0.08774,-0.0873 1.031541,0.29249 0.576832,0.61713 z"
       style="opacity:0.59200003;fill:#bd7e19;fill-opacity:1;stroke:none;stroke-width:0.3225528px;stroke-linecap:butt;stroke-linejoin:miter;stroke-opacity:1" />
    <path
       style="opacity:0.59200003;fill:#bd7e19;fill-opacity:1;stroke:none;stroke-width:0.3225528px;stroke-linecap:butt;stroke-linejoin:miter;stroke-opacity:1"
       d="m 14.905511,289.823 c -0.145288,0.39846 -0.806782,-0.22809 -0.783755,-0.35114 0.02301,-0.12302 0.970864,-0.16202 0.783755,0.35114 z"
       id="path1000"
       inkscape:connector-curvature="0"
       sodipodi:nodetypes="scs"
       inkscape:transform-center-x="0.1591167"
       inkscape:transform-center-y="0.07353956" />
    <path
       sodipodi:nodetypes="scs"
       inkscape:connector-curvature="0"
       id="path1002"
       d="m 14.185927,290.95947 c -0.330353,0.27495 -0.692505,-0.49708 -0.612148,-0.5903 0.08035,-0.0932 1.037588,0.2362 0.612148,0.5903 z"
       style="opacity:0.59200003;fill:#bd7e19;fill-opacity:1;stroke:none;stroke-width:0.3225528px;stroke-linecap:butt;stroke-linejoin:miter;stroke-opacity:1"
       inkscape:transform-center-x="0.0031966219"
       inkscape:transform-center-y="0.0073009717" />
  </g>
</svg>
