<?xml version="1.0" encoding="UTF-8" standalone="no"?>
<!-- Created with Inkscape (http://www.inkscape.org/) -->

<svg
   xmlns:dc="http://purl.org/dc/elements/1.1/"
   xmlns:cc="http://creativecommons.org/ns#"
   xmlns:rdf="http://www.w3.org/1999/02/22-rdf-syntax-ns#"
   xmlns:svg="http://www.w3.org/2000/svg"
   xmlns="http://www.w3.org/2000/svg"
   xmlns:xlink="http://www.w3.org/1999/xlink"
   xmlns:sodipodi="http://sodipodi.sourceforge.net/DTD/sodipodi-0.dtd"
   xmlns:inkscape="http://www.inkscape.org/namespaces/inkscape"
   width="80"
   height="80"
   viewBox="0 0 21.166666 21.166666"
   version="1.1"
   id="svg8"
   inkscape:version="0.92.4 (f8dce91, 2019-08-02)"
   sodipodi:docname="dried-orange.svg">
  <defs
     id="defs2" />
  <sodipodi:namedview
     id="base"
     pagecolor="#284b36"
     bordercolor="#666666"
     borderopacity="1.0"
     inkscape:pageopacity="0"
     inkscape:pageshadow="2"
     inkscape:zoom="11.2"
     inkscape:cx="60.57569"
     inkscape:cy="40.788458"
     inkscape:document-units="mm"
     inkscape:current-layer="layer1"
     showgrid="false"
     units="px"
     inkscape:window-width="1850"
     inkscape:window-height="1016"
     inkscape:window-x="70"
     inkscape:window-y="27"
     inkscape:window-maximized="1" />
  <metadata
     id="metadata5">
    <rdf:RDF>
      <cc:Work
         rdf:about="">
        <dc:format>image/svg+xml</dc:format>
        <dc:type
           rdf:resource="http://purl.org/dc/dcmitype/StillImage" />
        <dc:title></dc:title>
      </cc:Work>
    </rdf:RDF>
  </metadata>
  <g
     inkscape:label="Layer 1"
     inkscape:groupmode="layer"
     id="layer1"
     transform="translate(0,-275.83333)">
    <path
       style="opacity:1;vector-effect:none;fill:#e2ad21;fill-opacity:1;stroke:#000000;stroke-width:0.69999999;stroke-linecap:butt;stroke-linejoin:miter;stroke-miterlimit:4;stroke-dasharray:none;stroke-dashoffset:0;stroke-opacity:1"
       d="m 8.2343275,287.83954 c -5.892854,0 -5.404996,-8.25073 -0.02671,-8.25073 5.3783145,0 5.9195685,8.25073 0.02671,8.25073 z"
       id="path3285-0"
       inkscape:connector-curvature="0"
       sodipodi:nodetypes="zzz" />
    <g
       id="g7676"
       style="opacity:0.2;stroke-width:1.79999995;stroke-miterlimit:4;stroke-dasharray:none">
      <g
         id="g7680"
         style="display:none">
        <path
           sodipodi:type="inkscape:offset"
           inkscape:radius="0"
           inkscape:original="M 8.2070312 279.58789 C 2.8287452 279.58789 2.341521 287.83984 8.234375 287.83984 C 14.127233 287.83984 13.585346 279.58789 8.2070312 279.58789 z "
           xlink:href="#path3285-0"
           style="opacity:1;vector-effect:none;fill:#bd1935;fill-opacity:1;stroke:#000000;stroke-width:1.79999995;stroke-linecap:butt;stroke-linejoin:miter;stroke-miterlimit:4;stroke-dasharray:none;stroke-dashoffset:0;stroke-opacity:1"
           id="path7672"
           inkscape:href="#path3285-0"
           d="m 8.2070312,280.00977 c -5.378286,0 -5.8655102,8.25195 0.027344,8.25195 5.892858,0 5.350971,-8.25195 -0.027344,-8.25195 z"
           transform="translate(0.06026855,1.6855446)" />
        <path
           sodipodi:type="inkscape:offset"
           inkscape:radius="0"
           inkscape:original="M 11.423828 278.27344 L 9.8105469 278.29492 C 10.202819 279.06452 10.421944 280.9498 10.361328 281.7207 C 10.299748 282.50388 11.413957 282.99915 11.660156 281.79297 C 11.720926 281.49526 11.776879 280.94682 11.742188 280.35938 C 11.733488 280.21159 11.930178 280.05146 12.068359 280.16016 C 14.228923 281.85965 16.177123 282.92165 17.759766 281.51953 C 16.306788 279.29059 14.808294 278.06057 12.050781 279.15625 L 11.660156 279.21484 C 11.608466 278.82947 11.532553 278.49233 11.423828 278.27344 z "
           xlink:href="#path7649"
           style="fill:#007f3a;fill-opacity:1;stroke:#000000;stroke-width:1.79999995;stroke-linecap:round;stroke-linejoin:round;stroke-miterlimit:4;stroke-dasharray:none;stroke-opacity:1"
           id="path7670"
           inkscape:href="#path7649"
           d="m 11.423828,278.14062 -1.6132811,0.0195 c 0.3922721,0.7696 0.6113971,2.65683 0.5507811,3.42773 -0.06158,0.78318 1.052628,1.27845 1.298828,0.0723 0.142821,-0.69971 0.129294,-2.78346 -0.236328,-3.51954 z"
           transform="translate(-0.43467262,0.25379084)" />
      </g>
    </g>
    <path
       style="opacity:1;vector-effect:none;fill:#e27521;fill-opacity:1;stroke:#000000;stroke-width:0.69999999;stroke-linecap:butt;stroke-linejoin:miter;stroke-miterlimit:4;stroke-dasharray:none;stroke-dashoffset:0;stroke-opacity:1"
       d="m 39.856065,295.99576 c -8.274103,0 -7.589106,-10.84504 -0.03751,-10.84504 7.551642,0 8.311611,10.84504 0.03751,10.84504 z"
       id="path3285-0-7"
       inkscape:connector-curvature="0"
       sodipodi:nodetypes="zzz" />
    <path
       style="opacity:0.80699978;fill:#fffdfd;fill-opacity:1;stroke:none;stroke-width:0.38922897;stroke-linecap:butt;stroke-linejoin:miter;stroke-miterlimit:4;stroke-dasharray:none;stroke-opacity:1"
       d="m 43.551871,292.8841 c 0.555789,0.50959 -0.967782,1.58914 -2.354048,2.00171 -1.386267,0.41256 -3.339495,-0.31395 -3.24819,-0.61973 0.0913,-0.30579 1.725643,0.25234 3.010868,-0.13603 1.28523,-0.38837 2.035579,-1.75556 2.59137,-1.24595 z"
       id="path3287-2-5"
       inkscape:connector-curvature="0"
       sodipodi:nodetypes="zzzzz" />
    <path
       style="fill:#007f3a;fill-opacity:1;stroke:#000000;stroke-width:0.69999999;stroke-linecap:butt;stroke-linejoin:round;stroke-miterlimit:4;stroke-dasharray:none;stroke-opacity:1"
       d="m 40.366093,285.56866 c 0.06077,-0.29771 0.116722,-0.84686 0.08203,-1.43431 -0.0087,-0.14779 0.188567,-0.30665 0.326748,-0.19795 2.160564,1.69949 4.109163,2.76083 5.691806,1.35871 -1.452978,-2.22894 -2.951763,-3.45936 -5.709276,-2.36368 l -0.390284,0.0602 c -0.05169,-0.38537 -0.129343,-0.72341 -0.238068,-0.9423 l -1.611585,0.021 c 0.392272,0.7696 0.610341,2.65598 0.549725,3.42688 -0.06158,0.78318 1.0527,1.27758 1.298899,0.0714 z"
       id="path7649-3"
       inkscape:connector-curvature="0"
       sodipodi:nodetypes="csscccccssc" />
    <path
       style="fill:#e27521;fill-opacity:1;stroke:none;stroke-width:0.19785935px;stroke-linecap:butt;stroke-linejoin:miter;stroke-opacity:1"
       d="m 6.5035745,280.63584 c 0.314642,-0.0346 1.454945,2.67156 1.31168,2.88488 -0.20529,0.30565 -2.899037,-0.73433 -2.953184,-1.19863 -0.05603,-0.48042 1.036434,-1.6198 1.641504,-1.68625 z"
       id="path6205"
       inkscape:connector-curvature="0"
       sodipodi:nodetypes="ssss" />
    <path
       style="fill:#e27521;fill-opacity:1;stroke:none;stroke-width:0.19785935px;stroke-linecap:butt;stroke-linejoin:miter;stroke-opacity:1"
       d="m 9.3447275,280.41062 c 0.323265,0.2744 -0.762849,2.85999 -1.079923,2.85996 -0.317075,-3e-5 -1.384729,-2.58863 -1.176694,-2.87168 0.286433,-0.38974 1.792563,-0.38222 2.256617,0.0119 z"
       id="path6205-5"
       inkscape:connector-curvature="0"
       sodipodi:nodetypes="szss" />
    <path
       style="fill:#e27521;fill-opacity:1;stroke:none;stroke-width:0.19785935px;stroke-linecap:butt;stroke-linejoin:miter;stroke-opacity:1"
       d="m 5.6480525,286.19131 c -0.126532,-0.29013 2.11818,-2.18344 2.364436,-2.11006 0.352868,0.10509 0.160802,2.98626 -0.266399,3.17601 -0.442041,0.1963 -1.854709,-0.50798 -2.098037,-1.06595 z"
       id="path6205-0"
       inkscape:connector-curvature="0"
       sodipodi:nodetypes="ssss" />
    <path
       style="fill:#e27521;fill-opacity:1;stroke:none;stroke-width:0.19785935px;stroke-linecap:butt;stroke-linejoin:miter;stroke-opacity:1"
       d="m 4.6706575,283.07751 c 0.179994,-0.21718 2.911902,0.50863 2.965223,0.82119 0.05332,0.31254 -2.318675,1.8006 -2.63271,1.64317 -0.413966,-0.55511 -0.73364,-1.98034 -0.332513,-2.46436 z"
       id="path6205-5-9"
       inkscape:connector-curvature="0"
       sodipodi:nodetypes="szcs" />
    <path
       style="fill:#e27521;fill-opacity:1;stroke:none;stroke-width:0.19785935px;stroke-linecap:butt;stroke-linejoin:miter;stroke-opacity:1"
       d="m 10.002488,280.62896 c -0.3146425,-0.0344 -1.4549445,2.67156 -1.3116805,2.88488 0.20529,0.30564 2.8990365,-0.73434 2.9531845,-1.19863 0.05603,-0.48042 -1.036435,-1.61982 -1.641504,-1.68625 z"
       id="path6205-3"
       inkscape:connector-curvature="0"
       sodipodi:nodetypes="ssss" />
    <path
       style="fill:#e27521;fill-opacity:1;stroke:none;stroke-width:0.19785935px;stroke-linecap:butt;stroke-linejoin:miter;stroke-opacity:1"
       d="m 10.879718,286.21453 c 0.120105,-0.29286 -2.1658035,-2.1362 -2.4103835,-2.05743 -0.350463,0.11287 -0.09492,2.98909 0.336358,3.16936 0.446262,0.18653 1.8430585,-0.54874 2.0740255,-1.11193 z"
       id="path6205-0-6"
       inkscape:connector-curvature="0"
       sodipodi:nodetypes="ssss" />
    <path
       style="fill:#e27521;fill-opacity:1;stroke:none;stroke-width:0.19785935px;stroke-linecap:butt;stroke-linejoin:miter;stroke-opacity:1"
       d="m 11.716435,283.32047 c -0.216097,-0.36483 -2.9475925,0.27068 -3.0009135,0.58324 -0.05332,0.31255 2.3186745,1.8006 2.6327095,1.64317 0.432383,-0.21677 0.678417,-1.70268 0.368181,-2.22642 z"
       id="path6205-5-9-0"
       inkscape:connector-curvature="0"
       sodipodi:nodetypes="szss" />
    <path
       style="fill:#a35914;fill-opacity:1;stroke:none;stroke-width:0.26499999;stroke-linecap:butt;stroke-linejoin:miter;stroke-miterlimit:4;stroke-dasharray:none;stroke-opacity:1"
       d="m 7.3992256,280.5501 c 0.098167,-0.0304 0.8270687,2.35348 0.7443865,2.36529 -0.082682,0.0118 -0.8425532,-2.33491 -0.7443865,-2.36529 z"
       id="path6401"
       inkscape:connector-curvature="0"
       sodipodi:nodetypes="zzz" />
    <path
       sodipodi:nodetypes="zzz"
       inkscape:connector-curvature="0"
       id="path6403"
       d="m 8.5110353,280.46856 c 0.1026235,0.005 -0.069827,2.1709 -0.1514927,2.15339 -0.081663,-0.0175 0.048876,-2.15882 0.1514927,-2.15339 z"
       style="fill:#a35914;fill-opacity:1;stroke:none;stroke-width:0.26499999;stroke-linecap:butt;stroke-linejoin:miter;stroke-miterlimit:4;stroke-dasharray:none;stroke-opacity:1" />
    <path
       style="fill:#a35914;fill-opacity:1;stroke:none;stroke-width:0.26499999;stroke-linecap:butt;stroke-linejoin:miter;stroke-miterlimit:4;stroke-dasharray:none;stroke-opacity:1"
       d="m 5.2812321,282.13126 c 0.052933,-0.0881 2.0514126,1.10329 1.9976364,1.1672 -0.053783,0.0639 -2.0505817,-1.07913 -1.9976364,-1.1672 z"
       id="path6401-0"
       inkscape:connector-curvature="0"
       sodipodi:nodetypes="zzz" />
    <path
       sodipodi:nodetypes="zzz"
       inkscape:connector-curvature="0"
       id="path6403-2"
       d="m 6.3848296,281.10089 c 0.089296,-0.0508 1.1221186,1.96156 1.0438013,1.99058 -0.07831,0.029 -1.1333222,-1.94013 -1.0438013,-1.99058 z"
       style="fill:#a35914;fill-opacity:1;stroke:none;stroke-width:0.26499999;stroke-linecap:butt;stroke-linejoin:miter;stroke-miterlimit:4;stroke-dasharray:none;stroke-opacity:1" />
    <path
       style="fill:#a35914;fill-opacity:1;stroke:none;stroke-width:0.26499999;stroke-linecap:butt;stroke-linejoin:miter;stroke-miterlimit:4;stroke-dasharray:none;stroke-opacity:1"
       d="m 5.1380867,284.94498 c -0.037747,-0.0956 2.1233422,-0.95757 2.1413744,-0.87602 0.018018,0.0815 -2.1036568,0.97161 -2.1413744,0.87602 z"
       id="path6401-0-3"
       inkscape:connector-curvature="0"
       sodipodi:nodetypes="zzz" />
    <path
       sodipodi:nodetypes="zzz"
       inkscape:connector-curvature="0"
       id="path6403-2-7"
       d="m 4.9912456,283.44232 c 0.013974,-0.10178 2.2395585,0.30205 2.2149704,0.38188 -0.024598,0.0799 -2.2293599,-0.28014 -2.2149704,-0.38188 z"
       style="fill:#a35914;fill-opacity:1;stroke:none;stroke-width:0.26499999;stroke-linecap:butt;stroke-linejoin:miter;stroke-miterlimit:4;stroke-dasharray:none;stroke-opacity:1" />
    <path
       style="fill:#a35914;fill-opacity:1;stroke:none;stroke-width:0.24223511;stroke-linecap:butt;stroke-linejoin:miter;stroke-miterlimit:4;stroke-dasharray:none;stroke-opacity:1"
       d="m 4.8209196,284.08528 c -0.00178,-0.0859 1.0073539,-0.0967 0.9956082,-0.0276 -0.011742,0.069 -0.9938506,0.11346 -0.9956082,0.0276 z"
       id="path6401-0-3-5"
       inkscape:connector-curvature="0"
       sodipodi:nodetypes="zzz" />
    <path
       sodipodi:nodetypes="zzz"
       inkscape:connector-curvature="0"
       id="path6456"
       d="m 7.7358351,286.94194 c -0.1023348,-0.009 0.1345426,-2.49095 0.2154675,-2.47028 0.080918,0.0206 -0.1131397,2.4797 -0.2154675,2.47028 z"
       style="fill:#a35914;fill-opacity:1;stroke:none;stroke-width:0.26499999;stroke-linecap:butt;stroke-linejoin:miter;stroke-miterlimit:4;stroke-dasharray:none;stroke-opacity:1"
       inkscape:transform-center-x="0.36133489"
       inkscape:transform-center-y="1.9941376" />
    <path
       style="fill:#a35914;fill-opacity:1;stroke:none;stroke-width:0.26499999;stroke-linecap:butt;stroke-linejoin:miter;stroke-miterlimit:4;stroke-dasharray:none;stroke-opacity:1"
       d="m 6.3225711,286.37485 c -0.086594,-0.0553 1.1387043,-1.8496 1.2008929,-1.79385 0.062197,0.0557 -1.1145197,1.84951 -1.2008929,1.79385 z"
       id="path6458"
       inkscape:connector-curvature="0"
       sodipodi:nodetypes="zzz"
       inkscape:transform-center-x="1.2798984"
       inkscape:transform-center-y="1.7653115" />
    <path
       sodipodi:nodetypes="zzz"
       inkscape:connector-curvature="0"
       id="path6460"
       d="m 10.447954,286.09991 c -0.07162,0.0737 -1.7460363,-1.54172 -1.6791109,-1.59169 0.066934,-0.0499 1.7507329,1.518 1.6791109,1.59169 z"
       style="fill:#a35914;fill-opacity:1;stroke:none;stroke-width:0.26499999;stroke-linecap:butt;stroke-linejoin:miter;stroke-miterlimit:4;stroke-dasharray:none;stroke-opacity:1"
       inkscape:transform-center-x="-0.40435575"
       inkscape:transform-center-y="0.038589658" />
    <path
       style="fill:#a35914;fill-opacity:1;stroke:none;stroke-width:0.26499999;stroke-linecap:butt;stroke-linejoin:miter;stroke-miterlimit:4;stroke-dasharray:none;stroke-opacity:1"
       d="m 9.1385991,286.85169 c -0.098419,0.0296 -0.6456151,-2.16565 -0.5627461,-2.17606 0.082824,-0.0105 0.6614082,2.14734 0.5627461,2.17606 z"
       id="path6462"
       inkscape:connector-curvature="0"
       sodipodi:nodetypes="zzz"
       inkscape:transform-center-x="0.34556457"
       inkscape:transform-center-y="0.49767355" />
    <path
       sodipodi:nodetypes="zzz"
       inkscape:connector-curvature="0"
       id="path6464"
       d="m 11.504159,283.7439 c -0.0016,0.10277 -2.3281025,0.074 -2.3136184,-0.008 0.01448,-0.0822 2.3152684,-0.0945 2.3136184,0.008 z"
       style="fill:#a35914;fill-opacity:1;stroke:none;stroke-width:0.26499999;stroke-linecap:butt;stroke-linejoin:miter;stroke-miterlimit:4;stroke-dasharray:none;stroke-opacity:1"
       inkscape:transform-center-x="-2.1454005"
       inkscape:transform-center-y="0.027635213" />
    <path
       style="fill:#a35914;fill-opacity:1;stroke:none;stroke-width:0.26499999;stroke-linecap:butt;stroke-linejoin:miter;stroke-miterlimit:4;stroke-dasharray:none;stroke-opacity:1"
       d="m 11.065928,285.18872 c -0.05179,0.0888 -1.9543964,-1.13455 -1.9011815,-1.19893 0.053253,-0.0644 1.9533405,1.1104 1.9011815,1.19893 z"
       id="path6466"
       inkscape:connector-curvature="0"
       sodipodi:nodetypes="zzz"
       inkscape:transform-center-x="-1.9134006"
       inkscape:transform-center-y="0.87767108" />
    <path
       sodipodi:nodetypes="zzz"
       inkscape:connector-curvature="0"
       id="path6468"
       d="m 11.468918,284.65956 c -0.03117,0.0801 -0.967914,-0.29539 -0.930666,-0.35476 0.0372,-0.0593 0.961836,0.27474 0.930666,0.35476 z"
       style="fill:#a35914;fill-opacity:1;stroke:none;stroke-width:0.24223511;stroke-linecap:butt;stroke-linejoin:miter;stroke-miterlimit:4;stroke-dasharray:none;stroke-opacity:1"
       inkscape:transform-center-x="-2.8015134"
       inkscape:transform-center-y="0.77164027" />
    <path
       inkscape:transform-center-y="-1.5649755"
       inkscape:transform-center-x="-1.0491728"
       style="fill:#a35914;fill-opacity:1;stroke:none;stroke-width:0.26499999;stroke-linecap:butt;stroke-linejoin:miter;stroke-miterlimit:4;stroke-dasharray:none;stroke-opacity:1"
       d="m 9.980206,281.25005 c 0.091245,0.0473 -0.9716838,2.11692 -1.0388547,2.06728 -0.067106,-0.0497 0.9476183,-2.11457 1.0388547,-2.06728 z"
       id="path6488"
       inkscape:connector-curvature="0"
       sodipodi:nodetypes="zzz" />
    <path
       inkscape:transform-center-y="-0.97905697"
       inkscape:transform-center-x="-1.7053486"
       sodipodi:nodetypes="zzz"
       inkscape:connector-curvature="0"
       id="path6490"
       d="m 11.078137,282.28645 c 0.05677,0.0857 -1.8868658,1.24362 -1.9207679,1.16729 -0.033975,-0.0763 1.8647739,-1.25345 1.9207679,-1.16729 z"
       style="fill:#a35914;fill-opacity:1;stroke:none;stroke-width:0.26499999;stroke-linecap:butt;stroke-linejoin:miter;stroke-miterlimit:4;stroke-dasharray:none;stroke-opacity:1" />
    <path
       sodipodi:nodetypes="zzz"
       inkscape:connector-curvature="0"
       id="path6492"
       d="m 12.167733,293.54902 c -6.2552311,0 -5.7373727,-8.7581 -0.02835,-8.7581 5.70905,0 6.283588,8.7581 0.02835,8.7581 z"
       style="opacity:1;vector-effect:none;fill:#e2ad21;fill-opacity:1;stroke:#000000;stroke-width:0.7;stroke-linecap:butt;stroke-linejoin:miter;stroke-miterlimit:4;stroke-dasharray:none;stroke-dashoffset:0;stroke-opacity:1" />
    <path
       sodipodi:nodetypes="ssss"
       inkscape:connector-curvature="0"
       id="path6494"
       d="m 10.330548,285.90234 c 0.333991,-0.0367 1.544416,2.83584 1.392341,3.06228 -0.217914,0.32445 -3.0773111,-0.77949 -3.1347879,-1.27234 -0.059475,-0.50996 1.1001688,-1.71941 1.7424469,-1.78994 z"
       style="fill:#e27521;fill-opacity:1;stroke:none;stroke-width:0.21002656px;stroke-linecap:butt;stroke-linejoin:miter;stroke-opacity:1" />
    <path
       sodipodi:nodetypes="szss"
       inkscape:connector-curvature="0"
       id="path6496"
       d="m 13.346416,285.66327 c 0.343144,0.29127 -0.80976,3.03586 -1.146332,3.03583 -0.336573,-3e-5 -1.469882,-2.74782 -1.249054,-3.04827 0.304047,-0.41371 1.902795,-0.40573 2.395386,0.0126 z"
       style="fill:#e27521;fill-opacity:1;stroke:none;stroke-width:0.21002656px;stroke-linecap:butt;stroke-linejoin:miter;stroke-opacity:1" />
    <path
       sodipodi:nodetypes="ssss"
       inkscape:connector-curvature="0"
       id="path6498"
       d="m 9.4224165,291.79944 c -0.134313,-0.30797 2.2484355,-2.31771 2.5098355,-2.23982 0.374567,0.11155 0.17069,3.1699 -0.282781,3.37132 -0.469224,0.20837 -1.9687632,-0.53922 -2.2270545,-1.1315 z"
       style="fill:#e27521;fill-opacity:1;stroke:none;stroke-width:0.21002656px;stroke-linecap:butt;stroke-linejoin:miter;stroke-opacity:1" />
    <path
       sodipodi:nodetypes="szcs"
       inkscape:connector-curvature="0"
       id="path6500"
       d="m 8.3849173,288.49416 c 0.1910626,-0.23054 3.0909677,0.5399 3.1475677,0.87168 0.0566,0.33176 -2.4612607,1.91133 -2.794607,1.74422 -0.4394226,-0.58925 -0.7787547,-2.10212 -0.3529607,-2.6159 z"
       style="fill:#e27521;fill-opacity:1;stroke:none;stroke-width:0.21002656px;stroke-linecap:butt;stroke-linejoin:miter;stroke-opacity:1" />
    <path
       sodipodi:nodetypes="ssss"
       inkscape:connector-curvature="0"
       id="path6502"
       d="m 14.044624,285.89503 c -0.33399,-0.0365 -1.544414,2.83585 -1.39234,3.06229 0.217914,0.32443 3.07731,-0.7795 3.134787,-1.27234 0.05948,-0.50996 -1.100169,-1.71943 -1.742447,-1.78995 z"
       style="fill:#e27521;fill-opacity:1;stroke:none;stroke-width:0.21002656px;stroke-linecap:butt;stroke-linejoin:miter;stroke-opacity:1" />
    <path
       sodipodi:nodetypes="ssss"
       inkscape:connector-curvature="0"
       id="path6504"
       d="m 14.975799,291.82408 c 0.127491,-0.31086 -2.298988,-2.26756 -2.558608,-2.18395 -0.372014,0.11982 -0.100757,3.17291 0.357042,3.36426 0.473705,0.198 1.956396,-0.58248 2.201566,-1.18031 z"
       style="fill:#e27521;fill-opacity:1;stroke:none;stroke-width:0.21002656px;stroke-linecap:butt;stroke-linejoin:miter;stroke-opacity:1" />
    <path
       sodipodi:nodetypes="szss"
       inkscape:connector-curvature="0"
       id="path6506"
       d="m 15.863969,288.75206 c -0.229385,-0.38727 -3.128852,0.28732 -3.185452,0.6191 -0.0566,0.33177 2.461261,1.91133 2.794607,1.74422 0.458972,-0.2301 0.720136,-1.80739 0.390822,-2.36333 z"
       style="fill:#e27521;fill-opacity:1;stroke:none;stroke-width:0.21002656px;stroke-linecap:butt;stroke-linejoin:miter;stroke-opacity:1" />
    <path
       sodipodi:nodetypes="zzz"
       inkscape:connector-curvature="0"
       id="path6508"
       d="m 11.281277,285.81132 c 0.104207,-0.0323 0.877929,2.49821 0.790162,2.51075 -0.08776,0.0125 -0.894366,-2.4785 -0.790162,-2.51075 z"
       style="fill:#a35914;fill-opacity:1;stroke:none;stroke-width:0.28129596;stroke-linecap:butt;stroke-linejoin:miter;stroke-miterlimit:4;stroke-dasharray:none;stroke-opacity:1" />
    <path
       style="fill:#a35914;fill-opacity:1;stroke:none;stroke-width:0.28129596;stroke-linecap:butt;stroke-linejoin:miter;stroke-miterlimit:4;stroke-dasharray:none;stroke-opacity:1"
       d="m 12.461457,285.72477 c 0.108933,0.005 -0.07412,2.3044 -0.160809,2.28581 -0.08668,-0.0186 0.05188,-2.29157 0.160809,-2.28581 z"
       id="path6510"
       inkscape:connector-curvature="0"
       sodipodi:nodetypes="zzz" />
    <path
       sodipodi:nodetypes="zzz"
       inkscape:connector-curvature="0"
       id="path6512"
       d="m 9.0330388,287.48972 c 0.056188,-0.0935 2.1775622,1.17113 2.1204792,1.23897 -0.05709,0.0678 -2.1766803,-1.14549 -2.1204792,-1.23897 z"
       style="fill:#a35914;fill-opacity:1;stroke:none;stroke-width:0.28129596;stroke-linecap:butt;stroke-linejoin:miter;stroke-miterlimit:4;stroke-dasharray:none;stroke-opacity:1" />
    <path
       style="fill:#a35914;fill-opacity:1;stroke:none;stroke-width:0.28129596;stroke-linecap:butt;stroke-linejoin:miter;stroke-miterlimit:4;stroke-dasharray:none;stroke-opacity:1"
       d="m 10.204501,286.39599 c 0.09479,-0.0539 1.191123,2.08218 1.107989,2.11298 -0.08313,0.0308 -1.203015,-2.05943 -1.107989,-2.11298 z"
       id="path6514"
       inkscape:connector-curvature="0"
       sodipodi:nodetypes="zzz" />
    <path
       sodipodi:nodetypes="zzz"
       inkscape:connector-curvature="0"
       id="path6516"
       d="m 8.8810908,290.47646 c -0.040068,-0.10147 2.2539152,-1.01645 2.2730572,-0.92989 0.01913,0.0865 -2.2330202,1.03136 -2.2730572,0.92989 z"
       style="fill:#a35914;fill-opacity:1;stroke:none;stroke-width:0.28129596;stroke-linecap:butt;stroke-linejoin:miter;stroke-miterlimit:4;stroke-dasharray:none;stroke-opacity:1" />
    <path
       style="fill:#a35914;fill-opacity:1;stroke:none;stroke-width:0.28129596;stroke-linecap:butt;stroke-linejoin:miter;stroke-miterlimit:4;stroke-dasharray:none;stroke-opacity:1"
       d="m 8.7252198,288.8814 c 0.014833,-0.10804 2.3772792,0.32062 2.3511782,0.40536 -0.02611,0.0848 -2.3664526,-0.29736 -2.3511782,-0.40536 z"
       id="path6518"
       inkscape:connector-curvature="0"
       sodipodi:nodetypes="zzz" />
    <path
       sodipodi:nodetypes="zzz"
       inkscape:connector-curvature="0"
       id="path6520"
       d="m 8.5444197,289.5639 c -0.00189,-0.0912 1.0693004,-0.10265 1.0568324,-0.0293 -0.012464,0.0732 -1.0549667,0.12044 -1.0568324,0.0293 z"
       style="fill:#a35914;fill-opacity:1;stroke:none;stroke-width:0.25713119;stroke-linecap:butt;stroke-linejoin:miter;stroke-miterlimit:4;stroke-dasharray:none;stroke-opacity:1" />
    <path
       inkscape:transform-center-y="2.1167684"
       inkscape:transform-center-x="0.38355444"
       style="fill:#a35914;fill-opacity:1;stroke:none;stroke-width:0.28129596;stroke-linecap:butt;stroke-linejoin:miter;stroke-miterlimit:4;stroke-dasharray:none;stroke-opacity:1"
       d="m 11.638586,292.59623 c -0.108628,-0.01 0.142816,-2.64413 0.228717,-2.62219 0.0859,0.0219 -0.120097,2.63219 -0.228717,2.62219 z"
       id="path6522"
       inkscape:connector-curvature="0"
       sodipodi:nodetypes="zzz" />
    <path
       inkscape:transform-center-y="1.8738655"
       inkscape:transform-center-x="1.3586048"
       sodipodi:nodetypes="zzz"
       inkscape:connector-curvature="0"
       id="path6524"
       d="m 10.138415,291.99426 c -0.09192,-0.0587 1.208727,-1.96334 1.27474,-1.90416 0.06602,0.0591 -1.183056,1.96325 -1.27474,1.90416 z"
       style="fill:#a35914;fill-opacity:1;stroke:none;stroke-width:0.28129596;stroke-linecap:butt;stroke-linejoin:miter;stroke-miterlimit:4;stroke-dasharray:none;stroke-opacity:1" />
    <path
       inkscape:transform-center-y="0.040964646"
       inkscape:transform-center-x="-0.42922119"
       style="fill:#a35914;fill-opacity:1;stroke:none;stroke-width:0.28129596;stroke-linecap:butt;stroke-linejoin:miter;stroke-miterlimit:4;stroke-dasharray:none;stroke-opacity:1"
       d="m 14.517484,291.70242 c -0.07602,0.0782 -1.853407,-1.63653 -1.782366,-1.68957 0.07105,-0.053 1.858392,1.61134 1.782366,1.68957 z"
       id="path6526"
       inkscape:connector-curvature="0"
       sodipodi:nodetypes="zzz" />
    <path
       inkscape:transform-center-y="0.52827882"
       inkscape:transform-center-x="0.36681509"
       sodipodi:nodetypes="zzz"
       inkscape:connector-curvature="0"
       id="path6528"
       d="m 13.127612,292.50043 c -0.104472,0.0314 -0.685317,-2.29883 -0.597353,-2.30988 0.08791,-0.0111 0.702082,2.27939 0.597353,2.30988 z"
       style="fill:#a35914;fill-opacity:1;stroke:none;stroke-width:0.28129596;stroke-linecap:butt;stroke-linejoin:miter;stroke-miterlimit:4;stroke-dasharray:none;stroke-opacity:1" />
    <path
       inkscape:transform-center-y="0.029574427"
       inkscape:transform-center-x="-2.2773305"
       style="fill:#a35914;fill-opacity:1;stroke:none;stroke-width:0.28129596;stroke-linecap:butt;stroke-linejoin:miter;stroke-miterlimit:4;stroke-dasharray:none;stroke-opacity:1"
       d="m 15.63864,289.20153 c -0.0017,0.10908 -2.471267,0.0786 -2.455893,-0.008 0.01537,-0.0873 2.457644,-0.10031 2.455893,0.008 z"
       id="path6530"
       inkscape:connector-curvature="0"
       sodipodi:nodetypes="zzz" />
    <path
       inkscape:transform-center-y="0.93164365"
       inkscape:transform-center-x="-2.0310638"
       sodipodi:nodetypes="zzz"
       inkscape:connector-curvature="0"
       id="path6532"
       d="m 15.17346,290.73519 c -0.05498,0.0943 -2.07458,-1.20432 -2.018093,-1.27265 0.05653,-0.0684 2.073459,1.17868 2.018093,1.27265 z"
       style="fill:#a35914;fill-opacity:1;stroke:none;stroke-width:0.28129596;stroke-linecap:butt;stroke-linejoin:miter;stroke-miterlimit:4;stroke-dasharray:none;stroke-opacity:1" />
    <path
       inkscape:transform-center-y="0.81908318"
       inkscape:transform-center-x="-2.9737903"
       style="fill:#a35914;fill-opacity:1;stroke:none;stroke-width:0.25713119;stroke-linecap:butt;stroke-linejoin:miter;stroke-miterlimit:4;stroke-dasharray:none;stroke-opacity:1"
       d="m 15.601231,290.17349 c -0.03309,0.085 -1.027435,-0.31355 -0.987896,-0.37657 0.03949,-0.063 1.020983,0.29163 0.987896,0.37657 z"
       id="path6534"
       inkscape:connector-curvature="0"
       sodipodi:nodetypes="zzz" />
    <path
       sodipodi:nodetypes="zzz"
       inkscape:connector-curvature="0"
       id="path6536"
       d="m 14.020972,286.55432 c 0.09686,0.0502 -1.031436,2.2471 -1.102737,2.1944 -0.07124,-0.0528 1.005891,-2.2446 1.102737,-2.1944 z"
       style="fill:#a35914;fill-opacity:1;stroke:none;stroke-width:0.28129596;stroke-linecap:butt;stroke-linejoin:miter;stroke-miterlimit:4;stroke-dasharray:none;stroke-opacity:1"
       inkscape:transform-center-x="-1.1136908"
       inkscape:transform-center-y="-1.661213" />
    <path
       style="fill:#a35914;fill-opacity:1;stroke:none;stroke-width:0.28129596;stroke-linecap:butt;stroke-linejoin:miter;stroke-miterlimit:4;stroke-dasharray:none;stroke-opacity:1"
       d="m 15.18642,287.65445 c 0.06026,0.091 -2.002897,1.3201 -2.038884,1.23907 -0.03606,-0.081 1.979446,-1.33053 2.038884,-1.23907 z"
       id="path6538"
       inkscape:connector-curvature="0"
       sodipodi:nodetypes="zzz"
       inkscape:transform-center-x="-1.8102177"
       inkscape:transform-center-y="-1.0392642" />
  </g>
</svg>
