<?xml version="1.0" encoding="UTF-8" standalone="no"?>
<!-- Created with Inkscape (http://www.inkscape.org/) -->

<svg
   xmlns:dc="http://purl.org/dc/elements/1.1/"
   xmlns:cc="http://creativecommons.org/ns#"
   xmlns:rdf="http://www.w3.org/1999/02/22-rdf-syntax-ns#"
   xmlns:svg="http://www.w3.org/2000/svg"
   xmlns="http://www.w3.org/2000/svg"
   xmlns:xlink="http://www.w3.org/1999/xlink"
   xmlns:sodipodi="http://sodipodi.sourceforge.net/DTD/sodipodi-0.dtd"
   xmlns:inkscape="http://www.inkscape.org/namespaces/inkscape"
   width="80"
   height="80"
   viewBox="0 0 21.166666 21.166666"
   version="1.1"
   id="svg8"
   inkscape:version="0.92.4 (f8dce91, 2019-08-02)"
   sodipodi:docname="red-gem.svg">
  <defs
     id="defs2" />
  <sodipodi:namedview
     id="base"
     pagecolor="#284b36"
     bordercolor="#666666"
     borderopacity="1.0"
     inkscape:pageopacity="0"
     inkscape:pageshadow="2"
     inkscape:zoom="5.6"
     inkscape:cx="77.365454"
     inkscape:cy="57.504209"
     inkscape:document-units="mm"
     inkscape:current-layer="layer1"
     showgrid="false"
     units="px"
     inkscape:window-width="1850"
     inkscape:window-height="1016"
     inkscape:window-x="70"
     inkscape:window-y="27"
     inkscape:window-maximized="1"
     showguides="false" />
  <metadata
     id="metadata5">
    <rdf:RDF>
      <cc:Work
         rdf:about="">
        <dc:format>image/svg+xml</dc:format>
        <dc:type
           rdf:resource="http://purl.org/dc/dcmitype/StillImage" />
        <dc:title />
      </cc:Work>
    </rdf:RDF>
  </metadata>
  <g
     inkscape:label="Layer 1"
     inkscape:groupmode="layer"
     id="layer1"
     transform="translate(0,-275.83333)">
    <g
       id="g7676"
       style="opacity:0.2;stroke-width:1.79999995;stroke-miterlimit:4;stroke-dasharray:none">
      <g
         id="g7680"
         style="display:none">
        <path
           sodipodi:type="inkscape:offset"
           inkscape:radius="0"
           inkscape:original="M -8.6367188 276.93359 C -16.188315 276.93359 -16.583079 288.87461 -9.0332031 287.74609 C -0.68391715 289.45871 -1.0850767 276.93359 -8.6367188 276.93359 z "
           xlink:href="#path3285-0"
           style="opacity:1;vector-effect:none;fill:#bd1935;fill-opacity:1;stroke:#000000;stroke-width:1.79999995;stroke-linecap:butt;stroke-linejoin:miter;stroke-miterlimit:4;stroke-dasharray:none;stroke-dashoffset:0;stroke-opacity:1"
           id="path7672"
           inkscape:href="#path3285-0"
           d="m 11.113281,281.375 c -7.5515963,0 -7.9483137,11.94102 -0.398437,10.8125 8.349286,1.71262 7.950079,-10.8125 0.398437,-10.8125 z"
           transform="translate(19.220089,4.9703869)" />
        <path
           sodipodi:type="inkscape:offset"
           inkscape:radius="0"
           inkscape:original="M -8.2324219 273.55664 L -9.84375 273.57812 C -9.4514777 274.34773 -9.2298455 275.84782 -9.2265625 276.62109 C -13.581046 276.67289 -13.225588 279.55562 -15.490234 280.3125 C -12.397968 280.83422 -12.09833 277.90458 -9.4882812 278.27148 C -10.650242 280.90205 -8.6332219 282.12299 -8.4042969 283.2832 C -8.0609649 282.11665 -9.5570223 280.38991 -7.5820312 278.28516 C -4.7452032 278.17117 -4.0243773 281.3955 -1.8320312 280.64062 C -3.8539012 279.64907 -3.5293775 276.55441 -7.7265625 276.50781 C -7.7311625 275.79369 -7.8667999 274.29272 -8.2324219 273.55664 z "
           xlink:href="#path7649"
           style="fill:#007f3a;fill-opacity:1;stroke:#000000;stroke-width:1.79999995;stroke-linecap:round;stroke-linejoin:round;stroke-miterlimit:4;stroke-dasharray:none;stroke-opacity:1"
           id="path7670"
           inkscape:href="#path7649"
           d="m 11.517578,277.99805 -1.611328,0.0215 c 0.392272,0.7696 0.611951,2.2697 0.615234,3.04297 -4.3544827,0.0518 -3.9970724,2.93453 -6.2617184,3.69141 3.0922665,0.52172 3.3919041,-2.40792 6.0019534,-2.04102 -1.1619617,2.63057 0.855059,3.85151 1.083984,5.01172 0.343332,-1.16655 -1.154678,-2.8933 0.820313,-4.99805 2.836828,-0.11399 3.559607,3.11035 5.751953,2.35547 -2.02187,-0.99156 -1.6993,-4.08621 -5.896485,-4.13281 -0.0046,-0.71412 -0.138284,-2.21509 -0.503906,-2.95117 z"
           transform="translate(19.220089,4.9703869)" />
      </g>
    </g>
    <path
       style="opacity:1;vector-effect:none;fill:#bd1935;fill-opacity:1;stroke:#000000;stroke-width:0.69999999;stroke-linecap:butt;stroke-linejoin:miter;stroke-miterlimit:4;stroke-dasharray:none;stroke-dashoffset:0;stroke-opacity:1"
       d="m -9.0336038,287.74532 c -7.5498762,1.12852 -7.1547922,-10.81163 0.396804,-10.81163 7.551642,0 7.95248198,12.52425 -0.396804,10.81163 z"
       id="path3285-0"
       inkscape:connector-curvature="0"
       sodipodi:nodetypes="czc" />
    <path
       style="opacity:0.80699978;fill:#fffdfd;fill-opacity:1;stroke:none;stroke-width:0.38922897;stroke-linecap:butt;stroke-linejoin:miter;stroke-miterlimit:4;stroke-dasharray:none;stroke-opacity:1"
       d="m -4.9034848,284.66707 c 0.555789,0.50959 -0.967782,1.58914 -2.354048,2.00171 -1.386267,0.41256 -3.3394952,-0.31395 -3.2481902,-0.61973 0.0913,-0.30579 1.7256432,0.25234 3.0108682,-0.13603 1.28523,-0.38837 2.035579,-1.75556 2.59137,-1.24595 z"
       id="path3287-2"
       inkscape:connector-curvature="0"
       sodipodi:nodetypes="zzzzz" />
    <path
       style="fill:#007f3a;fill-opacity:1;stroke:#000000;stroke-width:0.69999999;stroke-linecap:round;stroke-linejoin:round;stroke-miterlimit:4;stroke-dasharray:none;stroke-opacity:1"
       d="m -9.4880778,278.27129 c -1.1619612,2.63057 0.85547,3.85202 1.084395,5.01223 0.343332,-1.16655 -1.153752,-2.89402 0.821239,-4.99877 2.836828,-0.11399 3.558681,3.11107 5.751027,2.35619 -2.02187,-0.99156 -1.698897,-4.08606 -5.896082,-4.13266 -0.0046,-0.71412 -0.138687,-2.21525 -0.504309,-2.95133 l -1.6115853,0.021 c 0.3922723,0.7696 0.6132593,2.26941 0.6165423,3.04268 -4.3544832,0.0518 -3.9981232,2.9353 -6.2627692,3.69218 3.092266,0.52172 3.391493,-2.40842 6.0015422,-2.04152 z"
       id="path7649"
       inkscape:connector-curvature="0"
       sodipodi:nodetypes="cccccccccc" />
    <path
       style="opacity:1;vector-effect:none;fill:#cf1d3b;fill-opacity:1;stroke:none;stroke-width:0.61312133;stroke-linecap:butt;stroke-linejoin:round;stroke-miterlimit:4;stroke-dasharray:none;stroke-dashoffset:0;stroke-opacity:1"
       d="m 15.317782,291.15111 -4.734449,1.96107 -4.7344487,-1.96107 -1.961073,-4.73445 1.961073,-4.73444 4.7344487,-1.96108 4.734449,1.96108 1.961073,4.73444 z"
       id="path1589"
       inkscape:connector-curvature="0" />
    <path
       style="opacity:1;vector-effect:none;fill:#d81d3d;fill-opacity:1;stroke:none;stroke-width:0.31077188;stroke-linecap:butt;stroke-linejoin:round;stroke-miterlimit:4;stroke-dasharray:none;stroke-dashoffset:0;stroke-opacity:1"
       d="m 12.983076,288.81641 -2.399743,0.994 -2.3997427,-0.994 -0.994006,-2.39975 0.994006,-2.39974 2.3997427,-0.99401 2.399743,0.99401 0.994006,2.39974 z"
       id="path1591"
       inkscape:connector-curvature="0" />
    <path
       style="fill:#a2152d;fill-opacity:1;stroke:none;stroke-width:0.23174526px;stroke-linecap:butt;stroke-linejoin:miter;stroke-opacity:1"
       d="m 10.583334,279.72114 v 3.30177 l -2.3997427,0.99401 -2.334707,-2.3347 z"
       id="path1595"
       inkscape:connector-curvature="0" />
    <path
       style="fill:#e43855;fill-opacity:1;stroke:none;stroke-width:0.23174526px;stroke-linecap:butt;stroke-linejoin:miter;stroke-opacity:1"
       d="m 10.583334,289.81041 2.39974,-0.994 2.334709,2.3347 -4.734449,1.96107 z"
       id="path1599"
       inkscape:connector-curvature="0" />
    <path
       style="fill:#df1d3d;fill-opacity:1;stroke:none;stroke-width:0.23174526px;stroke-linecap:butt;stroke-linejoin:miter;stroke-opacity:1"
       d="m 5.8488843,291.15111 2.334707,-2.3347 2.3997427,0.994 v 3.30177 z"
       id="path1601"
       inkscape:connector-curvature="0" />
    <path
       style="fill:#df1d3d;fill-opacity:1;stroke:none;stroke-width:0.23174526px;stroke-linecap:butt;stroke-linejoin:miter;stroke-opacity:1"
       d="m 15.317783,291.15111 -2.334709,-2.3347 0.994007,-2.39975 h 3.301774 z"
       id="path1605"
       inkscape:connector-curvature="0" />
    <path
       style="fill:#b01731;fill-opacity:1;stroke:none;stroke-width:0.23174526px;stroke-linecap:butt;stroke-linejoin:miter;stroke-opacity:1"
       d="m 3.8878113,286.41666 h 3.301773 l 0.994007,-2.39974 -2.334707,-2.3347 z"
       id="path1607"
       inkscape:connector-curvature="0" />
    <path
       style="fill:#b01731;fill-opacity:1;stroke:none;stroke-width:0.23174526px;stroke-linecap:butt;stroke-linejoin:miter;stroke-opacity:1"
       d="m 10.583334,279.72114 4.734449,1.96108 -2.334709,2.3347 -2.39974,-0.99401 z"
       id="path1609"
       inkscape:connector-curvature="0" />
    <path
       id="path1597"
       d="m 15.317782,291.15111 -4.734449,1.96107 -4.7344487,-1.96107 -1.961073,-4.73445 1.961073,-4.73444 4.7344487,-1.96108 4.734449,1.96108 1.961073,4.73444 z"
       style="opacity:1;vector-effect:none;fill:none;fill-opacity:1;stroke:#000000;stroke-width:0.69999999;stroke-linecap:butt;stroke-linejoin:round;stroke-miterlimit:4;stroke-dasharray:none;stroke-dashoffset:0;stroke-opacity:1"
       inkscape:connector-curvature="0" />
  </g>
</svg>
